<svg width="4200" height="1080" viewBox="0 0 4200 1080" fill="none" xmlns="http://www.w3.org/2000/svg">
<line x1="411.663" y1="897.589" x2="447.663" y2="780.589" stroke="white" stroke-width="30"/>
<line x1="733.489" y1="780.118" x2="765.172" y2="898.36" stroke="white" stroke-width="30"/>
<rect x="310" y="899" width="556" height="73" rx="36.5" stroke="white" stroke-width="32"/>
<path d="M194.002 188.978L182.502 188.978C182.502 182.626 187.651 177.478 194.002 177.478L194.002 188.978ZM194.002 658.009L194.002 669.509C187.651 669.509 182.502 664.36 182.502 658.009L194.002 658.009ZM195.002 658.009L206.502 658.009C206.502 664.36 201.353 669.509 195.002 669.509L195.002 658.009ZM195.002 188.978L195.002 177.478C201.353 177.478 206.502 182.626 206.502 188.978L195.002 188.978ZM981.974 188L981.974 199.5C978.924 199.5 975.999 198.288 973.842 196.132C971.685 193.975 970.474 191.05 970.474 188L981.974 188ZM981.974 187.973L981.974 176.473C985.024 176.473 987.949 177.684 990.105 179.841C992.262 181.998 993.474 184.923 993.474 187.973L981.974 187.973ZM195.001 187.973L183.501 187.973C183.501 184.923 184.713 181.998 186.869 179.841C189.026 177.684 191.951 176.473 195.001 176.473L195.001 187.973ZM195.001 188.973L195.001 200.473C188.65 200.473 183.501 195.324 183.501 188.973L195.001 188.973ZM981 188.973L981 177.473C987.351 177.473 992.5 182.621 992.5 188.973L981 188.973ZM981 552L981 563.5C974.649 563.5 969.5 558.351 969.5 552L981 552ZM982 552L993.5 552C993.5 555.05 992.288 557.975 990.132 560.132C987.975 562.288 985.05 563.5 982 563.5L982 552ZM982 188L982 176.5C988.351 176.5 993.5 181.649 993.5 188L982 188ZM981 608L969.5 608C969.5 601.649 974.649 596.5 981 596.5L981 608ZM981 658.014L992.5 658.014C992.5 664.365 987.351 669.514 981 669.514L981 658.014ZM195.002 658.014L183.502 658.014C183.502 651.662 188.651 646.514 195.002 646.514L195.002 658.014ZM195.002 659.014L195.002 670.514C188.651 670.514 183.502 665.365 183.502 659.014L195.002 659.014ZM981.975 659.014L993.475 659.014C993.475 665.365 988.326 670.514 981.975 670.514L981.975 659.014ZM981.975 659L970.475 659C970.475 652.649 975.623 647.5 981.975 647.5L981.975 659ZM982 659L993.5 659C993.5 665.351 988.351 670.5 982 670.5L982 659ZM982 608L982 596.5C985.05 596.5 987.975 597.712 990.132 599.868C992.288 602.025 993.5 604.95 993.5 608L982 608ZM194.002 188.978L205.502 188.978L205.502 658.009L194.002 658.009L182.502 658.009L182.502 188.978L194.002 188.978ZM194.002 658.009L194.002 646.509L195.002 646.509L195.002 658.009L195.002 669.509L194.002 669.509L194.002 658.009ZM195.002 658.009L183.502 658.009L183.502 188.978L195.002 188.978L206.502 188.978L206.502 658.009L195.002 658.009ZM195.002 188.978L195.002 200.478L194.002 200.478L194.002 188.978L194.002 177.478L195.002 177.478L195.002 188.978ZM981.974 188L970.474 188L970.474 187.973L981.974 187.973L993.474 187.973L993.474 188L981.974 188ZM981.974 187.973L981.974 199.473L195.001 199.473L195.001 187.973L195.001 176.473L981.974 176.473L981.974 187.973ZM195.001 187.973L206.501 187.973L206.501 188.973L195.001 188.973L183.501 188.973L183.501 187.973L195.001 187.973ZM195.001 188.973L195.001 177.473L981 177.473L981 188.973L981 200.473L195.001 200.473L195.001 188.973ZM981 188.973L992.5 188.973L992.5 552L981 552L969.5 552L969.5 188.973L981 188.973ZM981 552L981 540.5L982 540.5L982 552L982 563.5L981 563.5L981 552ZM982 552L970.5 552L970.5 188L982 188L993.5 188L993.5 552L982 552ZM982 188L982 199.5L981.974 199.5L981.974 188L981.974 176.5L982 176.5L982 188ZM981 608L992.5 608L992.5 658.014L981 658.014L969.5 658.014L969.5 608L981 608ZM981 658.014L981 669.514L195.002 669.514L195.002 658.014L195.002 646.514L981 646.514L981 658.014ZM195.002 658.014L206.502 658.014L206.502 659.014L195.002 659.014L183.502 659.014L183.502 658.014L195.002 658.014ZM195.002 659.014L195.002 647.514L981.975 647.514L981.975 659.014L981.975 670.514L195.002 670.514L195.002 659.014ZM981.975 659.014L970.475 659.014L970.475 659L981.975 659L993.475 659L993.475 659.014L981.975 659.014ZM981.975 659L981.975 647.5L982 647.5L982 659L982 670.5L981.975 670.5L981.975 659ZM982 659L970.5 659L970.5 608L982 608L993.5 608L993.5 659L982 659ZM982 608L982 619.5L981 619.5L981 608L981 596.5L982 596.5L982 608Z" fill="white"/>
<circle cx="588.5" cy="716.5" r="14.5" fill="white"/>
<path d="M341.5 111H932.717C965.577 111 997.115 123.939 1020.51 147.016L1021.29 147.789C1045.1 171.277 1058.5 203.327 1058.5 236.772V653.71C1058.5 688.633 1043.72 722.117 1018.04 745.783C994.962 767.054 964.574 779 933.186 779H243.809C211.826 779 181.059 766.74 157.841 744.744L157.032 743.978C132.114 720.371 118 687.558 118 653.234V237.513C118 203.926 131.516 171.752 155.503 148.242L157.046 146.729C180.412 123.828 211.826 111 244.544 111H285" stroke="white" stroke-width="32" stroke-linecap="round"/>
<path d="M287.302 541.85C286.803 547.497 284.023 555.702 272.246 555.702C269.561 555.702 255 555.435 255 536.577C255 521.233 263.249 516.172 271.897 516.172C283.823 516.172 286.508 524.004 286.807 529.331H280.495C280.096 526.241 278.408 521.819 271.897 521.819C264.143 521.819 261.807 528.585 261.807 536.31C261.807 545.047 266.279 550.054 272.541 550.054C278.305 550.054 280.79 545.845 280.989 541.85H287.302Z" fill="white"/>
<path d="M308.475 516.176C311.505 516.176 325.521 516.602 325.521 535.94C325.521 555.279 311.508 555.706 308.475 555.706C305.442 555.706 291.429 555.279 291.429 535.94C291.429 516.602 305.442 516.176 308.475 516.176ZM308.475 550.058C317.073 550.058 318.711 541.694 318.711 535.94C318.711 530.187 317.069 521.823 308.475 521.823C299.881 521.823 298.239 530.187 298.239 535.94C298.239 541.694 299.881 550.058 308.475 550.058Z" fill="white"/>
<path d="M342.815 532.207C343.314 525.709 347.088 516.172 359.662 516.172C362.692 516.172 376.708 516.598 376.708 535.937C376.708 555.275 362.695 555.702 359.662 555.702C346.543 555.702 343.015 545.473 342.666 537.854H338.344V554.582H331.981V517.291H338.344V532.207H342.815ZM369.901 535.937C369.901 530.183 368.26 521.819 359.666 521.819C351.071 521.819 349.43 530.183 349.43 535.937C349.43 541.69 351.071 550.054 359.666 550.054C368.26 550.054 369.901 541.69 369.901 535.937Z" fill="white"/>
<path d="M387.494 541.85C387.543 544.94 388.786 550.054 396.39 550.054C401.111 550.054 404.144 547.87 404.144 543.821C404.144 539.187 401.161 537.961 397.288 537.961H392.517V532.314H396.643C398.136 532.314 402.756 532.207 402.756 527.412C402.756 524.11 400.77 521.819 395.7 521.819C389.687 521.819 387.996 525.016 387.896 528.265H381.584C381.733 518.516 388.64 516.172 396.244 516.172C401.015 516.172 409.314 517.45 409.314 526.721C409.314 531.515 406.58 534.446 403.5 534.924V535.031C407.278 535.617 410.706 538.654 410.706 544.514C410.706 548.883 408.47 555.702 395.995 555.702C387.049 555.702 381.534 551.6 381.185 541.85H387.497H387.494Z" fill="white"/>
<path d="M446.549 532.207C447.047 525.709 450.821 516.172 463.396 516.172C466.424 516.172 480.442 516.598 480.442 535.937C480.442 555.275 466.429 555.702 463.396 555.702C450.276 555.702 446.747 545.473 446.399 537.854H442.077V554.582H435.715V517.291H442.077V532.207H446.549ZM473.635 535.937C473.635 530.183 471.993 521.819 463.398 521.819C454.804 521.819 453.163 530.183 453.163 535.937C453.163 541.69 454.804 550.054 463.398 550.054C471.993 550.054 473.635 541.69 473.635 535.937Z" fill="white"/>
<path d="M493.266 554.582H486.905V517.291H493.266V532.207H508.771V517.291H515.133V554.582H508.771V537.854H493.266V554.582Z" fill="white"/>
<path d="M529.94 531.675H538.987C542.765 531.675 551.063 532.474 551.063 543.341C551.063 547.977 548.878 554.582 538.937 554.582H523.582V517.291H529.944V531.675H529.94ZM529.94 548.935H537.694C541.073 548.935 544.503 548.136 544.503 543.022C544.503 537.907 540.475 537.322 537.84 537.322H529.94V548.935ZM560.256 517.291V554.582H553.894V517.291H560.256Z" fill="white"/>
<path d="M588.732 517.294H596.682L585.005 535.514L597.58 554.587H589.381L581.032 540.202L572.683 554.587H564.484L577.058 535.514L565.381 517.294H573.331L581.036 530.773L588.739 517.294H588.732Z" fill="white"/>
<path d="M626.07 554.582H619.709V517.291H647.837V554.582H641.475V522.938H626.07V554.582Z" fill="white"/>
<path d="M680.34 532.633V538.28H662.649V548.935H682.924V554.582H656.287V517.291H682.376V522.938H662.645V532.633H680.336H680.34Z" fill="white"/>
<path d="M720.791 548.935L720.492 563H714.927V554.582H689.632V563H684.067L683.768 548.935H686.752C689.037 545.792 692.764 539.08 692.764 525.335V517.291H716.023V548.935H720.795H720.791ZM699.124 522.938V527.412C699.124 535.67 698.28 541.903 694.302 548.935H709.658V522.938H699.124Z" fill="white"/>
<path d="M728.047 554.582H721.24L734.359 517.291H740.721L753.843 554.582H747.032L744.497 546.752H730.585L728.05 554.582H728.047ZM742.809 541.105L737.539 524.536L732.27 541.105H742.804H742.809Z" fill="white"/>
<path d="M764.231 554.582H757.865V517.291H780.629V522.938H764.231V554.582Z" fill="white"/>
<path d="M800.559 516.176C803.588 516.176 817.608 516.602 817.608 535.94C817.608 555.279 803.593 555.706 800.559 555.706C797.525 555.706 783.511 555.279 783.511 535.94C783.511 516.602 797.525 516.176 800.559 516.176ZM800.559 550.058C809.157 550.058 810.796 541.694 810.796 535.94C810.796 530.187 809.152 521.823 800.559 521.823C791.967 521.823 790.318 530.187 790.318 535.94C790.318 541.694 791.962 550.058 800.559 550.058Z" fill="white"/>
<path d="M830.428 554.582H824.062V517.291H846.825V522.938H830.428V554.582Z" fill="white"/>
<path d="M866.751 516.176C869.785 516.176 883.799 516.602 883.799 535.94C883.799 555.279 869.785 555.706 866.751 555.706C863.722 555.706 849.708 555.279 849.708 535.94C849.708 516.602 863.722 516.176 866.751 516.176ZM866.751 550.058C875.353 550.058 876.988 541.694 876.988 535.94C876.988 530.187 875.349 521.823 866.751 521.823C858.158 521.823 856.514 530.187 856.514 535.94C856.514 541.694 858.154 550.058 866.751 550.058Z" fill="white"/>
<path d="M906.661 517.294C915.508 517.294 917.245 522.622 917.245 526.724C917.245 530.826 914.857 534.076 911.481 534.715V534.822C914.363 535.354 918.689 537.486 918.689 544.144C918.689 553.574 911.182 554.587 905.966 554.587H890.259V517.294H906.661ZM896.62 532.424H905.017C908.545 532.424 910.683 531.253 910.683 528.002C910.683 523.048 906.211 522.941 904.87 522.941H896.62V532.424ZM896.62 548.939H905.315C909.196 548.939 912.127 547.927 912.127 543.398C912.127 538.39 908.1 538.071 905.467 538.071H896.62V548.939Z" fill="white"/>
<path d="M255.165 293.254V503.413H437.743V293.254H255.165ZM348.908 493.675C306.578 493.675 267.798 472.407 267.798 401.083C267.798 305.38 331.409 301.751 347.49 301.751C406.368 301.751 421.03 341.951 422.21 368.666H383.904C380.122 338.319 358.368 337.023 349.379 337.023C340.391 337.023 309.89 338.837 309.89 399.528C309.89 433.762 324.078 458.404 350.562 458.404C377.046 458.404 383.43 437.914 385.322 424.428H424.103C421.501 451.661 407.551 493.675 348.908 493.675Z" fill="white"/>
<path d="M544.093 369.909C547.778 336.403 563.254 317.856 568.166 312.47C575.535 304.392 594.45 288 629.822 288C658.805 288 681.898 299.009 695.651 315.762C708.67 331.618 718.986 359.139 718.986 397.433C718.986 441.71 705.721 468.035 693.439 482.393C673.541 505.727 648.241 509.016 629.084 509.016C608.203 509.016 584.869 505.129 566.199 482.989C553.18 467.731 543.848 444.098 542.865 416.876H521.251V503.033H474.336V293.625H521.251V369.909H544.093ZM605.012 345.377C593.467 359.139 591.746 384.568 591.746 398.028C591.746 411.489 593.467 436.918 605.012 450.681C612.873 459.955 622.452 461.749 630.313 461.749C638.174 461.749 647.507 460.851 655.613 450.977C666.422 438.113 668.879 415.377 668.879 398.028C668.879 384.568 667.158 359.139 655.613 345.377C647.507 335.804 637.682 334.308 630.313 334.308C622.943 334.308 613.118 335.804 605.012 345.377Z" fill="white"/>
<path d="M803.995 503.413H750.643V293.254H918.517V503.413H865.166V341.293H803.995V503.416V503.413Z" fill="white"/>
<line x1="1278.5" y1="27.5" x2="1278.5" y2="1052.5" stroke="white" stroke-width="35" stroke-linecap="round"/>
<path d="M1395.78 849L1424.04 703.2H1456.98L1485.06 849H1457.52L1452.3 816.96H1429.26L1423.68 849H1395.78ZM1431.96 798.78H1449.42L1440.6 739.92L1431.96 798.78Z" fill="white"/>
<path d="M1500.02 849V744.96H1535.12C1544.96 744.96 1552.34 746.1 1557.26 748.38C1562.3 750.54 1565.72 753.54 1567.52 757.38C1569.32 761.22 1570.22 765.66 1570.22 770.7C1570.22 777.18 1568.84 782.1 1566.08 785.46C1563.44 788.82 1559.66 791.22 1554.74 792.66C1559.66 793.74 1563.38 795.54 1565.9 798.06C1568.42 800.46 1570.16 803.46 1571.12 807.06C1572.2 810.54 1572.74 814.5 1572.74 818.94C1572.74 825.54 1571.54 831.12 1569.14 835.68C1566.86 840.12 1562.9 843.48 1557.26 845.76C1551.62 847.92 1543.88 849 1534.04 849H1500.02ZM1527.02 833.16H1532.24C1534.88 833.16 1537.22 832.92 1539.26 832.44C1541.42 831.84 1543.1 830.46 1544.3 828.3C1545.62 826.14 1546.28 822.72 1546.28 818.04C1546.28 812.76 1545.68 808.98 1544.48 806.7C1543.4 804.3 1541.84 802.86 1539.8 802.38C1537.76 801.9 1535.36 801.66 1532.6 801.66H1527.02V833.16ZM1527.02 786.18H1534.76C1538.24 786.18 1540.7 785.1 1542.14 782.94C1543.7 780.66 1544.48 777.42 1544.48 773.22C1544.48 769.14 1543.64 765.9 1541.96 763.5C1540.4 761.1 1537.28 759.9 1532.6 759.9H1527.02V786.18Z" fill="white"/>
<path d="M1601.77 849V763.68H1582.69V744.96H1647.85V763.68H1628.77V849H1601.77Z" fill="white"/>
<path d="M1693.18 850.8C1685.74 850.8 1679.38 849.48 1674.1 846.84C1668.82 844.08 1664.8 840.12 1662.04 834.96C1659.4 829.8 1658.08 823.38 1658.08 815.7V778.26C1658.08 770.58 1659.4 764.16 1662.04 759C1664.8 753.84 1668.82 749.94 1674.1 747.3C1679.38 744.54 1685.74 743.16 1693.18 743.16C1700.62 743.16 1706.98 744.54 1712.26 747.3C1717.54 749.94 1721.56 753.84 1724.32 759C1727.08 764.16 1728.46 770.58 1728.46 778.26V815.7C1728.46 823.38 1727.08 829.8 1724.32 834.96C1721.56 840.12 1717.54 844.08 1712.26 846.84C1706.98 849.48 1700.62 850.8 1693.18 850.8ZM1693.36 832.44C1695.64 832.44 1697.38 831.84 1698.58 830.64C1699.78 829.32 1700.56 827.58 1700.92 825.42C1701.28 823.14 1701.46 820.56 1701.46 817.68V776.46C1701.46 773.46 1701.28 770.88 1700.92 768.72C1700.56 766.56 1699.78 764.82 1698.58 763.5C1697.38 762.18 1695.64 761.52 1693.36 761.52C1691.08 761.52 1689.34 762.18 1688.14 763.5C1686.94 764.82 1686.1 766.56 1685.62 768.72C1685.26 770.88 1685.08 773.46 1685.08 776.46V817.68C1685.08 820.56 1685.26 823.14 1685.62 825.42C1686.1 827.58 1686.94 829.32 1688.14 830.64C1689.34 831.84 1691.08 832.44 1693.36 832.44Z" fill="white"/>
<path d="M1746.76 849L1746.94 744.96H1766.92L1788.52 797.88L1810.48 744.96H1830.46L1830.64 849H1809.58V792.66L1792.84 834.06H1784.74L1767.82 792.66V849H1746.76Z" fill="white"/>
<path d="M1869.22 850.8C1864.18 850.8 1859.92 849.54 1856.44 847.02C1852.96 844.5 1850.32 841.32 1848.52 837.48C1846.72 833.64 1845.82 829.68 1845.82 825.6C1845.82 819.12 1847.08 813.66 1849.6 809.22C1852.12 804.78 1855.42 801.06 1859.5 798.06C1863.58 795.06 1868.14 792.48 1873.18 790.32C1878.22 788.16 1883.26 786.18 1888.3 784.38V774.66C1888.3 772.38 1888.12 770.4 1887.76 768.72C1887.4 767.04 1886.68 765.78 1885.6 764.94C1884.64 763.98 1883.2 763.5 1881.28 763.5C1879.36 763.5 1877.86 763.92 1876.78 764.76C1875.82 765.48 1875.1 766.62 1874.62 768.18C1874.14 769.62 1873.9 771.24 1873.9 773.04L1873.18 780.24L1847.62 779.16C1848.22 766.92 1851.4 757.86 1857.16 751.98C1863.04 746.1 1871.86 743.16 1883.62 743.16C1894.18 743.16 1901.98 746.1 1907.02 751.98C1912.06 757.74 1914.58 765.36 1914.58 774.84V823.26C1914.58 827.34 1914.64 831 1914.76 834.24C1915 837.36 1915.24 840.18 1915.48 842.7C1915.84 845.1 1916.14 847.2 1916.38 849H1891.9C1891.54 846.36 1891.12 843.48 1890.64 840.36C1890.16 837.24 1889.8 835.14 1889.56 834.06C1888.36 838.38 1886.08 842.28 1882.72 845.76C1879.36 849.12 1874.86 850.8 1869.22 850.8ZM1879.12 831.54C1880.44 831.54 1881.64 831.24 1882.72 830.64C1883.92 830.04 1885 829.26 1885.96 828.3C1886.92 827.34 1887.7 826.44 1888.3 825.6V796.98C1885.78 798.54 1883.44 800.1 1881.28 801.66C1879.12 803.1 1877.26 804.72 1875.7 806.52C1874.14 808.32 1872.94 810.3 1872.1 812.46C1871.26 814.62 1870.84 817.08 1870.84 819.84C1870.84 823.44 1871.56 826.32 1873 828.48C1874.44 830.52 1876.48 831.54 1879.12 831.54Z" fill="white"/>
<path d="M1946.47 849V763.68H1927.39V744.96H1992.55V763.68H1973.47V849H1946.47Z" fill="white"/>
<path d="M2006.34 849V744.96H2027.94V803.64L2056.02 744.96H2077.26V849H2055.12V790.68L2027.76 849H2006.34Z" fill="white"/>
<path d="M2127.14 850.98C2120.42 850.98 2114.96 850.08 2110.76 848.28C2106.56 846.36 2103.32 843.78 2101.04 840.54C2098.76 837.18 2097.2 833.34 2096.36 829.02C2095.52 824.7 2095.1 820.02 2095.1 814.98H2116.7C2116.7 820.86 2117.6 825.18 2119.4 827.94C2121.32 830.7 2124.14 832.08 2127.86 832.08C2130.62 832.08 2132.72 831.48 2134.16 830.28C2135.6 828.96 2136.56 827.16 2137.04 824.88C2137.64 822.48 2137.94 819.84 2137.94 816.96C2137.94 813.24 2137.28 810.36 2135.96 808.32C2134.76 806.28 2132.72 804.84 2129.84 804C2126.96 803.04 2123.06 802.56 2118.14 802.56V787.8C2125.58 787.8 2130.44 786.78 2132.72 784.74C2135.12 782.7 2136.32 779.16 2136.32 774.12C2136.32 770.28 2135.54 767.34 2133.98 765.3C2132.42 763.14 2129.96 762.06 2126.6 762.06C2122.88 762.06 2120.18 763.14 2118.5 765.3C2116.94 767.46 2116.16 771.36 2116.16 777H2094.56C2094.56 770.4 2095.52 764.58 2097.44 759.54C2099.48 754.38 2102.9 750.36 2107.7 747.48C2112.62 744.6 2119.34 743.16 2127.86 743.16C2135.66 743.16 2141.96 744.48 2146.76 747.12C2151.68 749.76 2155.22 753.24 2157.38 757.56C2159.66 761.88 2160.8 766.74 2160.8 772.14C2160.8 776.94 2160.02 780.96 2158.46 784.2C2157.02 787.32 2155.1 789.72 2152.7 791.4C2150.3 793.08 2147.78 794.28 2145.14 795C2148.02 795.96 2150.66 797.28 2153.06 798.96C2155.46 800.64 2157.44 803.16 2159 806.52C2160.56 809.76 2161.34 814.38 2161.34 820.38C2161.34 829.38 2158.64 836.76 2153.24 842.52C2147.84 848.16 2139.14 850.98 2127.14 850.98Z" fill="white"/>
<path d="M2177.46 849V744.96H2199.06V803.64L2227.14 744.96H2248.38V849H2226.24V790.68L2198.88 849H2177.46Z" fill="white"/>
<path d="M2268.74 883.2V744.96H2295.92V752.7C2299.16 749.7 2302.64 747.36 2306.36 745.68C2310.2 744 2314.04 743.16 2317.88 743.16C2322.08 743.16 2325.62 744.12 2328.5 746.04C2331.38 747.84 2333.72 750.3 2335.52 753.42C2337.32 756.54 2338.58 760.02 2339.3 763.86C2340.02 767.7 2340.38 771.6 2340.38 775.56V816.24C2340.38 822.96 2339.54 828.9 2337.86 834.06C2336.18 839.22 2333.6 843.3 2330.12 846.3C2326.76 849.3 2322.38 850.8 2316.98 850.8C2313.26 850.8 2309.6 849.9 2306 848.1C2302.52 846.3 2299.16 843.96 2295.92 841.08V883.2H2268.74ZM2304.92 832.62C2307.2 832.62 2308.88 831.96 2309.96 830.64C2311.16 829.2 2312 827.34 2312.48 825.06C2312.96 822.78 2313.2 820.26 2313.2 817.5V773.94C2313.2 771.42 2312.96 769.14 2312.48 767.1C2312 765.06 2311.16 763.44 2309.96 762.24C2308.76 760.92 2307.14 760.26 2305.1 760.26C2303.42 760.26 2301.8 760.68 2300.24 761.52C2298.68 762.24 2297.24 763.2 2295.92 764.4V829.56C2297.36 830.52 2298.8 831.3 2300.24 831.9C2301.68 832.38 2303.24 832.62 2304.92 832.62Z" fill="white"/>
<path d="M2392.07 850.8C2384.63 850.8 2378.27 849.48 2372.99 846.84C2367.71 844.08 2363.69 840.12 2360.93 834.96C2358.29 829.8 2356.97 823.38 2356.97 815.7V778.26C2356.97 770.58 2358.29 764.16 2360.93 759C2363.69 753.84 2367.71 749.94 2372.99 747.3C2378.27 744.54 2384.63 743.16 2392.07 743.16C2399.51 743.16 2405.87 744.54 2411.15 747.3C2416.43 749.94 2420.45 753.84 2423.21 759C2425.97 764.16 2427.35 770.58 2427.35 778.26V815.7C2427.35 823.38 2425.97 829.8 2423.21 834.96C2420.45 840.12 2416.43 844.08 2411.15 846.84C2405.87 849.48 2399.51 850.8 2392.07 850.8ZM2392.25 832.44C2394.53 832.44 2396.27 831.84 2397.47 830.64C2398.67 829.32 2399.45 827.58 2399.81 825.42C2400.17 823.14 2400.35 820.56 2400.35 817.68V776.46C2400.35 773.46 2400.17 770.88 2399.81 768.72C2399.45 766.56 2398.67 764.82 2397.47 763.5C2396.27 762.18 2394.53 761.52 2392.25 761.52C2389.97 761.52 2388.23 762.18 2387.03 763.5C2385.83 764.82 2384.99 766.56 2384.51 768.72C2384.15 770.88 2383.97 773.46 2383.97 776.46V817.68C2383.97 820.56 2384.15 823.14 2384.51 825.42C2384.99 827.58 2385.83 829.32 2387.03 830.64C2388.23 831.84 2389.97 832.44 2392.25 832.44Z" fill="white"/>
<path d="M2445.66 849V744.96H2480.76C2490.6 744.96 2497.98 746.1 2502.9 748.38C2507.94 750.54 2511.36 753.54 2513.16 757.38C2514.96 761.22 2515.86 765.66 2515.86 770.7C2515.86 777.18 2514.48 782.1 2511.72 785.46C2509.08 788.82 2505.3 791.22 2500.38 792.66C2505.3 793.74 2509.02 795.54 2511.54 798.06C2514.06 800.46 2515.8 803.46 2516.76 807.06C2517.84 810.54 2518.38 814.5 2518.38 818.94C2518.38 825.54 2517.18 831.12 2514.78 835.68C2512.5 840.12 2508.54 843.48 2502.9 845.76C2497.26 847.92 2489.52 849 2479.68 849H2445.66ZM2472.66 833.16H2477.88C2480.52 833.16 2482.86 832.92 2484.9 832.44C2487.06 831.84 2488.74 830.46 2489.94 828.3C2491.26 826.14 2491.92 822.72 2491.92 818.04C2491.92 812.76 2491.32 808.98 2490.12 806.7C2489.04 804.3 2487.48 802.86 2485.44 802.38C2483.4 801.9 2481 801.66 2478.24 801.66H2472.66V833.16ZM2472.66 786.18H2480.4C2483.88 786.18 2486.34 785.1 2487.78 782.94C2489.34 780.66 2490.12 777.42 2490.12 773.22C2490.12 769.14 2489.28 765.9 2487.6 763.5C2486.04 761.1 2482.92 759.9 2478.24 759.9H2472.66V786.18Z" fill="white"/>
<path d="M2552.46 850.8C2547.42 850.8 2543.16 849.54 2539.68 847.02C2536.2 844.5 2533.56 841.32 2531.76 837.48C2529.96 833.64 2529.06 829.68 2529.06 825.6C2529.06 819.12 2530.32 813.66 2532.84 809.22C2535.36 804.78 2538.66 801.06 2542.74 798.06C2546.82 795.06 2551.38 792.48 2556.42 790.32C2561.46 788.16 2566.5 786.18 2571.54 784.38V774.66C2571.54 772.38 2571.36 770.4 2571 768.72C2570.64 767.04 2569.92 765.78 2568.84 764.94C2567.88 763.98 2566.44 763.5 2564.52 763.5C2562.6 763.5 2561.1 763.92 2560.02 764.76C2559.06 765.48 2558.34 766.62 2557.86 768.18C2557.38 769.62 2557.14 771.24 2557.14 773.04L2556.42 780.24L2530.86 779.16C2531.46 766.92 2534.64 757.86 2540.4 751.98C2546.28 746.1 2555.1 743.16 2566.86 743.16C2577.42 743.16 2585.22 746.1 2590.26 751.98C2595.3 757.74 2597.82 765.36 2597.82 774.84V823.26C2597.82 827.34 2597.88 831 2598 834.24C2598.24 837.36 2598.48 840.18 2598.72 842.7C2599.08 845.1 2599.38 847.2 2599.62 849H2575.14C2574.78 846.36 2574.36 843.48 2573.88 840.36C2573.4 837.24 2573.04 835.14 2572.8 834.06C2571.6 838.38 2569.32 842.28 2565.96 845.76C2562.6 849.12 2558.1 850.8 2552.46 850.8ZM2562.36 831.54C2563.68 831.54 2564.88 831.24 2565.96 830.64C2567.16 830.04 2568.24 829.26 2569.2 828.3C2570.16 827.34 2570.94 826.44 2571.54 825.6V796.98C2569.02 798.54 2566.68 800.1 2564.52 801.66C2562.36 803.1 2560.5 804.72 2558.94 806.52C2557.38 808.32 2556.18 810.3 2555.34 812.46C2554.5 814.62 2554.08 817.08 2554.08 819.84C2554.08 823.44 2554.8 826.32 2556.24 828.48C2557.68 830.52 2559.72 831.54 2562.36 831.54Z" fill="white"/>
<path d="M2617.3 849V744.96H2644.48V786H2663.38V744.96H2690.56V849H2663.38V804.9H2644.48V849H2617.3Z" fill="white"/>
<path d="M2711.04 849V744.96H2738.22V786H2757.12V744.96H2784.3V849H2757.12V804.9H2738.22V849H2711.04Z" fill="white"/>
<path d="M2822.59 850.8C2817.55 850.8 2813.29 849.54 2809.81 847.02C2806.33 844.5 2803.69 841.32 2801.89 837.48C2800.09 833.64 2799.19 829.68 2799.19 825.6C2799.19 819.12 2800.45 813.66 2802.97 809.22C2805.49 804.78 2808.79 801.06 2812.87 798.06C2816.95 795.06 2821.51 792.48 2826.55 790.32C2831.59 788.16 2836.63 786.18 2841.67 784.38V774.66C2841.67 772.38 2841.49 770.4 2841.13 768.72C2840.77 767.04 2840.05 765.78 2838.97 764.94C2838.01 763.98 2836.57 763.5 2834.65 763.5C2832.73 763.5 2831.23 763.92 2830.15 764.76C2829.19 765.48 2828.47 766.62 2827.99 768.18C2827.51 769.62 2827.27 771.24 2827.27 773.04L2826.55 780.24L2800.99 779.16C2801.59 766.92 2804.77 757.86 2810.53 751.98C2816.41 746.1 2825.23 743.16 2836.99 743.16C2847.55 743.16 2855.35 746.1 2860.39 751.98C2865.43 757.74 2867.95 765.36 2867.95 774.84V823.26C2867.95 827.34 2868.01 831 2868.13 834.24C2868.37 837.36 2868.61 840.18 2868.85 842.7C2869.21 845.1 2869.51 847.2 2869.75 849H2845.27C2844.91 846.36 2844.49 843.48 2844.01 840.36C2843.53 837.24 2843.17 835.14 2842.93 834.06C2841.73 838.38 2839.45 842.28 2836.09 845.76C2832.73 849.12 2828.23 850.8 2822.59 850.8ZM2832.49 831.54C2833.81 831.54 2835.01 831.24 2836.09 830.64C2837.29 830.04 2838.37 829.26 2839.33 828.3C2840.29 827.34 2841.07 826.44 2841.67 825.6V796.98C2839.15 798.54 2836.81 800.1 2834.65 801.66C2832.49 803.1 2830.63 804.72 2829.07 806.52C2827.51 808.32 2826.31 810.3 2825.47 812.46C2824.63 814.62 2824.21 817.08 2824.21 819.84C2824.21 823.44 2824.93 826.32 2826.37 828.48C2827.81 830.52 2829.85 831.54 2832.49 831.54Z" fill="white"/>
<path d="M2880.95 849L2897.87 805.62C2894.87 804.06 2892.41 801.96 2890.49 799.32C2888.57 796.56 2887.13 793.32 2886.17 789.6C2885.21 785.76 2884.73 781.68 2884.73 777.36C2884.73 772.32 2885.39 767.82 2886.71 763.86C2888.15 759.9 2890.37 756.54 2893.37 753.78C2896.49 751.02 2900.51 748.86 2905.43 747.3C2910.47 745.74 2916.53 744.96 2923.61 744.96H2958.35V849H2931.35V811.02C2930.63 811.02 2929.25 811.02 2927.21 811.02C2925.29 810.9 2923.73 810.78 2922.53 810.66L2909.57 849H2880.95ZM2929.91 795.18C2930.15 795.18 2930.39 795.18 2930.63 795.18C2930.99 795.18 2931.23 795.18 2931.35 795.18V760.26C2931.23 760.26 2930.99 760.26 2930.63 760.26C2930.39 760.26 2930.15 760.26 2929.91 760.26C2925.23 760.26 2921.33 760.92 2918.21 762.24C2915.21 763.44 2912.99 765.3 2911.55 767.82C2910.11 770.22 2909.39 773.34 2909.39 777.18C2909.39 783.18 2911.07 787.68 2914.43 790.68C2917.91 793.56 2923.07 795.06 2929.91 795.18Z" fill="white"/>
<path d="M3058.26 850.8C3050.58 850.8 3044.16 849.36 3039 846.48C3033.84 843.48 3029.94 839.28 3027.3 833.88C3024.78 828.48 3023.52 822.06 3023.52 814.62V779.52C3023.52 771.72 3024.78 765.18 3027.3 759.9C3029.94 754.5 3033.84 750.36 3039 747.48C3044.16 744.6 3050.58 743.16 3058.26 743.16C3065.7 743.16 3071.94 744.36 3076.98 746.76C3082.02 749.04 3085.74 752.52 3088.14 757.2C3090.66 761.88 3091.92 767.76 3091.92 774.84V784.74H3066V774.12C3066 771 3065.7 768.6 3065.1 766.92C3064.62 765.12 3063.78 763.86 3062.58 763.14C3061.5 762.42 3060.06 762.06 3058.26 762.06C3056.46 762.06 3055.02 762.54 3053.94 763.5C3052.86 764.34 3052.08 765.84 3051.6 768C3051.12 770.04 3050.88 772.92 3050.88 776.64V817.5C3050.88 823.14 3051.48 826.98 3052.68 829.02C3054 830.94 3055.92 831.9 3058.44 831.9C3060.36 831.9 3061.86 831.48 3062.94 830.64C3064.02 829.8 3064.8 828.48 3065.28 826.68C3065.76 824.88 3066 822.6 3066 819.84V807.24H3091.92V818.58C3091.92 825.54 3090.66 831.48 3088.14 836.4C3085.62 841.2 3081.84 844.8 3076.8 847.2C3071.76 849.6 3065.58 850.8 3058.26 850.8Z" fill="white"/>
<path d="M3109.57 849V744.96H3131.17V803.64L3159.25 744.96H3180.49V849H3158.35V790.68L3130.99 849H3109.57Z" fill="white"/>
<path d="M3233.42 850.8C3225.74 850.8 3219.32 849.36 3214.16 846.48C3209 843.48 3205.1 839.28 3202.46 833.88C3199.94 828.48 3198.68 822.06 3198.68 814.62V779.52C3198.68 771.72 3199.94 765.18 3202.46 759.9C3205.1 754.5 3209 750.36 3214.16 747.48C3219.32 744.6 3225.74 743.16 3233.42 743.16C3240.86 743.16 3247.1 744.36 3252.14 746.76C3257.18 749.04 3260.9 752.52 3263.3 757.2C3265.82 761.88 3267.08 767.76 3267.08 774.84V784.74H3241.16V774.12C3241.16 771 3240.86 768.6 3240.26 766.92C3239.78 765.12 3238.94 763.86 3237.74 763.14C3236.66 762.42 3235.22 762.06 3233.42 762.06C3231.62 762.06 3230.18 762.54 3229.1 763.5C3228.02 764.34 3227.24 765.84 3226.76 768C3226.28 770.04 3226.04 772.92 3226.04 776.64V817.5C3226.04 823.14 3226.64 826.98 3227.84 829.02C3229.16 830.94 3231.08 831.9 3233.6 831.9C3235.52 831.9 3237.02 831.48 3238.1 830.64C3239.18 829.8 3239.96 828.48 3240.44 826.68C3240.92 824.88 3241.16 822.6 3241.16 819.84V807.24H3267.08V818.58C3267.08 825.54 3265.82 831.48 3263.3 836.4C3260.78 841.2 3257 844.8 3251.96 847.2C3246.92 849.6 3240.74 850.8 3233.42 850.8Z" fill="white"/>
<path d="M3297.15 849V763.68H3278.07V744.96H3343.23V763.68H3324.15V849H3297.15Z" fill="white"/>
<path d="M3389.78 850.8C3382.1 850.8 3375.68 849.42 3370.52 846.66C3365.36 843.78 3361.46 839.64 3358.82 834.24C3356.18 828.72 3354.86 822.12 3354.86 814.44V779.52C3354.86 771.6 3356.18 765 3358.82 759.72C3361.46 754.32 3365.42 750.24 3370.7 747.48C3375.98 744.6 3382.34 743.16 3389.78 743.16C3397.7 743.16 3404.12 744.6 3409.04 747.48C3413.96 750.36 3417.56 754.56 3419.84 760.08C3422.24 765.6 3423.44 772.32 3423.44 780.24V798.42H3381.68V818.58C3381.68 821.58 3381.98 824.04 3382.58 825.96C3383.3 827.88 3384.26 829.26 3385.46 830.1C3386.66 830.82 3388.16 831.18 3389.96 831.18C3391.64 831.18 3393.08 830.82 3394.28 830.1C3395.6 829.26 3396.56 828 3397.16 826.32C3397.76 824.64 3398.06 822.42 3398.06 819.66V809.76H3423.26V818.4C3423.26 828.96 3420.38 837 3414.62 842.52C3408.86 848.04 3400.58 850.8 3389.78 850.8ZM3381.68 785.46H3398.06V775.2C3398.06 772.2 3397.76 769.8 3397.16 768C3396.56 766.08 3395.6 764.76 3394.28 764.04C3393.08 763.2 3391.52 762.78 3389.6 762.78C3387.8 762.78 3386.3 763.2 3385.1 764.04C3384.02 764.88 3383.18 766.38 3382.58 768.54C3381.98 770.58 3381.68 773.52 3381.68 777.36V785.46Z" fill="white"/>
<path d="M3441.61 849L3441.79 744.96H3461.77L3483.37 797.88L3505.33 744.96H3525.31L3525.49 849H3504.43V792.66L3487.69 834.06H3479.59L3462.67 792.66V849H3441.61Z" fill="white"/>
<path d="M3564.06 850.8C3559.02 850.8 3554.76 849.54 3551.28 847.02C3547.8 844.5 3545.16 841.32 3543.36 837.48C3541.56 833.64 3540.66 829.68 3540.66 825.6C3540.66 819.12 3541.92 813.66 3544.44 809.22C3546.96 804.78 3550.26 801.06 3554.34 798.06C3558.42 795.06 3562.98 792.48 3568.02 790.32C3573.06 788.16 3578.1 786.18 3583.14 784.38V774.66C3583.14 772.38 3582.96 770.4 3582.6 768.72C3582.24 767.04 3581.52 765.78 3580.44 764.94C3579.48 763.98 3578.04 763.5 3576.12 763.5C3574.2 763.5 3572.7 763.92 3571.62 764.76C3570.66 765.48 3569.94 766.62 3569.46 768.18C3568.98 769.62 3568.74 771.24 3568.74 773.04L3568.02 780.24L3542.46 779.16C3543.06 766.92 3546.24 757.86 3552 751.98C3557.88 746.1 3566.7 743.16 3578.46 743.16C3589.02 743.16 3596.82 746.1 3601.86 751.98C3606.9 757.74 3609.42 765.36 3609.42 774.84V823.26C3609.42 827.34 3609.48 831 3609.6 834.24C3609.84 837.36 3610.08 840.18 3610.32 842.7C3610.68 845.1 3610.98 847.2 3611.22 849H3586.74C3586.38 846.36 3585.96 843.48 3585.48 840.36C3585 837.24 3584.64 835.14 3584.4 834.06C3583.2 838.38 3580.92 842.28 3577.56 845.76C3574.2 849.12 3569.7 850.8 3564.06 850.8ZM3573.96 831.54C3575.28 831.54 3576.48 831.24 3577.56 830.64C3578.76 830.04 3579.84 829.26 3580.8 828.3C3581.76 827.34 3582.54 826.44 3583.14 825.6V796.98C3580.62 798.54 3578.28 800.1 3576.12 801.66C3573.96 803.1 3572.1 804.72 3570.54 806.52C3568.98 808.32 3567.78 810.3 3566.94 812.46C3566.1 814.62 3565.68 817.08 3565.68 819.84C3565.68 823.44 3566.4 826.32 3567.84 828.48C3569.28 830.52 3571.32 831.54 3573.96 831.54Z" fill="white"/>
<path d="M3677.5 878.34V859.26C3681.46 859.26 3684.7 859.02 3687.22 858.54C3689.74 858.06 3691.6 857.16 3692.8 855.84C3694.12 854.64 3694.78 852.9 3694.78 850.62C3694.78 848.82 3694.36 846.36 3693.52 843.24C3692.8 840.12 3691.96 836.64 3691 832.8L3667.24 744.96H3692.98L3706.3 808.86L3717.1 744.96H3743.02L3718.9 852.24C3717.46 858.96 3715.06 864.18 3711.7 867.9C3708.46 871.74 3704.44 874.44 3699.64 876C3694.96 877.56 3689.5 878.34 3683.26 878.34H3677.5Z" fill="white"/>
<path d="M3796.94 849V807.24C3795.14 807.36 3793.34 807.48 3791.54 807.6C3789.86 807.72 3788.18 807.78 3786.5 807.78C3778.34 807.78 3771.8 806.82 3766.88 804.9C3762.08 802.98 3758.66 800.1 3756.62 796.26C3754.58 792.3 3753.56 787.5 3753.56 781.86V744.96H3780.56V780.42C3780.56 784.14 3781.28 786.96 3782.72 788.88C3784.28 790.68 3787.4 791.7 3792.08 791.94C3792.8 791.94 3793.52 791.88 3794.24 791.76C3795.08 791.64 3795.98 791.58 3796.94 791.58V744.96H3824.12V849H3796.94Z" fill="white"/>
<path d="M3877.47 850.8C3869.79 850.8 3863.37 849.42 3858.21 846.66C3853.05 843.78 3849.15 839.64 3846.51 834.24C3843.87 828.72 3842.55 822.12 3842.55 814.44V779.52C3842.55 771.6 3843.87 765 3846.51 759.72C3849.15 754.32 3853.11 750.24 3858.39 747.48C3863.67 744.6 3870.03 743.16 3877.47 743.16C3885.39 743.16 3891.81 744.6 3896.73 747.48C3901.65 750.36 3905.25 754.56 3907.53 760.08C3909.93 765.6 3911.13 772.32 3911.13 780.24V798.42H3869.37V818.58C3869.37 821.58 3869.67 824.04 3870.27 825.96C3870.99 827.88 3871.95 829.26 3873.15 830.1C3874.35 830.82 3875.85 831.18 3877.65 831.18C3879.33 831.18 3880.77 830.82 3881.97 830.1C3883.29 829.26 3884.25 828 3884.85 826.32C3885.45 824.64 3885.75 822.42 3885.75 819.66V809.76H3910.95V818.4C3910.95 828.96 3908.07 837 3902.31 842.52C3896.55 848.04 3888.27 850.8 3877.47 850.8ZM3869.37 785.46H3885.75V775.2C3885.75 772.2 3885.45 769.8 3884.85 768C3884.25 766.08 3883.29 764.76 3881.97 764.04C3880.77 763.2 3879.21 762.78 3877.29 762.78C3875.49 762.78 3873.99 763.2 3872.79 764.04C3871.71 764.88 3870.87 766.38 3870.27 768.54C3869.67 770.58 3869.37 773.52 3869.37 777.36V785.46ZM3884.49 728.4V703.2H3907.17V728.4H3884.49ZM3847.05 728.4V703.2H3869.73V728.4H3847.05Z" fill="white"/>
<path d="M3941.73 849V763.68H3922.65V744.96H3987.81V763.68H3968.73V849H3941.73Z" fill="white"/>
<path d="M4019.41 850.8C4014.37 850.8 4010.11 849.54 4006.63 847.02C4003.15 844.5 4000.51 841.32 3998.71 837.48C3996.91 833.64 3996.01 829.68 3996.01 825.6C3996.01 819.12 3997.27 813.66 3999.79 809.22C4002.31 804.78 4005.61 801.06 4009.69 798.06C4013.77 795.06 4018.33 792.48 4023.37 790.32C4028.41 788.16 4033.45 786.18 4038.49 784.38V774.66C4038.49 772.38 4038.31 770.4 4037.95 768.72C4037.59 767.04 4036.87 765.78 4035.79 764.94C4034.83 763.98 4033.39 763.5 4031.47 763.5C4029.55 763.5 4028.05 763.92 4026.97 764.76C4026.01 765.48 4025.29 766.62 4024.81 768.18C4024.33 769.62 4024.09 771.24 4024.09 773.04L4023.37 780.24L3997.81 779.16C3998.41 766.92 4001.59 757.86 4007.35 751.98C4013.23 746.1 4022.05 743.16 4033.81 743.16C4044.37 743.16 4052.17 746.1 4057.21 751.98C4062.25 757.74 4064.77 765.36 4064.77 774.84V823.26C4064.77 827.34 4064.83 831 4064.95 834.24C4065.19 837.36 4065.43 840.18 4065.67 842.7C4066.03 845.1 4066.33 847.2 4066.57 849H4042.09C4041.73 846.36 4041.31 843.48 4040.83 840.36C4040.35 837.24 4039.99 835.14 4039.75 834.06C4038.55 838.38 4036.27 842.28 4032.91 845.76C4029.55 849.12 4025.05 850.8 4019.41 850.8ZM4029.31 831.54C4030.63 831.54 4031.83 831.24 4032.91 830.64C4034.11 830.04 4035.19 829.26 4036.15 828.3C4037.11 827.34 4037.89 826.44 4038.49 825.6V796.98C4035.97 798.54 4033.63 800.1 4031.47 801.66C4029.31 803.1 4027.45 804.72 4025.89 806.52C4024.33 808.32 4023.13 810.3 4022.29 812.46C4021.45 814.62 4021.03 817.08 4021.03 819.84C4021.03 823.44 4021.75 826.32 4023.19 828.48C4024.63 830.52 4026.67 831.54 4029.31 831.54Z" fill="white"/>
<path d="M1443.66 1016.98C1432.98 1016.98 1424.52 1015.06 1418.28 1011.22C1412.04 1007.38 1407.54 1001.92 1404.78 994.84C1402.14 987.64 1400.82 979.06 1400.82 969.1V914.74C1400.82 904.78 1402.14 896.26 1404.78 889.18C1407.54 882.1 1412.04 876.7 1418.28 872.98C1424.52 869.26 1432.98 867.4 1443.66 867.4C1454.46 867.4 1462.98 869.32 1469.22 873.16C1475.58 876.88 1480.08 882.28 1482.72 889.36C1485.48 896.32 1486.86 904.78 1486.86 914.74V969.1C1486.86 979.06 1485.48 987.64 1482.72 994.84C1480.08 1001.92 1475.58 1007.38 1469.22 1011.22C1462.98 1015.06 1454.46 1016.98 1443.66 1016.98ZM1443.66 995.56C1447.5 995.56 1450.32 994.72 1452.12 993.04C1453.92 991.24 1455.12 988.9 1455.72 986.02C1456.32 983.02 1456.62 979.84 1456.62 976.48V907.54C1456.62 904.18 1456.32 901.06 1455.72 898.18C1455.12 895.3 1453.92 893.02 1452.12 891.34C1450.32 889.54 1447.5 888.64 1443.66 888.64C1440.06 888.64 1437.36 889.54 1435.56 891.34C1433.76 893.02 1432.56 895.3 1431.96 898.18C1431.36 901.06 1431.06 904.18 1431.06 907.54V976.48C1431.06 979.84 1431.3 983.02 1431.78 986.02C1432.38 988.9 1433.58 991.24 1435.38 993.04C1437.18 994.72 1439.94 995.56 1443.66 995.56Z" fill="white"/>
<path d="M1549.17 1016.98C1538.49 1016.98 1530.03 1015.06 1523.79 1011.22C1517.55 1007.38 1513.05 1001.92 1510.29 994.84C1507.65 987.64 1506.33 979.06 1506.33 969.1V914.74C1506.33 904.78 1507.65 896.26 1510.29 889.18C1513.05 882.1 1517.55 876.7 1523.79 872.98C1530.03 869.26 1538.49 867.4 1549.17 867.4C1559.97 867.4 1568.49 869.32 1574.73 873.16C1581.09 876.88 1585.59 882.28 1588.23 889.36C1590.99 896.32 1592.37 904.78 1592.37 914.74V969.1C1592.37 979.06 1590.99 987.64 1588.23 994.84C1585.59 1001.92 1581.09 1007.38 1574.73 1011.22C1568.49 1015.06 1559.97 1016.98 1549.17 1016.98ZM1549.17 995.56C1553.01 995.56 1555.83 994.72 1557.63 993.04C1559.43 991.24 1560.63 988.9 1561.23 986.02C1561.83 983.02 1562.13 979.84 1562.13 976.48V907.54C1562.13 904.18 1561.83 901.06 1561.23 898.18C1560.63 895.3 1559.43 893.02 1557.63 891.34C1555.83 889.54 1553.01 888.64 1549.17 888.64C1545.57 888.64 1542.87 889.54 1541.07 891.34C1539.27 893.02 1538.07 895.3 1537.47 898.18C1536.87 901.06 1536.57 904.18 1536.57 907.54V976.48C1536.57 979.84 1536.81 983.02 1537.29 986.02C1537.89 988.9 1539.09 991.24 1540.89 993.04C1542.69 994.72 1545.45 995.56 1549.17 995.56Z" fill="white"/>
<path d="M1728.48 1008.16L1694.28 966.22V956.32L1728.48 914.56V941.74L1710.84 961.36L1728.48 980.98V1008.16ZM1690.32 1008.16L1656.3 966.22V956.32L1690.32 914.56V941.74L1672.86 961.36L1690.32 980.98V1008.16Z" fill="white"/>
<path d="M1789.76 1016.98C1778.96 1016.98 1770.38 1014.94 1764.02 1010.86C1757.78 1006.78 1753.4 1001.14 1750.88 993.94C1748.36 986.62 1747.1 978.16 1747.1 968.56V916.18C1747.1 906.1 1748.36 897.46 1750.88 890.26C1753.4 882.94 1757.78 877.3 1764.02 873.34C1770.38 869.38 1778.96 867.4 1789.76 867.4C1800.2 867.4 1808.36 869.14 1814.24 872.62C1820.24 876.1 1824.44 881.02 1826.84 887.38C1829.36 893.74 1830.62 901.12 1830.62 909.52V921.76H1801.82V908.08C1801.82 904.72 1801.64 901.6 1801.28 898.72C1800.92 895.72 1799.9 893.32 1798.22 891.52C1796.66 889.6 1793.9 888.64 1789.94 888.64C1785.98 888.64 1783.1 889.6 1781.3 891.52C1779.5 893.44 1778.36 895.96 1777.88 899.08C1777.4 902.08 1777.16 905.44 1777.16 909.16V975.4C1777.16 979.48 1777.46 983.08 1778.06 986.2C1778.78 989.2 1780.04 991.54 1781.84 993.22C1783.76 994.78 1786.46 995.56 1789.94 995.56C1793.78 995.56 1796.48 994.66 1798.04 992.86C1799.72 990.94 1800.74 988.42 1801.1 985.3C1801.58 982.18 1801.82 978.88 1801.82 975.4V961.18H1830.62V973.24C1830.62 981.76 1829.42 989.32 1827.02 995.92C1824.62 1002.4 1820.48 1007.56 1814.6 1011.4C1808.72 1015.12 1800.44 1016.98 1789.76 1016.98Z" fill="white"/>
<path d="M1881.87 1016.8C1874.43 1016.8 1868.07 1015.48 1862.79 1012.84C1857.51 1010.08 1853.49 1006.12 1850.73 1000.96C1848.09 995.8 1846.77 989.38 1846.77 981.7V944.26C1846.77 936.58 1848.09 930.16 1850.73 925C1853.49 919.84 1857.51 915.94 1862.79 913.3C1868.07 910.54 1874.43 909.16 1881.87 909.16C1889.31 909.16 1895.67 910.54 1900.95 913.3C1906.23 915.94 1910.25 919.84 1913.01 925C1915.77 930.16 1917.15 936.58 1917.15 944.26V981.7C1917.15 989.38 1915.77 995.8 1913.01 1000.96C1910.25 1006.12 1906.23 1010.08 1900.95 1012.84C1895.67 1015.48 1889.31 1016.8 1881.87 1016.8ZM1882.05 998.44C1884.33 998.44 1886.07 997.84 1887.27 996.64C1888.47 995.32 1889.25 993.58 1889.61 991.42C1889.97 989.14 1890.15 986.56 1890.15 983.68V942.46C1890.15 939.46 1889.97 936.88 1889.61 934.72C1889.25 932.56 1888.47 930.82 1887.27 929.5C1886.07 928.18 1884.33 927.52 1882.05 927.52C1879.77 927.52 1878.03 928.18 1876.83 929.5C1875.63 930.82 1874.79 932.56 1874.31 934.72C1873.95 936.88 1873.77 939.46 1873.77 942.46V983.68C1873.77 986.56 1873.95 989.14 1874.31 991.42C1874.79 993.58 1875.63 995.32 1876.83 996.64C1878.03 997.84 1879.77 998.44 1882.05 998.44Z" fill="white"/>
<path d="M2007.1 1016.8C2000.14 1016.8 1994.2 1015.48 1989.28 1012.84C1984.48 1010.08 1980.82 1006.12 1978.3 1000.96C1975.78 995.8 1974.52 989.38 1974.52 981.7V972.34H1961.74V1015H1935.46V910.96H1961.74V953.44H1974.52V944.26C1974.52 936.58 1975.78 930.16 1978.3 925C1980.82 919.84 1984.48 915.94 1989.28 913.3C1994.2 910.54 2000.14 909.16 2007.1 909.16C2014.06 909.16 2020 910.54 2024.92 913.3C2029.84 915.94 2033.56 919.84 2036.08 925C2038.72 930.16 2040.04 936.58 2040.04 944.26V981.7C2040.04 989.38 2038.72 995.8 2036.08 1000.96C2033.56 1006.12 2029.84 1010.08 2024.92 1012.84C2020 1015.48 2014.06 1016.8 2007.1 1016.8ZM2007.1 997.18C2009.38 997.18 2011 996.58 2011.96 995.38C2013.04 994.18 2013.76 992.5 2014.12 990.34C2014.6 988.06 2014.84 985.48 2014.84 982.6V943.36C2014.84 940.48 2014.6 937.96 2014.12 935.8C2013.76 933.52 2013.04 931.78 2011.96 930.58C2011 929.38 2009.38 928.78 2007.1 928.78C2005.06 928.78 2003.5 929.44 2002.42 930.76C2001.34 931.96 2000.62 933.64 2000.26 935.8C1999.9 937.96 1999.72 940.48 1999.72 943.36V982.6C1999.72 985.36 1999.9 987.88 2000.26 990.16C2000.62 992.32 2001.34 994.06 2002.42 995.38C2003.5 996.58 2005.06 997.18 2007.1 997.18Z" fill="white"/>
<path d="M2088.07 1016.98C2081.35 1016.98 2075.89 1016.08 2071.69 1014.28C2067.49 1012.36 2064.25 1009.78 2061.97 1006.54C2059.69 1003.18 2058.13 999.34 2057.29 995.02C2056.45 990.7 2056.03 986.02 2056.03 980.98H2077.63C2077.63 986.86 2078.53 991.18 2080.33 993.94C2082.25 996.7 2085.07 998.08 2088.79 998.08C2091.55 998.08 2093.65 997.48 2095.09 996.28C2096.53 994.96 2097.49 993.16 2097.97 990.88C2098.57 988.48 2098.87 985.84 2098.87 982.96C2098.87 979.24 2098.21 976.36 2096.89 974.32C2095.69 972.28 2093.65 970.84 2090.77 970C2087.89 969.04 2083.99 968.56 2079.07 968.56V953.8C2086.51 953.8 2091.37 952.78 2093.65 950.74C2096.05 948.7 2097.25 945.16 2097.25 940.12C2097.25 936.28 2096.47 933.34 2094.91 931.3C2093.35 929.14 2090.89 928.06 2087.53 928.06C2083.81 928.06 2081.11 929.14 2079.43 931.3C2077.87 933.46 2077.09 937.36 2077.09 943H2055.49C2055.49 936.4 2056.45 930.58 2058.37 925.54C2060.41 920.38 2063.83 916.36 2068.63 913.48C2073.55 910.6 2080.27 909.16 2088.79 909.16C2096.59 909.16 2102.89 910.48 2107.69 913.12C2112.61 915.76 2116.15 919.24 2118.31 923.56C2120.59 927.88 2121.73 932.74 2121.73 938.14C2121.73 942.94 2120.95 946.96 2119.39 950.2C2117.95 953.32 2116.03 955.72 2113.63 957.4C2111.23 959.08 2108.71 960.28 2106.07 961C2108.95 961.96 2111.59 963.28 2113.99 964.96C2116.39 966.64 2118.37 969.16 2119.93 972.52C2121.49 975.76 2122.27 980.38 2122.27 986.38C2122.27 995.38 2119.57 1002.76 2114.17 1008.52C2108.77 1014.16 2100.07 1016.98 2088.07 1016.98Z" fill="white"/>
<path d="M2256.84 1016.8C2249.88 1016.8 2243.94 1015.48 2239.02 1012.84C2234.22 1010.08 2230.56 1006.12 2228.04 1000.96C2225.52 995.8 2224.26 989.38 2224.26 981.7V972.34H2211.48V1015H2185.2V910.96H2211.48V953.44H2224.26V944.26C2224.26 936.58 2225.52 930.16 2228.04 925C2230.56 919.84 2234.22 915.94 2239.02 913.3C2243.94 910.54 2249.88 909.16 2256.84 909.16C2263.8 909.16 2269.74 910.54 2274.66 913.3C2279.58 915.94 2283.3 919.84 2285.82 925C2288.46 930.16 2289.78 936.58 2289.78 944.26V981.7C2289.78 989.38 2288.46 995.8 2285.82 1000.96C2283.3 1006.12 2279.58 1010.08 2274.66 1012.84C2269.74 1015.48 2263.8 1016.8 2256.84 1016.8ZM2256.84 997.18C2259.12 997.18 2260.74 996.58 2261.7 995.38C2262.78 994.18 2263.5 992.5 2263.86 990.34C2264.34 988.06 2264.58 985.48 2264.58 982.6V943.36C2264.58 940.48 2264.34 937.96 2263.86 935.8C2263.5 933.52 2262.78 931.78 2261.7 930.58C2260.74 929.38 2259.12 928.78 2256.84 928.78C2254.8 928.78 2253.24 929.44 2252.16 930.76C2251.08 931.96 2250.36 933.64 2250 935.8C2249.64 937.96 2249.46 940.48 2249.46 943.36V982.6C2249.46 985.36 2249.64 987.88 2250 990.16C2250.36 992.32 2251.08 994.06 2252.16 995.38C2253.24 996.58 2254.8 997.18 2256.84 997.18Z" fill="white"/>
<path d="M2308.29 1015V910.96H2335.47V952H2354.37V910.96H2381.55V1015H2354.37V970.9H2335.47V1015H2308.29Z" fill="white"/>
<path d="M2402.02 1015V910.96H2429.2V952.9C2429.32 952.9 2429.44 952.9 2429.56 952.9C2429.68 952.9 2429.8 952.9 2429.92 952.9C2430.16 952.9 2430.34 952.9 2430.46 952.9C2437.66 953.02 2443.96 953.56 2449.36 954.52C2454.76 955.48 2459.2 957.16 2462.68 959.56C2466.28 961.84 2468.98 964.96 2470.78 968.92C2472.7 972.88 2473.66 977.86 2473.66 983.86C2473.66 989.5 2472.82 994.3 2471.14 998.26C2469.58 1002.22 2467.06 1005.46 2463.58 1007.98C2460.1 1010.38 2455.6 1012.18 2450.08 1013.38C2444.56 1014.46 2437.96 1015 2430.28 1015H2402.02ZM2429.2 999.34H2429.74C2434.54 999.34 2438.32 998.92 2441.08 998.08C2443.96 997.12 2446 995.5 2447.2 993.22C2448.4 990.94 2449 987.88 2449 984.04C2449 980.2 2448.4 977.2 2447.2 975.04C2446 972.88 2444.02 971.32 2441.26 970.36C2438.62 969.4 2434.96 968.92 2430.28 968.92C2430.16 968.92 2429.98 968.92 2429.74 968.92C2429.5 968.92 2429.32 968.92 2429.2 968.92V999.34ZM2484.82 1015V910.96H2512V1015H2484.82Z" fill="white"/>
<path d="M2525.11 1015L2547.43 958.48L2526.01 910.96H2553.19L2565.25 937.6L2575.87 910.96H2597.65L2576.41 962.26L2599.99 1015H2572.63L2559.31 984.94L2547.97 1015H2525.11Z" fill="white"/>
<path d="M2658.61 1015V910.96H2729.53V1015H2702.35V929.86H2685.79V1015H2658.61Z" fill="white"/>
<path d="M2782.64 1016.8C2774.96 1016.8 2768.54 1015.42 2763.38 1012.66C2758.22 1009.78 2754.32 1005.64 2751.68 1000.24C2749.04 994.72 2747.72 988.12 2747.72 980.44V945.52C2747.72 937.6 2749.04 931 2751.68 925.72C2754.32 920.32 2758.28 916.24 2763.56 913.48C2768.84 910.6 2775.2 909.16 2782.64 909.16C2790.56 909.16 2796.98 910.6 2801.9 913.48C2806.82 916.36 2810.42 920.56 2812.7 926.08C2815.1 931.6 2816.3 938.32 2816.3 946.24V964.42H2774.54V984.58C2774.54 987.58 2774.84 990.04 2775.44 991.96C2776.16 993.88 2777.12 995.26 2778.32 996.1C2779.52 996.82 2781.02 997.18 2782.82 997.18C2784.5 997.18 2785.94 996.82 2787.14 996.1C2788.46 995.26 2789.42 994 2790.02 992.32C2790.62 990.64 2790.92 988.42 2790.92 985.66V975.76H2816.12V984.4C2816.12 994.96 2813.24 1003 2807.48 1008.52C2801.72 1014.04 2793.44 1016.8 2782.64 1016.8ZM2774.54 951.46H2790.92V941.2C2790.92 938.2 2790.62 935.8 2790.02 934C2789.42 932.08 2788.46 930.76 2787.14 930.04C2785.94 929.2 2784.38 928.78 2782.46 928.78C2780.66 928.78 2779.16 929.2 2777.96 930.04C2776.88 930.88 2776.04 932.38 2775.44 934.54C2774.84 936.58 2774.54 939.52 2774.54 943.36V951.46Z" fill="white"/>
<path d="M2831.96 1043.26V998.26C2835.8 996.22 2839.16 993.64 2842.04 990.52C2844.92 987.4 2847.38 983.56 2849.42 979C2851.58 974.32 2853.26 968.86 2854.46 962.62C2855.78 956.26 2856.62 948.88 2856.98 940.48L2859.32 910.96H2914.58V997.9H2927.9V1043.26H2909.18L2907.38 1015H2852.12L2850.5 1043.26H2831.96ZM2860.76 997.9H2889.38V927.7H2879.66L2877.86 946.96C2877.5 954.76 2876.84 961.48 2875.88 967.12C2875.04 972.76 2873.84 977.56 2872.28 981.52C2870.72 985.48 2868.98 988.78 2867.06 991.42C2865.14 993.94 2863.04 996.1 2860.76 997.9Z" fill="white"/>
<path d="M2961.15 1016.8C2956.11 1016.8 2951.85 1015.54 2948.37 1013.02C2944.89 1010.5 2942.25 1007.32 2940.45 1003.48C2938.65 999.64 2937.75 995.68 2937.75 991.6C2937.75 985.12 2939.01 979.66 2941.53 975.22C2944.05 970.78 2947.35 967.06 2951.43 964.06C2955.51 961.06 2960.07 958.48 2965.11 956.32C2970.15 954.16 2975.19 952.18 2980.23 950.38V940.66C2980.23 938.38 2980.05 936.4 2979.69 934.72C2979.33 933.04 2978.61 931.78 2977.53 930.94C2976.57 929.98 2975.13 929.5 2973.21 929.5C2971.29 929.5 2969.79 929.92 2968.71 930.76C2967.75 931.48 2967.03 932.62 2966.55 934.18C2966.07 935.62 2965.83 937.24 2965.83 939.04L2965.11 946.24L2939.55 945.16C2940.15 932.92 2943.33 923.86 2949.09 917.98C2954.97 912.1 2963.79 909.16 2975.55 909.16C2986.11 909.16 2993.91 912.1 2998.95 917.98C3003.99 923.74 3006.51 931.36 3006.51 940.84V989.26C3006.51 993.34 3006.57 997 3006.69 1000.24C3006.93 1003.36 3007.17 1006.18 3007.41 1008.7C3007.77 1011.1 3008.07 1013.2 3008.31 1015H2983.83C2983.47 1012.36 2983.05 1009.48 2982.57 1006.36C2982.09 1003.24 2981.73 1001.14 2981.49 1000.06C2980.29 1004.38 2978.01 1008.28 2974.65 1011.76C2971.29 1015.12 2966.79 1016.8 2961.15 1016.8ZM2971.05 997.54C2972.37 997.54 2973.57 997.24 2974.65 996.64C2975.85 996.04 2976.93 995.26 2977.89 994.3C2978.85 993.34 2979.63 992.44 2980.23 991.6V962.98C2977.71 964.54 2975.37 966.1 2973.21 967.66C2971.05 969.1 2969.19 970.72 2967.63 972.52C2966.07 974.32 2964.87 976.3 2964.03 978.46C2963.19 980.62 2962.77 983.08 2962.77 985.84C2962.77 989.44 2963.49 992.32 2964.93 994.48C2966.37 996.52 2968.41 997.54 2971.05 997.54Z" fill="white"/>
<path d="M3025.99 1015V910.96H3075.67V929.5H3053.17V1015H3025.99Z" fill="white"/>
<path d="M3121.72 1016.8C3114.28 1016.8 3107.92 1015.48 3102.64 1012.84C3097.36 1010.08 3093.34 1006.12 3090.58 1000.96C3087.94 995.8 3086.62 989.38 3086.62 981.7V944.26C3086.62 936.58 3087.94 930.16 3090.58 925C3093.34 919.84 3097.36 915.94 3102.64 913.3C3107.92 910.54 3114.28 909.16 3121.72 909.16C3129.16 909.16 3135.52 910.54 3140.8 913.3C3146.08 915.94 3150.1 919.84 3152.86 925C3155.62 930.16 3157 936.58 3157 944.26V981.7C3157 989.38 3155.62 995.8 3152.86 1000.96C3150.1 1006.12 3146.08 1010.08 3140.8 1012.84C3135.52 1015.48 3129.16 1016.8 3121.72 1016.8ZM3121.9 998.44C3124.18 998.44 3125.92 997.84 3127.12 996.64C3128.32 995.32 3129.1 993.58 3129.46 991.42C3129.82 989.14 3130 986.56 3130 983.68V942.46C3130 939.46 3129.82 936.88 3129.46 934.72C3129.1 932.56 3128.32 930.82 3127.12 929.5C3125.92 928.18 3124.18 927.52 3121.9 927.52C3119.62 927.52 3117.88 928.18 3116.68 929.5C3115.48 930.82 3114.64 932.56 3114.16 934.72C3113.8 936.88 3113.62 939.46 3113.62 942.46V983.68C3113.62 986.56 3113.8 989.14 3114.16 991.42C3114.64 993.58 3115.48 995.32 3116.68 996.64C3117.88 997.84 3119.62 998.44 3121.9 998.44Z" fill="white"/>
<path d="M3175.31 1015V910.96H3224.99V929.5H3202.49V1015H3175.31Z" fill="white"/>
<path d="M3271.05 1016.8C3263.61 1016.8 3257.25 1015.48 3251.97 1012.84C3246.69 1010.08 3242.67 1006.12 3239.91 1000.96C3237.27 995.8 3235.95 989.38 3235.95 981.7V944.26C3235.95 936.58 3237.27 930.16 3239.91 925C3242.67 919.84 3246.69 915.94 3251.97 913.3C3257.25 910.54 3263.61 909.16 3271.05 909.16C3278.49 909.16 3284.85 910.54 3290.13 913.3C3295.41 915.94 3299.43 919.84 3302.19 925C3304.95 930.16 3306.33 936.58 3306.33 944.26V981.7C3306.33 989.38 3304.95 995.8 3302.19 1000.96C3299.43 1006.12 3295.41 1010.08 3290.13 1012.84C3284.85 1015.48 3278.49 1016.8 3271.05 1016.8ZM3271.23 998.44C3273.51 998.44 3275.25 997.84 3276.45 996.64C3277.65 995.32 3278.43 993.58 3278.79 991.42C3279.15 989.14 3279.33 986.56 3279.33 983.68V942.46C3279.33 939.46 3279.15 936.88 3278.79 934.72C3278.43 932.56 3277.65 930.82 3276.45 929.5C3275.25 928.18 3273.51 927.52 3271.23 927.52C3268.95 927.52 3267.21 928.18 3266.01 929.5C3264.81 930.82 3263.97 932.56 3263.49 934.72C3263.13 936.88 3262.95 939.46 3262.95 942.46V983.68C3262.95 986.56 3263.13 989.14 3263.49 991.42C3263.97 993.58 3264.81 995.32 3266.01 996.64C3267.21 997.84 3268.95 998.44 3271.23 998.44Z" fill="white"/>
<path d="M3324.63 1015V910.96H3359.73C3369.57 910.96 3376.95 912.1 3381.87 914.38C3386.91 916.54 3390.33 919.54 3392.13 923.38C3393.93 927.22 3394.83 931.66 3394.83 936.7C3394.83 943.18 3393.45 948.1 3390.69 951.46C3388.05 954.82 3384.27 957.22 3379.35 958.66C3384.27 959.74 3387.99 961.54 3390.51 964.06C3393.03 966.46 3394.77 969.46 3395.73 973.06C3396.81 976.54 3397.35 980.5 3397.35 984.94C3397.35 991.54 3396.15 997.12 3393.75 1001.68C3391.47 1006.12 3387.51 1009.48 3381.87 1011.76C3376.23 1013.92 3368.49 1015 3358.65 1015H3324.63ZM3351.63 999.16H3356.85C3359.49 999.16 3361.83 998.92 3363.87 998.44C3366.03 997.84 3367.71 996.46 3368.91 994.3C3370.23 992.14 3370.89 988.72 3370.89 984.04C3370.89 978.76 3370.29 974.98 3369.09 972.7C3368.01 970.3 3366.45 968.86 3364.41 968.38C3362.37 967.9 3359.97 967.66 3357.21 967.66H3351.63V999.16ZM3351.63 952.18H3359.37C3362.85 952.18 3365.31 951.1 3366.75 948.94C3368.31 946.66 3369.09 943.42 3369.09 939.22C3369.09 935.14 3368.25 931.9 3366.57 929.5C3365.01 927.1 3361.89 925.9 3357.21 925.9H3351.63V952.18Z" fill="white"/>
<path d="M3413.25 1008.16V980.98L3431.43 961.18L3413.25 941.74V914.56L3447.99 956.32V966.22L3413.25 1008.16ZM3451.23 1008.16V980.98L3469.41 961.18L3451.23 941.74V914.56L3485.97 956.32V966.22L3451.23 1008.16Z" fill="white"/>
<path d="M1404.18 595L1492.92 125.2H1611.24L1698.82 595H1603.12L1587.46 495.82H1518.44L1502.2 595H1404.18ZM1527.72 433.76H1577.6L1552.66 250.48L1527.72 433.76Z" fill="white"/>
<path d="M1892.41 601.96C1856.84 601.96 1828.61 595.58 1807.73 582.82C1787.24 569.673 1772.74 551.5 1764.23 528.3C1755.73 504.713 1751.47 477.067 1751.47 445.36V276C1751.47 243.52 1755.73 215.68 1764.23 192.48C1772.74 168.893 1787.24 150.72 1807.73 137.96C1828.61 125.2 1856.84 118.82 1892.41 118.82C1927.21 118.82 1954.28 124.62 1973.61 136.22C1993.33 147.433 2007.25 163.287 2015.37 183.78C2023.49 204.273 2027.55 227.86 2027.55 254.54V295.14H1926.05V248.16C1926.05 238.88 1925.47 229.987 1924.31 221.48C1923.54 212.973 1920.83 206.013 1916.19 200.6C1911.55 194.8 1903.63 191.9 1892.41 191.9C1881.59 191.9 1873.47 194.8 1868.05 200.6C1863.03 206.4 1859.74 213.747 1858.19 222.64C1857.03 231.147 1856.45 240.233 1856.45 249.9V470.88C1856.45 481.32 1857.23 490.987 1858.77 499.88C1860.71 508.387 1864.19 515.347 1869.21 520.76C1874.63 525.787 1882.36 528.3 1892.41 528.3C1903.24 528.3 1910.97 525.593 1915.61 520.18C1920.25 514.38 1923.15 507.033 1924.31 498.14C1925.47 489.247 1926.05 480.16 1926.05 470.88V421.58H2027.55V462.18C2027.55 488.86 2023.49 512.833 2015.37 534.1C2007.64 554.98 1993.91 571.607 1974.19 583.98C1954.86 595.967 1927.6 601.96 1892.41 601.96Z" fill="white"/>
<path d="M2092.21 689.54V618.2C2097.62 618.587 2102.65 618.78 2107.29 618.78C2112.32 619.167 2116.96 619.36 2121.21 619.36C2130.49 619.36 2138.8 618.587 2146.15 617.04C2153.88 615.493 2160.46 612.98 2165.87 609.5C2171.28 606.407 2175.34 601.96 2178.05 596.16C2181.14 590.747 2182.69 583.98 2182.69 575.86C2182.69 570.06 2182.3 565.033 2181.53 560.78C2181.14 556.14 2180.56 551.693 2179.79 547.44L2074.23 125.2H2170.51L2211.11 318.34L2230.25 444.2L2244.17 317.76L2278.39 125.2H2375.83L2279.55 557.3C2274.14 582.047 2267.56 602.927 2259.83 619.94C2252.1 637.34 2242.62 651.26 2231.41 661.7C2220.2 672.14 2206.47 679.68 2190.23 684.32C2174.38 688.96 2155.04 691.28 2132.23 691.28C2126.43 691.28 2120.24 691.087 2113.67 690.7C2107.1 690.313 2099.94 689.927 2092.21 689.54Z" fill="white"/>
<path d="M3089.98 601.96C3054.4 601.96 3026.18 595.58 3005.3 582.82C2984.8 569.673 2970.3 551.5 2961.8 528.3C2953.29 504.713 2949.04 477.067 2949.04 445.36V276C2949.04 243.52 2953.29 215.68 2961.8 192.48C2970.3 168.893 2984.8 150.72 3005.3 137.96C3026.18 125.2 3054.4 118.82 3089.98 118.82C3124.78 118.82 3151.84 124.62 3171.18 136.22C3190.9 147.433 3204.82 163.287 3212.94 183.78C3221.06 204.273 3225.12 227.86 3225.12 254.54V295.14H3123.62V248.16C3123.62 238.88 3123.04 229.987 3121.88 221.48C3121.1 212.973 3118.4 206.013 3113.76 200.6C3109.12 194.8 3101.19 191.9 3089.98 191.9C3079.15 191.9 3071.03 194.8 3065.62 200.6C3060.59 206.4 3057.3 213.747 3055.76 222.64C3054.6 231.147 3054.02 240.233 3054.02 249.9V470.88C3054.02 481.32 3054.79 490.987 3056.34 499.88C3058.27 508.387 3061.75 515.347 3066.78 520.76C3072.19 525.787 3079.92 528.3 3089.98 528.3C3100.8 528.3 3108.54 525.593 3113.18 520.18C3117.82 514.38 3120.72 507.033 3121.88 498.14C3123.04 489.247 3123.62 480.16 3123.62 470.88V421.58H3225.12V462.18C3225.12 488.86 3221.06 512.833 3212.94 534.1C3205.2 554.98 3191.48 571.607 3171.76 583.98C3152.42 595.967 3125.16 601.96 3089.98 601.96Z" fill="white"/>
<path d="M3579.19 601.96C3545.94 601.96 3519.84 595.387 3500.89 582.24C3481.95 568.707 3468.61 549.953 3460.87 525.98C3453.14 501.62 3449.27 473.393 3449.27 441.3V395.48H3398.23V595H3295.57V125.2H3398.23V318.92H3449.27V278.32C3449.27 245.84 3453.14 217.807 3460.87 194.22C3468.61 170.247 3481.95 151.687 3500.89 138.54C3519.84 125.393 3545.94 118.82 3579.19 118.82C3612.45 118.82 3638.55 125.393 3657.49 138.54C3676.44 151.687 3689.78 170.247 3697.51 194.22C3705.25 218.193 3709.11 246.227 3709.11 278.32V441.3C3709.11 473.393 3705.25 501.62 3697.51 525.98C3689.78 549.953 3676.44 568.707 3657.49 582.24C3638.55 595.387 3612.45 601.96 3579.19 601.96ZM3579.19 528.3C3589.63 528.3 3597.17 525.593 3601.81 520.18C3606.45 514.767 3609.35 507.807 3610.51 499.3C3611.67 490.793 3612.25 482.093 3612.25 473.2V247C3612.25 237.72 3611.67 229.02 3610.51 220.9C3609.35 212.393 3606.45 205.433 3601.81 200.02C3597.17 194.607 3589.63 191.9 3579.19 191.9C3569.14 191.9 3561.6 194.607 3556.57 200.02C3551.93 205.433 3549.03 212.393 3547.87 220.9C3546.71 229.02 3546.13 237.72 3546.13 247V473.2C3546.13 482.093 3546.71 490.793 3547.87 499.3C3549.03 507.807 3551.93 514.767 3556.57 520.18C3561.6 525.593 3569.14 528.3 3579.19 528.3Z" fill="white"/>
<path d="M3784.05 595V125.2H4065.35V595H3963.27V199.44H3886.13V595H3784.05Z" fill="white"/>
</svg>
