<?xml version="1.0" encoding="UTF-8"?>
<svg id="_Слой_2" data-name="Слой 2" xmlns="http://www.w3.org/2000/svg" viewBox="0 0 885.07 348">
  <defs>
    <style>
      .cls-1, .cls-2 {
        stroke-width: 0px;
      }

      .cls-1, .cls-3 {
        fill: #1560bd;
      }

      .cls-2, .cls-4 {
        fill: #fff;
      }

      .cls-4, .cls-5, .cls-3 {
        stroke: #1560bd;
        stroke-width: 2px;
      }

      .cls-5 {
        fill: none;
      }

      .cls-5, .cls-3 {
        stroke-miterlimit: 10;
      }
    </style>
  </defs>
  <g id="_Слой_1-2" data-name="Слой 1">
    <rect class="cls-1" x="366.94" width="150" height="40" rx="6" ry="6" pointer-events="all"/>
    <rect class="cls-4" x="375.94" y="66" width="132" height="40" rx="6" ry="6" pointer-events="all"/>
    <rect class="cls-4" x="645.94" y="66" width="101" height="40" rx="6" ry="6" pointer-events="all"/>
    <rect class="cls-4" x="136.94" y="66" width="101" height="40" rx="6" ry="6" pointer-events="all"/>
    <rect class="cls-4" x="358.94" y="132" width="165.5" height="51" rx="7.65" ry="7.65" pointer-events="all"/>
    <rect class="cls-4" x="136.94" y="209" width="120.75" height="51" rx="7.65" ry="7.65" pointer-events="all"/>
    <rect class="cls-4" x="636.13" y="209" width="120.75" height="51" rx="7.65" ry="7.65" pointer-events="all"/>
    <rect class="cls-4" x="645.95" y="132" width="100.99" height="51" rx="7.65" ry="7.65" pointer-events="all"/>
    <rect class="cls-4" x="192" y="296" width="181.88" height="51" rx="7.65" ry="7.65" pointer-events="all"/>
    <rect class="cls-4" x="508.94" y="296" width="184.12" height="51" rx="7.65" ry="7.65" pointer-events="all"/>
    <rect class="cls-4" x="1" y="296" width="151" height="51" rx="7.65" ry="7.65" pointer-events="all"/>
    <rect class="cls-4" x="733.06" y="296" width="151.01" height="51" rx="7.65" ry="7.65" pointer-events="all"/>
    <rect class="cls-4" x="127.06" y="132" width="120.75" height="51" rx="7.65" ry="7.65" pointer-events="all"/>
    <rect class="cls-4" x="386.19" y="220" width="111.5" height="40" rx="6" ry="6" pointer-events="all"/>
    <path class="cls-5" d="m441.51,40v26" pointer-events="stroke"/>
    <path class="cls-5" d="m516.94,20h179.43v46" pointer-events="stroke"/>
    <path class="cls-5" d="m366.94,20h-180v46" pointer-events="stroke"/>
    <g>
      <path class="cls-5" d="m507.94,86h129.76" pointer-events="stroke"/>
      <path class="cls-3" d="m643.7,86l-8,4,2-4-2-4,8,4Z" pointer-events="all"/>
    </g>
    <path class="cls-5" d="m696.37,106v26" pointer-events="stroke"/>
    <path class="cls-5" d="m441.65,183v13h-126.28v38.43h-57.68" pointer-events="stroke"/>
    <path class="cls-5" d="m441.65,183v13h126.43v38.43h68.05" pointer-events="stroke"/>
    <path class="cls-5" d="m441.94,106v26" pointer-events="stroke"/>
    <path class="cls-5" d="m197.37,260v18h85.57v18" pointer-events="stroke"/>
    <path class="cls-5" d="m197.37,260v18h-120.86v18" pointer-events="stroke"/>
    <path class="cls-5" d="m696.51,260v18h112v18" pointer-events="stroke"/>
    <path class="cls-5" d="m696.51,260v18h-95.57v18" pointer-events="stroke"/>
    <path class="cls-5" d="m358.94,157.5h-111.13" pointer-events="stroke"/>
    <path class="cls-5" d="m441.77,183l.11,37" pointer-events="stroke"/>
    <g id="_Текст_фигуры" data-name="Текст фигуры">
      <g>
        <path class="cls-2" d="m407.48,16.2l-2.05,3.77,2.28,4.55h-2.15l-1.79-3.61h-.86v3.61h-1.97v-8.32h1.97v3.26h.91l1.73-3.26h1.93Z"/>
        <path class="cls-2" d="m413.51,18.83c.55.6.83,1.43.83,2.5,0,.68-.13,1.27-.38,1.78-.25.51-.61.9-1.08,1.18-.47.28-1.02.42-1.66.42-.97,0-1.73-.3-2.29-.89-.56-.6-.83-1.43-.83-2.5,0-.68.13-1.27.38-1.78.25-.51.61-.9,1.08-1.18.47-.28,1.02-.42,1.66-.42.98,0,1.74.3,2.29.89Zm-3.16.98c-.19.32-.29.83-.29,1.51s.09,1.2.28,1.52.48.48.87.48.67-.16.86-.49c.19-.32.29-.83.29-1.51s-.09-1.2-.28-1.52c-.19-.32-.48-.48-.87-.48s-.67.16-.86.49Z"/>
        <path class="cls-2" d="m419.42,24.52v-2.53h-1.75v2.53h-1.9v-6.37h1.9v2.44h1.75v-2.44h1.9v6.37h-1.9Z"/>
        <path class="cls-2" d="m431.97,21.34c0,.69-.09,1.29-.28,1.79-.18.51-.45.9-.79,1.18-.34.28-.74.41-1.19.41-.58,0-1.06-.23-1.44-.7v2.95l-1.78.2v-3.16c-.38.46-.87.7-1.48.7-.45,0-.84-.14-1.17-.41-.33-.28-.59-.67-.77-1.18-.18-.51-.28-1.11-.28-1.79,0-1.08.19-1.92.56-2.51.38-.59.94-.89,1.68-.89.58,0,1.07.21,1.45.64v-3.17l1.78.2v2.98c.39-.43.89-.65,1.5-.65,1.46,0,2.2,1.13,2.2,3.4Zm-5.9,1.88c.14-.09.28-.23.43-.42v-2.96c-.27-.35-.57-.53-.9-.53-.29,0-.5.16-.65.47-.14.31-.22.83-.22,1.56s.07,1.22.22,1.54c.15.32.36.48.64.48.18,0,.33-.04.47-.13Zm3.74-.34c.15-.32.22-.83.22-1.54s-.07-1.26-.2-1.57c-.14-.31-.35-.46-.65-.46-.18,0-.34.05-.48.14-.14.09-.29.23-.43.4v2.96c.13.18.26.32.4.41s.3.13.49.13c.29,0,.51-.16.65-.47Z"/>
        <path class="cls-2" d="m438.98,21.89h-3.95c.06.54.22.91.46,1.13.24.22.57.32,1,.32.26,0,.5-.05.74-.14.24-.09.5-.23.78-.43l.78,1.06c-.74.59-1.57.89-2.48.89-1.03,0-1.82-.3-2.38-.91-.55-.61-.83-1.42-.83-2.45,0-.65.12-1.23.35-1.75.23-.52.57-.92,1.02-1.22.45-.3.98-.45,1.61-.45.92,0,1.64.29,2.16.86.52.58.78,1.38.78,2.4,0,.26-.01.49-.04.68Zm-1.82-1.22c-.02-.98-.36-1.46-1.03-1.46-.33,0-.58.12-.76.36-.18.24-.29.64-.33,1.19h2.12v-.08Z"/>
        <path class="cls-2" d="m445.77,18.83c.39.59.59,1.42.59,2.48,0,.66-.1,1.24-.31,1.76-.2.52-.5.92-.88,1.21s-.83.44-1.34.44c-.64,0-1.16-.22-1.55-.66v2.92l-1.9.2v-9.04h1.67l.1.71c.25-.31.53-.54.85-.69s.65-.22.98-.22c.8,0,1.4.3,1.79.89Zm-1.38,2.51c0-.75-.08-1.27-.25-1.57s-.42-.44-.76-.44c-.22,0-.42.06-.61.19-.19.13-.35.31-.5.55v2.69c.26.38.58.56.97.56.76,0,1.14-.66,1.14-1.99Z"/>
        <path class="cls-2" d="m453.37,21.89h-3.95c.06.54.22.91.46,1.13.24.22.57.32,1,.32.26,0,.5-.05.74-.14s.5-.23.78-.43l.78,1.06c-.74.59-1.57.89-2.48.89-1.03,0-1.82-.3-2.38-.91s-.83-1.42-.83-2.45c0-.65.12-1.23.35-1.75.23-.52.57-.92,1.02-1.22.45-.3.98-.45,1.61-.45.92,0,1.64.29,2.16.86.52.58.78,1.38.78,2.4,0,.26-.01.49-.04.68Zm-1.82-1.22c-.02-.98-.36-1.46-1.03-1.46-.33,0-.58.12-.76.36-.18.24-.29.64-.33,1.19h2.12v-.08Z"/>
        <path class="cls-2" d="m458.42,24.52v-2.53h-1.75v2.53h-1.9v-6.37h1.9v2.44h1.75v-2.44h1.9v6.37h-1.9Z"/>
        <path class="cls-2" d="m467.54,23.12h.96v3.38h-1.32l-.22-1.99h-4.86v-6.37h1.9v4.97h1.64v-4.97h1.9v4.98Z"/>
        <path class="cls-2" d="m475.13,24.52h-1.8v-2.27c0-.45.02-.87.07-1.27.05-.4.11-.74.18-1.01l-2.12,4.55h-1.93v-6.37h1.81v2.3c0,.42-.03.84-.08,1.25-.05.41-.11.74-.17,1.01l2.1-4.56h1.94v6.37Z"/>
        <path class="cls-2" d="m482.12,18.14v6.37h-1.9v-2.22h-.82l-1.15,2.22h-2.03l1.46-2.66c-.31-.17-.55-.39-.73-.67s-.26-.6-.26-.97c0-.68.25-1.2.76-1.55.51-.35,1.25-.53,2.21-.53h2.44Zm-1.9,3.02v-1.81h-.55c-.34,0-.6.08-.77.23-.17.15-.26.37-.26.65,0,.3.08.53.25.69.16.16.41.25.75.25h.59Z"/>
      </g>
      <g>
        <path class="cls-1" d="m168.31,83.06c.59.44.88,1.1.88,1.98s-.3,1.61-.89,2.07c-.59.46-1.38.69-2.36.69h-.97v2.89h-1.58v-8.29h2.45c1.06,0,1.89.22,2.48.66Zm-1.21,3.2c.29-.24.43-.64.43-1.22,0-.98-.57-1.48-1.72-1.48h-.85v3.05h.85c.57,0,1-.12,1.28-.35Z"/>
        <path class="cls-1" d="m175.54,88h-3.98c.05.62.21,1.06.48,1.32.27.26.63.4,1.08.4.28,0,.54-.05.79-.14.25-.09.51-.23.79-.43l.64.88c-.7.57-1.49.85-2.35.85-.97,0-1.71-.3-2.24-.89-.52-.59-.79-1.4-.79-2.42,0-.65.11-1.23.34-1.75.22-.52.55-.92.97-1.21.42-.29.93-.44,1.51-.44.89,0,1.58.28,2.06.85s.73,1.35.73,2.36c0,.08-.01.29-.04.62Zm-1.49-1.07c0-1.11-.41-1.67-1.24-1.67-.38,0-.67.14-.88.41-.21.28-.34.72-.38,1.33h2.5v-.07Z"/>
        <path class="cls-1" d="m182.54,88.75c0,.66-.25,1.14-.75,1.46s-1.17.48-2.02.48h-2.51v-6.28c.86-.17,1.63-.25,2.32-.25.82,0,1.47.15,1.94.44.47.3.71.72.71,1.28,0,.36-.11.65-.34.88-.22.22-.55.38-.98.46,1.09.12,1.63.63,1.63,1.52Zm-3.74-3.48v1.61h.91c.66,0,1-.28,1-.85s-.38-.82-1.14-.82c-.22,0-.47.02-.77.06Zm2.15,3.38c0-.3-.09-.51-.28-.65s-.49-.21-.91-.21h-.96v1.84h.94c.81,0,1.21-.32,1.21-.97Z"/>
        <path class="cls-1" d="m189.57,90.7h-1.48v-2.54c0-.46.02-.9.06-1.31s.08-.72.13-.93l-2.36,4.79h-1.64v-6.35h1.49v2.54c0,.44-.02.88-.07,1.31-.04.43-.09.74-.14.92l2.34-4.78h1.67v6.35Z"/>
        <path class="cls-1" d="m195.24,84.64c.46.31.69.74.69,1.27,0,.36-.11.65-.33.88-.22.23-.56.4-1.01.51.56.09.98.25,1.25.5s.41.59.41,1.05c0,.66-.26,1.16-.79,1.51-.52.35-1.21.52-2.05.52-.98,0-1.83-.26-2.53-.78l.76-.89c.28.18.55.32.82.4s.56.13.9.13c.86,0,1.28-.32,1.28-.95,0-.57-.45-.85-1.36-.85h-.92l.1-1.06h.7c.38,0,.67-.07.89-.21s.32-.35.32-.64c0-.26-.09-.46-.28-.58-.19-.12-.44-.18-.75-.18s-.57.04-.8.12c-.23.08-.47.2-.71.36l-.71-.85c.34-.25.7-.43,1.09-.55.39-.12.83-.18,1.32-.18.68,0,1.25.16,1.71.47Z"/>
        <path class="cls-1" d="m202.71,85.06c.52.6.79,1.41.79,2.45,0,.66-.12,1.25-.36,1.76-.24.51-.58.9-1.03,1.18-.45.28-.98.42-1.6.42-.94,0-1.67-.3-2.2-.89-.53-.6-.79-1.42-.79-2.47,0-.66.12-1.25.36-1.75.24-.5.59-.9,1.04-1.18.45-.28.99-.42,1.6-.42.94,0,1.67.3,2.19.89Zm-3.57,2.45c0,.75.11,1.31.34,1.66s.57.53,1.03.53.8-.18,1.03-.54.34-.91.34-1.66-.11-1.29-.34-1.65-.57-.53-1.01-.53c-.92,0-1.38.73-1.38,2.18Z"/>
        <path class="cls-1" d="m210.3,85.04c.38.58.58,1.4.58,2.46,0,.66-.1,1.24-.29,1.75-.2.51-.48.91-.86,1.19s-.83.43-1.35.43c-.67,0-1.2-.23-1.6-.7v2.96l-1.54.17v-8.96h1.34l.08.78c.25-.32.53-.56.85-.72.32-.16.66-.24,1.01-.24.8,0,1.39.29,1.78.88Zm-1.03,2.47c0-.78-.1-1.34-.3-1.68-.2-.34-.5-.52-.9-.52-.26,0-.5.08-.72.23-.22.16-.42.37-.58.63v2.86c.3.44.68.66,1.16.66.89,0,1.33-.73,1.33-2.18Z"/>
      </g>
      <g>
        <path class="cls-1" d="m159.08,146.57v8.29h-1.58v-7.03h-2.92v7.03h-1.58v-8.29h6.08Z"/>
        <path class="cls-1" d="m166.05,149.23c.52.6.79,1.41.79,2.45,0,.66-.12,1.25-.36,1.76-.24.51-.58.9-1.03,1.18-.45.28-.98.42-1.6.42-.94,0-1.67-.3-2.2-.89-.53-.6-.79-1.42-.79-2.47,0-.66.12-1.25.36-1.75.24-.5.59-.9,1.04-1.18.45-.28.99-.42,1.6-.42.94,0,1.67.3,2.19.89Zm-3.57,2.45c0,.75.11,1.31.34,1.66s.57.53,1.03.53.8-.18,1.03-.54.34-.91.34-1.66-.11-1.29-.34-1.65-.57-.53-1.01-.53c-.92,0-1.38.73-1.38,2.18Z"/>
        <path class="cls-1" d="m175.19,154.86h-1.46l-.2-2.6c-.03-.38-.05-.8-.05-1.25,0-.19,0-.56.02-1.1l-1.21,4.28h-1.33l-1.16-4.28c.02.44.04.87.04,1.28,0,.25,0,.6-.02,1.07l-.17,2.6h-1.46l.55-6.35h1.87l1.03,4.3,1.12-4.3h1.88l.56,6.35Z"/>
        <path class="cls-1" d="m181.71,149.23c.52.6.79,1.41.79,2.45,0,.66-.12,1.25-.36,1.76-.24.51-.58.9-1.03,1.18-.45.28-.98.42-1.6.42-.94,0-1.67-.3-2.2-.89-.53-.6-.79-1.42-.79-2.47,0-.66.12-1.25.36-1.75.24-.5.59-.9,1.04-1.18.45-.28.99-.42,1.6-.42.94,0,1.67.3,2.19.89Zm-3.57,2.45c0,.75.11,1.31.34,1.66s.57.53,1.03.53.8-.18,1.03-.54.34-.91.34-1.66-.11-1.29-.34-1.65-.57-.53-1.01-.53c-.92,0-1.38.73-1.38,2.18Z"/>
        <path class="cls-1" d="m191.85,153.7h.96v3.06h-1.12l-.2-1.9h-7.25v-6.35h1.48v5.18h1.64v-5.18h1.37v5.18h1.64v-5.18h1.48v5.18Z"/>
        <path class="cls-1" d="m197.8,154.86v-2.65h-2.15v2.65h-1.54v-6.35h1.54v2.53h2.15v-2.53h1.54v6.35h-1.54Z"/>
        <path class="cls-1" d="m206.78,154.86h-1.48v-2.54c0-.46.02-.9.06-1.31s.08-.72.13-.93l-2.36,4.79h-1.64v-6.35h1.49v2.54c0,.44-.02.88-.07,1.31-.04.43-.09.74-.14.92l2.34-4.78h1.67v6.35Z"/>
        <path class="cls-1" d="m214.19,148.51l-1.79,2.94,1.98,3.41h-1.69l-1.55-2.82h-.68v2.82h-1.54v-6.35h1.54v2.51h.72l1.48-2.51h1.54Z"/>
        <path class="cls-1" d="m220.94,154.86h-1.48v-2.54c0-.46.02-.9.06-1.31s.08-.72.13-.93l-2.36,4.79h-1.64v-6.35h1.49v2.54c0,.44-.02.88-.07,1.31-.04.43-.09.74-.14.92l2.34-4.78h1.67v6.35Z"/>
        <path class="cls-1" d="m153.11,160.97v8.29h-1.58v-7.03h-2.92v7.03h-1.58v-8.29h6.08Z"/>
        <path class="cls-1" d="m160.37,163.61c.38.58.58,1.4.58,2.46,0,.66-.1,1.24-.29,1.75-.2.51-.48.91-.86,1.19s-.83.43-1.35.43c-.67,0-1.2-.23-1.6-.7v2.96l-1.54.17v-8.96h1.34l.08.78c.25-.32.53-.56.85-.72.32-.16.66-.24,1.01-.24.8,0,1.39.29,1.78.88Zm-1.03,2.47c0-.78-.1-1.34-.3-1.68-.2-.34-.5-.52-.9-.52-.26,0-.5.08-.72.23-.22.16-.42.37-.58.63v2.86c.3.44.68.66,1.16.66.89,0,1.33-.73,1.33-2.18Z"/>
        <path class="cls-1" d="m167.93,166.56h-3.98c.05.62.21,1.06.48,1.32.27.26.63.4,1.08.4.28,0,.54-.05.79-.14.25-.09.51-.23.79-.43l.64.88c-.7.57-1.49.85-2.35.85-.97,0-1.71-.3-2.24-.89-.52-.59-.79-1.4-.79-2.42,0-.65.11-1.23.34-1.75.22-.52.55-.92.97-1.21.42-.29.93-.44,1.51-.44.89,0,1.58.28,2.06.85s.73,1.35.73,2.36c0,.08-.01.29-.04.62Zm-1.49-1.07c0-1.11-.41-1.67-1.24-1.67-.38,0-.67.14-.88.41-.21.28-.34.72-.38,1.33h2.5v-.07Z"/>
        <path class="cls-1" d="m174.99,168.1v3.06h-1.12l-.2-1.9h-3.76l-.2,1.9h-1.12v-3.06h.42c.17-.11.3-.25.4-.41.1-.16.19-.44.28-.83.08-.39.15-.96.21-1.69l.17-2.24h4.26v5.18h.66Zm-2.14-4.1h-1.44l-.08,1.01c-.06.69-.12,1.23-.2,1.62-.08.39-.19.7-.32.92-.14.22-.32.41-.56.56h2.62v-4.1Z"/>
        <path class="cls-1" d="m180.14,162.91c.33.12.65.31.94.56l-.68.92c-.22-.16-.42-.28-.62-.35-.2-.07-.42-.11-.66-.11-.95,0-1.43.72-1.43,2.17,0,.74.12,1.27.37,1.59.25.32.6.49,1.06.49.22,0,.43-.04.62-.11.19-.07.41-.19.67-.35l.68.97c-.6.49-1.28.73-2.05.73-.61,0-1.14-.13-1.58-.4-.45-.27-.79-.65-1.03-1.15-.24-.5-.36-1.08-.36-1.75s.12-1.27.36-1.78c.24-.52.58-.92,1.03-1.2.45-.28.97-.43,1.57-.43.42,0,.79.06,1.12.18Z"/>
        <path class="cls-1" d="m187.43,166.56h-3.98c.05.62.21,1.06.48,1.32.27.26.63.4,1.08.4.28,0,.54-.05.79-.14.25-.09.51-.23.79-.43l.64.88c-.7.57-1.49.85-2.35.85-.97,0-1.71-.3-2.24-.89-.52-.59-.79-1.4-.79-2.42,0-.65.11-1.23.34-1.75.22-.52.55-.92.97-1.21.42-.29.93-.44,1.51-.44.89,0,1.58.28,2.06.85s.73,1.35.73,2.36c0,.08-.01.29-.04.62Zm-1.49-1.07c0-1.11-.41-1.67-1.24-1.67-.38,0-.67.14-.88.41-.21.28-.34.72-.38,1.33h2.5v-.07Z"/>
        <path class="cls-1" d="m194.49,168.1v3.06h-1.12l-.2-1.9h-3.76l-.2,1.9h-1.12v-3.06h.42c.17-.11.3-.25.4-.41.1-.16.19-.44.28-.83.08-.39.15-.96.21-1.69l.17-2.24h4.26v5.18h.66Zm-2.14-4.1h-1.44l-.08,1.01c-.06.69-.12,1.23-.2,1.62-.08.39-.19.7-.32.92-.14.22-.32.41-.56.56h2.62v-4.1Z"/>
        <path class="cls-1" d="m200.8,168.13c.08.12.2.21.37.27l-.32,1.02c-.36-.03-.65-.12-.88-.26s-.4-.36-.52-.66c-.22.32-.49.56-.81.71-.32.16-.69.23-1.09.23-.63,0-1.13-.18-1.5-.54-.37-.36-.55-.83-.55-1.42,0-.69.25-1.21.75-1.58.5-.36,1.21-.55,2.14-.55h.79v-.36c0-.41-.09-.69-.28-.86-.19-.16-.49-.25-.91-.25-.46,0-1.02.11-1.68.34l-.36-1.04c.79-.3,1.56-.46,2.3-.46,1.62,0,2.44.73,2.44,2.18v2.66c0,.25.04.43.11.55Zm-1.63-.58v-1.28h-.64c-.99,0-1.49.37-1.49,1.1,0,.3.08.54.23.71s.38.25.67.25c.52,0,.93-.26,1.22-.78Z"/>
        <path class="cls-1" d="m207.27,162.91l-.19,1.18h-1.86v5.17h-1.54v-5.17h-1.97v-1.18h5.56Z"/>
        <path class="cls-1" d="m213.33,166.56h-3.98c.05.62.21,1.06.48,1.32.27.26.63.4,1.08.4.28,0,.54-.05.79-.14.25-.09.51-.23.79-.43l.64.88c-.7.57-1.49.85-2.35.85-.97,0-1.71-.3-2.24-.89-.52-.59-.79-1.4-.79-2.42,0-.65.11-1.23.34-1.75.22-.52.55-.92.97-1.21.42-.29.93-.44,1.51-.44.89,0,1.58.28,2.06.85s.73,1.35.73,2.36c0,.08-.01.29-.04.62Zm-1.49-1.07c0-1.11-.41-1.67-1.24-1.67-.38,0-.67.14-.88.41-.21.28-.34.72-.38,1.33h2.5v-.07Z"/>
        <path class="cls-1" d="m219.96,162.91v6.35h-1.54v-5.18h-1.55l-.16,1.7c-.08.9-.18,1.57-.29,2.02-.11.45-.3.79-.56,1.04-.26.24-.66.43-1.19.57l-.38-1.14c.26-.11.45-.24.57-.38.12-.14.2-.36.25-.67.05-.3.11-.82.16-1.55l.22-2.76h4.46Z"/>
        <path class="cls-1" d="m226.91,162.91v6.35h-1.54v-2.32h-1.07l-1.24,2.32h-1.67l1.49-2.66c-.34-.17-.59-.39-.77-.68-.18-.28-.27-.62-.27-1,0-.66.24-1.15.72-1.49s1.17-.51,2.06-.51h2.28Zm-1.54,3.04v-1.99h-.77c-.78,0-1.18.32-1.18.97,0,.34.09.6.28.77s.48.25.88.25h.79Z"/>
      </g>
      <g>
        <path class="cls-1" d="m407.89,82.4v8.29h-1.58v-7.03h-2.92v7.03h-1.58v-8.29h6.08Z"/>
        <path class="cls-1" d="m415.15,85.04c.38.58.58,1.4.58,2.46,0,.66-.1,1.24-.29,1.75-.2.51-.48.91-.86,1.19s-.83.43-1.35.43c-.67,0-1.2-.23-1.6-.7v2.96l-1.54.17v-8.96h1.34l.08.78c.25-.32.53-.56.85-.72.32-.16.66-.24,1.01-.24.8,0,1.39.29,1.78.88Zm-1.03,2.47c0-.78-.1-1.34-.3-1.68-.2-.34-.5-.52-.9-.52-.26,0-.5.08-.72.23-.22.16-.42.37-.58.63v2.86c.3.44.68.66,1.16.66.89,0,1.33-.73,1.33-2.18Z"/>
        <path class="cls-1" d="m422.71,88h-3.98c.05.62.21,1.06.48,1.32.27.26.63.4,1.08.4.28,0,.54-.05.79-.14.25-.09.51-.23.79-.43l.64.88c-.7.57-1.49.85-2.35.85-.97,0-1.71-.3-2.24-.89-.52-.59-.79-1.4-.79-2.42,0-.65.11-1.23.34-1.75.22-.52.55-.92.97-1.21.42-.29.93-.44,1.51-.44.89,0,1.58.28,2.06.85s.73,1.35.73,2.36c0,.08-.01.29-.04.62Zm-1.49-1.07c0-1.11-.41-1.67-1.24-1.67-.38,0-.67.14-.88.41-.21.28-.34.72-.38,1.33h2.5v-.07Z"/>
        <path class="cls-1" d="m429.77,89.53v3.06h-1.12l-.2-1.9h-3.76l-.2,1.9h-1.12v-3.06h.42c.17-.11.3-.25.4-.41.1-.16.19-.44.28-.83.08-.39.15-.96.21-1.69l.17-2.24h4.26v5.18h.66Zm-2.14-4.1h-1.44l-.08,1.01c-.06.69-.12,1.23-.2,1.62-.08.39-.19.7-.32.92-.14.22-.32.41-.56.56h2.62v-4.1Z"/>
        <path class="cls-1" d="m434.92,84.35c.33.12.65.31.94.56l-.68.92c-.22-.16-.42-.28-.62-.35-.2-.07-.42-.11-.66-.11-.95,0-1.43.72-1.43,2.17,0,.74.12,1.27.37,1.59.25.32.6.49,1.06.49.22,0,.43-.04.62-.11.19-.07.41-.19.67-.35l.68.97c-.6.49-1.28.73-2.05.73-.61,0-1.14-.13-1.58-.4-.45-.27-.79-.65-1.03-1.15-.24-.5-.36-1.08-.36-1.75s.12-1.27.36-1.78c.24-.52.58-.92,1.03-1.2.45-.28.97-.43,1.57-.43.42,0,.79.06,1.12.18Z"/>
        <path class="cls-1" d="m442.21,88h-3.98c.05.62.21,1.06.48,1.32.27.26.63.4,1.08.4.28,0,.54-.05.79-.14.25-.09.51-.23.79-.43l.64.88c-.7.57-1.49.85-2.35.85-.97,0-1.71-.3-2.24-.89-.52-.59-.79-1.4-.79-2.42,0-.65.11-1.23.34-1.75.22-.52.55-.92.97-1.21.42-.29.93-.44,1.51-.44.89,0,1.58.28,2.06.85s.73,1.35.73,2.36c0,.08-.01.29-.04.62Zm-1.49-1.07c0-1.11-.41-1.67-1.24-1.67-.38,0-.67.14-.88.41-.21.28-.34.72-.38,1.33h2.5v-.07Z"/>
        <path class="cls-1" d="m449.27,89.53v3.06h-1.12l-.2-1.9h-3.76l-.2,1.9h-1.12v-3.06h.42c.17-.11.3-.25.4-.41.1-.16.19-.44.28-.83.08-.39.15-.96.21-1.69l.17-2.24h4.26v5.18h.66Zm-2.14-4.1h-1.44l-.08,1.01c-.06.69-.12,1.23-.2,1.62-.08.39-.19.7-.32.92-.14.22-.32.41-.56.56h2.62v-4.1Z"/>
        <path class="cls-1" d="m455.58,89.56c.08.12.2.21.37.27l-.32,1.02c-.36-.03-.65-.12-.88-.26-.23-.14-.4-.36-.52-.66-.22.32-.49.56-.81.71-.32.16-.69.23-1.09.23-.63,0-1.13-.18-1.5-.54-.37-.36-.55-.83-.55-1.42,0-.69.25-1.21.75-1.58.5-.36,1.21-.55,2.14-.55h.79v-.36c0-.41-.09-.69-.28-.86-.19-.16-.49-.25-.91-.25-.46,0-1.02.11-1.68.34l-.36-1.04c.79-.3,1.56-.46,2.3-.46,1.62,0,2.44.73,2.44,2.18v2.66c0,.25.04.43.11.55Zm-1.63-.58v-1.28h-.64c-.99,0-1.49.37-1.49,1.1,0,.3.08.54.23.71.15.17.38.25.67.25.52,0,.93-.26,1.22-.78Z"/>
        <path class="cls-1" d="m462.05,84.35l-.19,1.18h-1.86v5.17h-1.54v-5.17h-1.97v-1.18h5.56Z"/>
        <path class="cls-1" d="m468.11,88h-3.98c.05.62.21,1.06.48,1.32.27.26.63.4,1.08.4.28,0,.54-.05.79-.14.25-.09.51-.23.79-.43l.64.88c-.7.57-1.49.85-2.35.85-.97,0-1.71-.3-2.24-.89-.52-.59-.79-1.4-.79-2.42,0-.65.11-1.23.34-1.75s.55-.92.97-1.21c.42-.29.93-.44,1.51-.44.89,0,1.58.28,2.06.85.49.56.73,1.35.73,2.36,0,.08-.01.29-.04.62Zm-1.49-1.07c0-1.11-.41-1.67-1.24-1.67-.38,0-.67.14-.88.41-.21.28-.34.72-.38,1.33h2.5v-.07Z"/>
        <path class="cls-1" d="m474.74,84.35v6.35h-1.54v-5.18h-1.55l-.16,1.7c-.08.9-.18,1.57-.29,2.02-.11.45-.3.79-.56,1.04s-.66.43-1.19.57l-.38-1.14c.26-.11.45-.24.57-.38.12-.14.2-.36.25-.67.05-.3.11-.82.16-1.55l.22-2.76h4.46Z"/>
        <path class="cls-1" d="m481.22,86.91c.46.37.68.91.68,1.61s-.24,1.25-.73,1.62c-.49.37-1.11.55-1.87.55h-2.41v-6.35h1.54v2h.62c.99,0,1.72.19,2.17.56Zm-.91,1.59c0-.38-.1-.65-.29-.83-.19-.18-.52-.27-.98-.27h-.61v2.23h.72c.78,0,1.16-.38,1.16-1.13Z"/>
      </g>
      <g>
        <path class="cls-1" d="m387.05,146.57v8.29h-1.58v-7.03h-2.92v7.03h-1.58v-8.29h6.08Z"/>
        <path class="cls-1" d="m394.42,152.16h-3.98c.05.62.21,1.06.48,1.32.27.26.63.4,1.08.4.28,0,.54-.05.79-.14.25-.09.51-.23.79-.43l.64.88c-.7.57-1.49.85-2.35.85-.97,0-1.71-.3-2.24-.89-.52-.59-.79-1.4-.79-2.42,0-.65.11-1.23.34-1.75.22-.52.55-.92.97-1.21.42-.29.93-.44,1.51-.44.89,0,1.58.28,2.06.85s.73,1.35.73,2.36c0,.08-.01.29-.04.62Zm-1.49-1.07c0-1.11-.41-1.67-1.24-1.67-.38,0-.67.14-.88.41-.21.28-.34.72-.38,1.33h2.5v-.07Z"/>
        <path class="cls-1" d="m401.2,149.21c.38.58.58,1.4.58,2.46,0,.66-.1,1.24-.29,1.75-.2.51-.48.91-.86,1.19s-.83.43-1.35.43c-.67,0-1.2-.23-1.6-.7v2.96l-1.54.17v-8.96h1.34l.08.78c.25-.32.53-.56.85-.72.32-.16.66-.24,1.01-.24.8,0,1.39.29,1.78.88Zm-1.03,2.47c0-.78-.1-1.34-.3-1.68-.2-.34-.5-.52-.9-.52-.26,0-.5.08-.72.23-.22.16-.42.37-.58.63v2.86c.3.44.68.66,1.16.66.89,0,1.33-.73,1.33-2.18Z"/>
        <path class="cls-1" d="m408.86,152.92c0,.66-.25,1.14-.75,1.46s-1.17.48-2.02.48h-2.51v-6.28c.86-.17,1.63-.25,2.32-.25.82,0,1.47.15,1.94.44.47.3.71.72.71,1.28,0,.36-.11.65-.34.88-.22.22-.55.38-.98.46,1.09.12,1.63.63,1.63,1.52Zm-3.74-3.48v1.61h.91c.66,0,1-.28,1-.85s-.38-.82-1.14-.82c-.22,0-.47.02-.77.06Zm2.15,3.38c0-.3-.09-.51-.28-.65s-.49-.21-.91-.21h-.96v1.84h.94c.81,0,1.21-.32,1.21-.97Z"/>
        <path class="cls-1" d="m414.82,151.07c.46.37.68.91.68,1.61s-.24,1.25-.73,1.62c-.49.37-1.11.55-1.87.55h-2.29v-6.35h1.54v2h.5c.99,0,1.72.19,2.17.56Zm-.91,1.59c0-.38-.1-.65-.29-.83-.19-.18-.52-.27-.98-.27h-.49v2.23h.6c.78,0,1.16-.38,1.16-1.13Zm2.3-4.15h1.54v6.35h-1.54v-6.35Z"/>
        <path class="cls-1" d="m425.18,154.86h-1.48v-2.54c0-.46.02-.9.06-1.31s.08-.72.13-.93l-2.36,4.79h-1.64v-6.35h1.49v2.54c0,.44-.02.88-.07,1.31-.04.43-.09.74-.14.92l2.34-4.78h1.67v6.35Zm-4.01-8.09c-.34-.3-.54-.7-.59-1.2l.9-.18c.08.26.2.44.37.55.17.11.39.17.67.17s.51-.06.68-.17c.18-.12.3-.3.37-.55l.91.18c-.05.5-.25.9-.6,1.2s-.81.44-1.37.44-1.01-.15-1.36-.44Z"/>
        <path class="cls-1" d="m434.15,148.8c.46.31.69.74.69,1.27,0,.36-.11.65-.33.88-.22.23-.56.4-1.01.51.56.09.98.25,1.25.5s.41.59.41,1.05c0,.66-.26,1.16-.79,1.51-.52.35-1.21.52-2.05.52-.98,0-1.83-.26-2.53-.78l.76-.89c.28.18.55.32.82.4s.56.13.9.13c.86,0,1.28-.32,1.28-.95,0-.57-.45-.85-1.36-.85h-.92l.1-1.06h.7c.38,0,.67-.07.89-.21s.32-.35.32-.64c0-.26-.09-.46-.28-.58-.19-.12-.44-.18-.75-.18s-.57.04-.8.12c-.23.08-.47.2-.71.36l-.71-.85c.34-.25.7-.43,1.09-.55.39-.12.83-.18,1.32-.18.68,0,1.25.16,1.71.47Z"/>
        <path class="cls-1" d="m441.61,153.73c.08.12.2.21.37.27l-.32,1.02c-.36-.03-.65-.12-.88-.26s-.4-.36-.52-.66c-.22.32-.49.56-.81.71-.32.16-.69.23-1.09.23-.63,0-1.13-.18-1.5-.54-.37-.36-.55-.83-.55-1.42,0-.69.25-1.21.75-1.58.5-.36,1.21-.55,2.14-.55h.79v-.36c0-.41-.09-.69-.28-.86-.19-.16-.49-.25-.91-.25-.46,0-1.02.11-1.68.34l-.36-1.04c.79-.3,1.56-.46,2.3-.46,1.62,0,2.44.73,2.44,2.18v2.66c0,.25.04.43.11.55Zm-1.63-.58v-1.28h-.64c-.99,0-1.49.37-1.49,1.1,0,.3.08.54.23.71s.38.25.67.25c.52,0,.93-.26,1.22-.78Z"/>
        <path class="cls-1" d="m450.26,154.86h-1.46l-.2-2.6c-.03-.38-.05-.8-.05-1.25,0-.19,0-.56.02-1.1l-1.21,4.28h-1.33l-1.16-4.28c.02.44.04.87.04,1.28,0,.25,0,.6-.02,1.07l-.17,2.6h-1.46l.55-6.35h1.87l1.03,4.3,1.12-4.3h1.88l.56,6.35Z"/>
        <path class="cls-1" d="m457.18,152.16h-3.98c.05.62.21,1.06.48,1.32.27.26.63.4,1.08.4.28,0,.54-.05.79-.14.25-.09.51-.23.79-.43l.64.88c-.7.57-1.49.85-2.35.85-.97,0-1.71-.3-2.24-.89-.52-.59-.79-1.4-.79-2.42,0-.65.11-1.23.34-1.75.22-.52.55-.92.97-1.21s.93-.44,1.51-.44c.89,0,1.58.28,2.06.85.49.56.73,1.35.73,2.36,0,.08-.01.29-.04.62Zm-1.49-1.07c0-1.11-.41-1.67-1.24-1.67-.38,0-.67.14-.88.41s-.34.72-.38,1.33h2.5v-.07Z"/>
        <path class="cls-1" d="m462.57,148.51c.33.12.65.31.94.56l-.68.92c-.22-.16-.42-.28-.62-.35s-.42-.11-.66-.11c-.95,0-1.43.72-1.43,2.17,0,.74.12,1.27.37,1.59.25.32.6.49,1.06.49.22,0,.43-.04.62-.11.19-.07.41-.19.67-.35l.68.97c-.6.49-1.28.73-2.05.73-.61,0-1.14-.13-1.58-.4-.45-.27-.79-.65-1.03-1.15-.24-.5-.36-1.08-.36-1.75s.12-1.27.36-1.78c.24-.52.58-.92,1.03-1.2.45-.28.97-.43,1.57-.43.42,0,.79.06,1.12.18Z"/>
        <path class="cls-1" d="m469.6,148.51l-.19,1.18h-1.86v5.17h-1.54v-5.17h-1.97v-1.18h5.56Z"/>
        <path class="cls-1" d="m476.08,154.86h-1.48v-2.54c0-.46.02-.9.06-1.31s.08-.72.13-.93l-2.36,4.79h-1.64v-6.35h1.49v2.54c0,.44-.02.88-.07,1.31s-.09.74-.14.92l2.34-4.78h1.67v6.35Z"/>
        <path class="cls-1" d="m482.89,148.51l-.19,1.18h-1.86v5.17h-1.54v-5.17h-1.97v-1.18h5.56Z"/>
        <path class="cls-1" d="m488.95,152.16h-3.98c.05.62.21,1.06.48,1.32.27.26.63.4,1.08.4.28,0,.54-.05.79-.14.25-.09.51-.23.79-.43l.64.88c-.7.57-1.49.85-2.35.85-.97,0-1.71-.3-2.24-.89-.52-.59-.79-1.4-.79-2.42,0-.65.11-1.23.34-1.75.22-.52.55-.92.97-1.21s.93-.44,1.51-.44c.89,0,1.58.28,2.06.85.49.56.73,1.35.73,2.36,0,.08-.01.29-.04.62Zm-1.49-1.07c0-1.11-.41-1.67-1.24-1.67-.38,0-.67.14-.88.41s-.34.72-.38,1.33h2.5v-.07Z"/>
        <path class="cls-1" d="m495.58,148.51v6.35h-1.54v-5.18h-1.55l-.16,1.7c-.08.9-.18,1.57-.29,2.02-.11.45-.3.79-.56,1.04-.26.24-.66.43-1.19.57l-.38-1.14c.26-.11.45-.24.57-.38.12-.14.2-.36.25-.67.05-.3.11-.82.16-1.55l.22-2.76h4.46Z"/>
        <path class="cls-1" d="m502.06,151.07c.46.37.68.91.68,1.61s-.24,1.25-.73,1.62c-.49.37-1.11.55-1.87.55h-2.41v-6.35h1.54v2h.62c.99,0,1.72.19,2.17.56Zm-.91,1.59c0-.38-.1-.65-.29-.83-.19-.18-.52-.27-.98-.27h-.61v2.23h.72c.78,0,1.16-.38,1.16-1.13Z"/>
        <path class="cls-1" d="m407.68,160.97v8.29h-1.58v-7.03h-2.92v7.03h-1.58v-8.29h6.08Z"/>
        <path class="cls-1" d="m414.94,163.61c.38.58.58,1.4.58,2.46,0,.66-.1,1.24-.29,1.75-.2.51-.48.91-.86,1.19s-.83.43-1.35.43c-.67,0-1.2-.23-1.6-.7v2.96l-1.54.17v-8.96h1.34l.08.78c.25-.32.53-.56.85-.72.32-.16.66-.24,1.01-.24.8,0,1.39.29,1.78.88Zm-1.03,2.47c0-.78-.1-1.34-.3-1.68-.2-.34-.5-.52-.9-.52-.26,0-.5.08-.72.23-.22.16-.42.37-.58.63v2.86c.3.44.68.66,1.16.66.89,0,1.33-.73,1.33-2.18Z"/>
        <path class="cls-1" d="m422.5,166.56h-3.98c.05.62.21,1.06.48,1.32.27.26.63.4,1.08.4.28,0,.54-.05.79-.14.25-.09.51-.23.79-.43l.64.88c-.7.57-1.49.85-2.35.85-.97,0-1.71-.3-2.24-.89-.52-.59-.79-1.4-.79-2.42,0-.65.11-1.23.34-1.75.22-.52.55-.92.97-1.21.42-.29.93-.44,1.51-.44.89,0,1.58.28,2.06.85s.73,1.35.73,2.36c0,.08-.01.29-.04.62Zm-1.49-1.07c0-1.11-.41-1.67-1.24-1.67-.38,0-.67.14-.88.41-.21.28-.34.72-.38,1.33h2.5v-.07Z"/>
        <path class="cls-1" d="m429.56,168.1v3.06h-1.12l-.2-1.9h-3.76l-.2,1.9h-1.12v-3.06h.42c.17-.11.3-.25.4-.41.1-.16.19-.44.28-.83.08-.39.15-.96.21-1.69l.17-2.24h4.26v5.18h.66Zm-2.14-4.1h-1.44l-.08,1.01c-.06.69-.12,1.23-.2,1.62-.08.39-.19.7-.32.92-.14.22-.32.41-.56.56h2.62v-4.1Z"/>
        <path class="cls-1" d="m434.71,162.91c.33.12.65.31.94.56l-.68.92c-.22-.16-.42-.28-.62-.35-.2-.07-.42-.11-.66-.11-.95,0-1.43.72-1.43,2.17,0,.74.12,1.27.37,1.59.25.32.6.49,1.06.49.22,0,.43-.04.62-.11.19-.07.41-.19.67-.35l.68.97c-.6.49-1.28.73-2.05.73-.61,0-1.14-.13-1.58-.4-.45-.27-.79-.65-1.03-1.15-.24-.5-.36-1.08-.36-1.75s.12-1.27.36-1.78c.24-.52.58-.92,1.03-1.2.45-.28.97-.43,1.57-.43.42,0,.79.06,1.12.18Z"/>
        <path class="cls-1" d="m442,166.56h-3.98c.05.62.21,1.06.48,1.32.27.26.63.4,1.08.4.28,0,.54-.05.79-.14.25-.09.51-.23.79-.43l.64.88c-.7.57-1.49.85-2.35.85-.97,0-1.71-.3-2.24-.89-.52-.59-.79-1.4-.79-2.42,0-.65.11-1.23.34-1.75.22-.52.55-.92.97-1.21.42-.29.93-.44,1.51-.44.89,0,1.58.28,2.06.85s.73,1.35.73,2.36c0,.08-.01.29-.04.62Zm-1.49-1.07c0-1.11-.41-1.67-1.24-1.67-.38,0-.67.14-.88.41-.21.28-.34.72-.38,1.33h2.5v-.07Z"/>
        <path class="cls-1" d="m449.06,168.1v3.06h-1.12l-.2-1.9h-3.76l-.2,1.9h-1.12v-3.06h.42c.17-.11.3-.25.4-.41.1-.16.19-.44.28-.83.08-.39.15-.96.21-1.69l.17-2.24h4.26v5.18h.66Zm-2.14-4.1h-1.44l-.08,1.01c-.06.69-.12,1.23-.2,1.62-.08.39-.19.7-.32.92-.14.22-.32.41-.56.56h2.62v-4.1Z"/>
        <path class="cls-1" d="m455.37,168.13c.08.12.2.21.37.27l-.32,1.02c-.36-.03-.65-.12-.88-.26-.23-.14-.4-.36-.52-.66-.22.32-.49.56-.81.71-.32.16-.69.23-1.09.23-.63,0-1.13-.18-1.5-.54-.37-.36-.55-.83-.55-1.42,0-.69.25-1.21.75-1.58.5-.36,1.21-.55,2.14-.55h.79v-.36c0-.41-.09-.69-.28-.86-.19-.16-.49-.25-.91-.25-.46,0-1.02.11-1.68.34l-.36-1.04c.79-.3,1.56-.46,2.3-.46,1.62,0,2.44.73,2.44,2.18v2.66c0,.25.04.43.11.55Zm-1.63-.58v-1.28h-.64c-.99,0-1.49.37-1.49,1.1,0,.3.08.54.23.71.15.17.38.25.67.25.52,0,.93-.26,1.22-.78Z"/>
        <path class="cls-1" d="m461.84,162.91l-.19,1.18h-1.86v5.17h-1.54v-5.17h-1.97v-1.18h5.56Z"/>
        <path class="cls-1" d="m467.9,166.56h-3.98c.05.62.21,1.06.48,1.32.27.26.63.4,1.08.4.28,0,.54-.05.79-.14.25-.09.51-.23.79-.43l.64.88c-.7.57-1.49.85-2.35.85-.97,0-1.71-.3-2.24-.89-.52-.59-.79-1.4-.79-2.42,0-.65.11-1.23.34-1.75s.55-.92.97-1.21c.42-.29.93-.44,1.51-.44.89,0,1.58.28,2.06.85.49.56.73,1.35.73,2.36,0,.08-.01.29-.04.62Zm-1.49-1.07c0-1.11-.41-1.67-1.24-1.67-.38,0-.67.14-.88.41-.21.28-.34.72-.38,1.33h2.5v-.07Z"/>
        <path class="cls-1" d="m474.53,162.91v6.35h-1.54v-5.18h-1.55l-.16,1.7c-.08.9-.18,1.57-.29,2.02-.11.45-.3.79-.56,1.04s-.66.43-1.19.57l-.38-1.14c.26-.11.45-.24.57-.38.12-.14.2-.36.25-.67.05-.3.11-.82.16-1.55l.22-2.76h4.46Z"/>
        <path class="cls-1" d="m481.48,162.91v6.35h-1.54v-2.32h-1.07l-1.24,2.32h-1.67l1.49-2.66c-.34-.17-.59-.39-.77-.68-.18-.28-.27-.62-.27-1,0-.66.24-1.15.72-1.49.48-.34,1.17-.51,2.06-.51h2.28Zm-1.54,3.04v-1.99h-.77c-.78,0-1.18.32-1.18.97,0,.34.09.6.28.77.18.17.48.25.88.25h.79Z"/>
      </g>
      <g>
        <path class="cls-1" d="m671.13,81.71v8.29h-1.58v-7.03h-2.92v7.03h-1.58v-8.29h6.08Z"/>
        <path class="cls-1" d="m678.39,84.35c.38.58.58,1.4.58,2.46,0,.66-.1,1.24-.29,1.75-.2.51-.48.91-.86,1.19s-.83.43-1.35.43c-.67,0-1.2-.23-1.6-.7v2.96l-1.54.17v-8.96h1.34l.08.78c.25-.32.53-.56.85-.72s.66-.24,1.01-.24c.8,0,1.39.29,1.78.88Zm-1.03,2.47c0-.78-.1-1.34-.3-1.68-.2-.34-.5-.52-.9-.52-.26,0-.5.08-.72.23-.22.16-.42.37-.58.63v2.86c.3.44.68.66,1.16.66.89,0,1.33-.73,1.33-2.18Z"/>
        <path class="cls-1" d="m685.46,88.87c.08.12.2.21.37.27l-.32,1.02c-.36-.03-.65-.12-.88-.26-.23-.14-.4-.36-.52-.66-.22.32-.49.56-.81.71-.32.16-.69.23-1.09.23-.63,0-1.13-.18-1.5-.54-.37-.36-.55-.83-.55-1.42,0-.69.25-1.21.75-1.58.5-.36,1.21-.55,2.14-.55h.79v-.36c0-.41-.09-.69-.28-.86-.19-.16-.49-.25-.91-.25-.46,0-1.02.11-1.68.34l-.36-1.04c.79-.3,1.56-.46,2.3-.46,1.62,0,2.44.73,2.44,2.18v2.66c0,.25.04.43.11.55Zm-1.63-.58v-1.28h-.64c-.99,0-1.49.37-1.49,1.1,0,.3.08.54.23.71.15.17.38.25.67.25.52,0,.93-.26,1.22-.78Z"/>
        <path class="cls-1" d="m692.79,88.06c0,.66-.25,1.14-.75,1.46s-1.17.48-2.02.48h-2.51v-6.28c.86-.17,1.63-.25,2.32-.25.82,0,1.47.15,1.94.44s.71.72.71,1.28c0,.36-.11.65-.34.88s-.55.38-.98.46c1.09.12,1.63.63,1.63,1.52Zm-3.74-3.48v1.61h.91c.66,0,1-.28,1-.85s-.38-.82-1.14-.82c-.22,0-.47.02-.77.06Zm2.15,3.38c0-.3-.09-.51-.28-.65-.18-.14-.49-.21-.91-.21h-.96v1.84h.94c.81,0,1.21-.32,1.21-.97Z"/>
        <path class="cls-1" d="m699.44,83.65v6.35h-1.54v-5.18h-1.55l-.16,1.7c-.08.9-.18,1.57-.29,2.02-.11.45-.3.79-.56,1.04s-.66.43-1.19.57l-.38-1.14c.26-.11.45-.24.57-.38.12-.14.2-.36.25-.67.05-.3.11-.82.16-1.55l.22-2.76h4.46Z"/>
        <path class="cls-1" d="m706.76,87.3h-3.98c.05.62.21,1.06.48,1.32.27.26.63.4,1.08.4.28,0,.54-.05.79-.14.25-.09.51-.23.79-.43l.64.88c-.7.57-1.49.85-2.35.85-.97,0-1.71-.3-2.24-.89-.52-.59-.79-1.4-.79-2.42,0-.65.11-1.23.34-1.75s.55-.92.97-1.21c.42-.29.93-.44,1.51-.44.89,0,1.58.28,2.06.85.49.56.73,1.35.73,2.36,0,.08-.01.29-.04.62Zm-1.49-1.07c0-1.11-.41-1.67-1.24-1.67-.38,0-.67.14-.88.41-.21.28-.34.72-.38,1.33h2.5v-.07Z"/>
        <path class="cls-1" d="m712.16,90v-2.65h-2.15v2.65h-1.54v-6.35h1.54v2.53h2.15v-2.53h1.54v6.35h-1.54Z"/>
        <path class="cls-1" d="m721.13,90h-1.48v-2.54c0-.46.02-.9.06-1.31s.08-.72.13-.93l-2.36,4.79h-1.64v-6.35h1.49v2.54c0,.44-.02.88-.07,1.31s-.09.74-.14.92l2.34-4.78h1.67v6.35Z"/>
        <path class="cls-1" d="m728.45,87.3h-3.98c.05.62.21,1.06.48,1.32.27.26.63.4,1.08.4.28,0,.54-.05.79-.14.25-.09.51-.23.79-.43l.64.88c-.7.57-1.49.85-2.35.85-.97,0-1.71-.3-2.24-.89-.52-.59-.79-1.4-.79-2.42,0-.65.11-1.23.34-1.75s.55-.92.97-1.21c.42-.29.93-.44,1.51-.44.89,0,1.58.28,2.06.85.49.56.73,1.35.73,2.36,0,.08-.01.29-.04.62Zm-1.49-1.07c0-1.11-.41-1.67-1.24-1.67-.38,0-.67.14-.88.41-.21.28-.34.72-.38,1.33h2.5v-.07Z"/>
      </g>
      <g>
        <path class="cls-1" d="m671,146.89v8.29h-1.58v-7.03h-2.92v7.03h-1.58v-8.29h6.08Z"/>
        <path class="cls-1" d="m678.26,149.53c.38.58.58,1.4.58,2.46,0,.66-.1,1.24-.29,1.75-.2.51-.48.91-.86,1.19s-.83.43-1.35.43c-.67,0-1.2-.23-1.6-.7v2.96l-1.54.17v-8.96h1.34l.08.78c.25-.32.53-.56.85-.72s.66-.24,1.01-.24c.8,0,1.39.29,1.78.88Zm-1.03,2.47c0-.78-.1-1.34-.3-1.68-.2-.34-.5-.52-.9-.52-.26,0-.5.08-.72.23-.22.16-.42.37-.58.63v2.86c.3.44.68.66,1.16.66.89,0,1.33-.73,1.33-2.18Z"/>
        <path class="cls-1" d="m685.82,152.48h-3.98c.05.62.21,1.06.48,1.32.27.26.63.4,1.08.4.28,0,.54-.05.79-.14.25-.09.51-.23.79-.43l.64.88c-.7.57-1.49.85-2.35.85-.97,0-1.71-.3-2.24-.89-.52-.59-.79-1.4-.79-2.42,0-.65.11-1.23.34-1.75.22-.52.55-.92.97-1.21s.93-.44,1.51-.44c.89,0,1.58.28,2.06.85.49.56.73,1.35.73,2.36,0,.08-.01.29-.04.62Zm-1.49-1.07c0-1.11-.41-1.67-1.24-1.67-.38,0-.67.14-.88.41s-.34.72-.38,1.33h2.5v-.07Z"/>
        <path class="cls-1" d="m690.75,149.12c.46.31.69.74.69,1.27,0,.36-.11.65-.33.88-.22.23-.56.4-1.01.51.56.09.98.25,1.25.5.28.24.41.59.41,1.05,0,.66-.26,1.16-.79,1.51-.52.35-1.21.52-2.05.52-.98,0-1.83-.26-2.53-.78l.76-.89c.28.18.55.32.82.4.26.08.56.13.9.13.86,0,1.28-.32,1.28-.95,0-.57-.45-.85-1.36-.85h-.92l.1-1.06h.7c.38,0,.67-.07.89-.21s.32-.35.32-.64c0-.26-.09-.46-.28-.58-.19-.12-.44-.18-.75-.18s-.57.04-.8.12c-.23.08-.47.2-.71.36l-.71-.85c.34-.25.7-.43,1.09-.55.39-.12.83-.18,1.32-.18.68,0,1.25.16,1.71.47Z"/>
        <path class="cls-1" d="m698.81,155.18h-1.48v-2.54c0-.46.02-.9.06-1.31s.08-.72.13-.93l-2.36,4.79h-1.64v-6.35h1.49v2.54c0,.44-.02.88-.07,1.31-.04.43-.09.74-.14.92l2.34-4.78h1.67v6.35Z"/>
        <path class="cls-1" d="m706.43,154.02v3.06h-1.12l-.2-1.9h-3.76l-.2,1.9h-1.12v-3.06h.42c.17-.11.3-.25.4-.41.1-.16.19-.44.28-.83.08-.39.15-.96.21-1.69l.17-2.24h4.26v5.18h.66Zm-2.14-4.1h-1.44l-.08,1.01c-.06.69-.12,1.23-.2,1.62-.08.39-.19.7-.32.92-.14.22-.32.41-.56.56h2.62v-4.1Z"/>
        <path class="cls-1" d="m713.22,155.18h-1.48v-2.54c0-.46.02-.9.06-1.31s.08-.72.13-.93l-2.36,4.79h-1.64v-6.35h1.49v2.54c0,.44-.02.88-.07,1.31s-.09.74-.14.92l2.34-4.78h1.67v6.35Z"/>
        <path class="cls-1" d="m718.44,155.21c-.26.78-.64,1.39-1.16,1.83-.52.44-1.23.69-2.14.76l-.16-1.12c.42-.06.75-.15,1-.27.25-.12.45-.27.61-.46.15-.19.29-.45.42-.77h-.53l-2.02-6.35h1.63l1.38,5.33,1.44-5.33h1.58l-2.06,6.37Z"/>
        <path class="cls-1" d="m728.28,155.18h-1.46l-.2-2.6c-.03-.38-.05-.8-.05-1.25,0-.19,0-.56.02-1.1l-1.21,4.28h-1.33l-1.16-4.28c.02.44.04.87.04,1.28,0,.25,0,.6-.02,1.07l-.17,2.6h-1.46l.55-6.35h1.87l1.03,4.3,1.12-4.3h1.88l.56,6.35Z"/>
        <path class="cls-1" d="m670.96,161.29v8.29h-1.58v-7.03h-2.92v7.03h-1.58v-8.29h6.08Z"/>
        <path class="cls-1" d="m678.22,163.93c.38.58.58,1.4.58,2.46,0,.66-.1,1.24-.29,1.75-.2.51-.48.91-.86,1.19s-.83.43-1.35.43c-.67,0-1.2-.23-1.6-.7v2.96l-1.54.17v-8.96h1.34l.08.78c.25-.32.53-.56.85-.72s.66-.24,1.01-.24c.8,0,1.39.29,1.78.88Zm-1.03,2.47c0-.78-.1-1.34-.3-1.68-.2-.34-.5-.52-.9-.52-.26,0-.5.08-.72.23-.22.16-.42.37-.58.63v2.86c.3.44.68.66,1.16.66.89,0,1.33-.73,1.33-2.18Z"/>
        <path class="cls-1" d="m685.29,168.45c.08.12.2.21.37.27l-.32,1.02c-.36-.03-.65-.12-.88-.26-.23-.14-.4-.36-.52-.66-.22.32-.49.56-.81.71-.32.16-.69.23-1.09.23-.63,0-1.13-.18-1.5-.54-.37-.36-.55-.83-.55-1.42,0-.69.25-1.21.75-1.58.5-.36,1.21-.55,2.14-.55h.79v-.36c0-.41-.09-.69-.28-.86-.19-.16-.49-.25-.91-.25-.46,0-1.02.11-1.68.34l-.36-1.04c.79-.3,1.56-.46,2.3-.46,1.62,0,2.44.73,2.44,2.18v2.66c0,.25.04.43.11.55Zm-1.63-.58v-1.28h-.64c-.99,0-1.49.37-1.49,1.1,0,.3.08.54.23.71.15.17.38.25.67.25.52,0,.93-.26,1.22-.78Z"/>
        <path class="cls-1" d="m692.62,167.64c0,.66-.25,1.14-.75,1.46s-1.17.48-2.02.48h-2.51v-6.28c.86-.17,1.63-.25,2.32-.25.82,0,1.47.15,1.94.44s.71.72.71,1.28c0,.36-.11.65-.34.88s-.55.38-.98.46c1.09.12,1.63.63,1.63,1.52Zm-3.74-3.48v1.61h.91c.66,0,1-.28,1-.85s-.38-.82-1.14-.82c-.22,0-.47.02-.77.06Zm2.15,3.38c0-.3-.09-.51-.28-.65-.18-.14-.49-.21-.91-.21h-.96v1.84h.94c.81,0,1.21-.32,1.21-.97Z"/>
        <path class="cls-1" d="m699.27,163.23v6.35h-1.54v-5.18h-1.55l-.16,1.7c-.08.9-.18,1.57-.29,2.02-.11.45-.3.79-.56,1.04s-.66.43-1.19.57l-.38-1.14c.26-.11.45-.24.57-.38.12-.14.2-.36.25-.67.05-.3.11-.82.16-1.55l.22-2.76h4.46Z"/>
        <path class="cls-1" d="m706.59,166.88h-3.98c.05.62.21,1.06.48,1.32.27.26.63.4,1.08.4.28,0,.54-.05.79-.14.25-.09.51-.23.79-.43l.64.88c-.7.57-1.49.85-2.35.85-.97,0-1.71-.3-2.24-.89-.52-.59-.79-1.4-.79-2.42,0-.65.11-1.23.34-1.75s.55-.92.97-1.21c.42-.29.93-.44,1.51-.44.89,0,1.58.28,2.06.85.49.56.73,1.35.73,2.36,0,.08-.01.29-.04.62Zm-1.49-1.07c0-1.11-.41-1.67-1.24-1.67-.38,0-.67.14-.88.41-.21.28-.34.72-.38,1.33h2.5v-.07Z"/>
        <path class="cls-1" d="m711.99,169.58v-2.65h-2.15v2.65h-1.54v-6.35h1.54v2.53h2.15v-2.53h1.54v6.35h-1.54Z"/>
        <path class="cls-1" d="m720.96,169.58h-1.48v-2.54c0-.46.02-.9.06-1.31s.08-.72.13-.93l-2.36,4.79h-1.64v-6.35h1.49v2.54c0,.44-.02.88-.07,1.31s-.09.74-.14.92l2.34-4.78h1.67v6.35Z"/>
        <path class="cls-1" d="m727.91,163.23v6.35h-1.54v-2.32h-1.07l-1.24,2.32h-1.67l1.49-2.66c-.34-.17-.59-.39-.77-.68-.18-.28-.27-.62-.27-1,0-.66.24-1.15.72-1.49.48-.34,1.17-.51,2.06-.51h2.28Zm-1.54,3.04v-1.99h-.77c-.78,0-1.18.32-1.18.97,0,.34.09.6.28.77.18.17.48.25.88.25h.79Z"/>
      </g>
      <g>
        <path class="cls-1" d="m659.8,230.19l.88-.84c.25.25.52.44.81.57.29.13.61.19.96.19.49,0,.87-.12,1.15-.36.27-.24.41-.57.41-1s-.14-.76-.41-.99c-.27-.23-.68-.35-1.22-.35h-.82l.19-1.18h.65c.43,0,.77-.1,1.01-.32.25-.21.37-.5.37-.86,0-.33-.1-.59-.3-.8-.2-.21-.5-.31-.92-.31-.6,0-1.19.24-1.77.71l-.76-.84c.77-.71,1.67-1.06,2.71-1.06.56,0,1.05.09,1.45.28s.7.44.91.76.31.68.31,1.09c0,.49-.15.9-.45,1.23-.3.33-.73.55-1.27.67.59.06,1.08.27,1.44.61.37.34.55.82.55,1.42,0,.5-.13.94-.4,1.32s-.63.68-1.11.89c-.47.21-1.01.32-1.62.32-1.14,0-2.06-.38-2.75-1.14Z"/>
        <path class="cls-1" d="m672.07,230.03c.08.12.2.2.36.27l-.32,1.01c-.36-.03-.65-.12-.88-.26-.23-.14-.4-.36-.52-.66-.21.32-.48.55-.8.71-.32.16-.68.23-1.08.23-.63,0-1.12-.18-1.49-.54-.36-.36-.55-.83-.55-1.4,0-.68.25-1.2.74-1.57.5-.36,1.2-.54,2.12-.54h.79v-.36c0-.4-.09-.69-.28-.85-.19-.16-.49-.24-.9-.24-.46,0-1.02.11-1.67.33l-.36-1.04c.79-.3,1.55-.45,2.28-.45,1.61,0,2.42.72,2.42,2.17v2.64c0,.25.04.43.11.54Zm-1.61-.58v-1.27h-.63c-.98,0-1.48.37-1.48,1.09,0,.3.08.54.23.7.15.17.37.25.67.25.52,0,.92-.26,1.21-.77Z"/>
        <path class="cls-1" d="m680.66,231.15h-1.45l-.2-2.58c-.03-.38-.05-.79-.05-1.24,0-.19,0-.56.02-1.09l-1.2,4.25h-1.32l-1.15-4.25c.02.44.04.86.04,1.27,0,.25,0,.6-.02,1.06l-.17,2.58h-1.45l.55-6.29h1.86l1.02,4.26,1.11-4.26h1.87l.56,6.29Z"/>
        <path class="cls-1" d="m687.51,228.47h-3.95c.05.61.21,1.05.48,1.31s.63.39,1.07.39c.28,0,.54-.05.79-.14s.51-.23.79-.42l.63.87c-.7.56-1.48.84-2.33.84-.96,0-1.7-.29-2.22-.88-.52-.59-.78-1.39-.78-2.4,0-.64.11-1.22.33-1.73.22-.51.54-.91.96-1.2.42-.29.92-.43,1.5-.43.88,0,1.56.28,2.05.84.48.56.73,1.34.73,2.34,0,.08-.01.29-.04.62Zm-1.48-1.06c0-1.1-.41-1.65-1.23-1.65-.37,0-.67.14-.88.41-.21.27-.33.71-.38,1.31h2.48v-.07Z"/>
        <path class="cls-1" d="m692.86,224.86c.33.12.64.31.93.56l-.68.92c-.21-.16-.42-.27-.62-.34s-.42-.11-.65-.11c-.94,0-1.42.72-1.42,2.15,0,.73.12,1.25.37,1.58s.6.48,1.05.48c.22,0,.43-.04.61-.11s.41-.19.66-.34l.68.96c-.59.48-1.27.73-2.04.73-.6,0-1.13-.13-1.57-.4s-.79-.64-1.02-1.14-.36-1.07-.36-1.74.12-1.26.36-1.77.58-.91,1.02-1.19.96-.42,1.56-.42c.41,0,.78.06,1.11.18Z"/>
        <path class="cls-1" d="m699.83,224.86l-.19,1.17h-1.84v5.13h-1.52v-5.13h-1.95v-1.17h5.51Z"/>
        <path class="cls-1" d="m706.25,231.15h-1.46v-2.52c0-.46.02-.89.06-1.3.04-.41.08-.72.13-.92l-2.34,4.75h-1.63v-6.29h1.48v2.52c0,.44-.02.87-.07,1.3-.04.43-.09.73-.14.92l2.32-4.74h1.65v6.29Z"/>
        <path class="cls-1" d="m713.01,224.86l-.19,1.17h-1.84v5.13h-1.52v-5.13h-1.95v-1.17h5.51Z"/>
        <path class="cls-1" d="m719.02,228.47h-3.95c.05.61.21,1.05.48,1.31s.63.39,1.07.39c.28,0,.54-.05.79-.14s.51-.23.79-.42l.63.87c-.7.56-1.48.84-2.33.84-.96,0-1.7-.29-2.22-.88-.52-.59-.78-1.39-.78-2.4,0-.64.11-1.22.33-1.73.22-.51.54-.91.96-1.2.42-.29.92-.43,1.5-.43.88,0,1.56.28,2.05.84.48.56.73,1.34.73,2.34,0,.08-.01.29-.04.62Zm-1.48-1.06c0-1.1-.41-1.65-1.23-1.65-.37,0-.66.14-.87.41-.21.27-.34.71-.38,1.31h2.48v-.07Z"/>
        <path class="cls-1" d="m725.59,224.86v6.29h-1.52v-5.14h-1.54l-.15,1.69c-.08.89-.17,1.56-.29,2s-.29.79-.55,1.03-.65.43-1.18.56l-.38-1.13c.26-.11.45-.24.57-.38s.2-.36.25-.66.1-.81.16-1.54l.21-2.74h4.43Z"/>
        <path class="cls-1" d="m732.02,227.4c.45.37.68.9.68,1.6s-.24,1.24-.73,1.61c-.48.36-1.1.55-1.86.55h-2.39v-6.29h1.52v1.99h.62c.98,0,1.7.18,2.15.55Zm-.9,1.58c0-.37-.1-.65-.29-.83-.19-.18-.52-.27-.98-.27h-.61v2.21h.71c.77,0,1.15-.37,1.15-1.12Z"/>
        <path class="cls-1" d="m662.82,237.21v8.22h-1.57v-6.97h-2.89v6.97h-1.57v-8.22h6.03Z"/>
        <path class="cls-1" d="m670.02,239.83c.38.58.57,1.39.57,2.44,0,.65-.1,1.23-.29,1.73-.19.5-.48.9-.86,1.18-.38.29-.82.43-1.34.43-.67,0-1.19-.23-1.58-.69v2.94l-1.52.17v-8.89h1.33l.08.77c.25-.32.53-.56.84-.71.32-.16.65-.24,1-.24.79,0,1.38.29,1.76.87Zm-1.02,2.45c0-.77-.1-1.33-.3-1.67-.2-.34-.5-.51-.89-.51-.25,0-.49.08-.71.23-.22.16-.41.36-.57.62v2.83c.29.44.68.65,1.15.65.88,0,1.32-.72,1.32-2.17Z"/>
        <path class="cls-1" d="m677.51,242.75h-3.95c.05.61.21,1.05.48,1.31s.63.39,1.07.39c.28,0,.54-.05.79-.14.25-.09.51-.23.79-.42l.63.87c-.7.56-1.48.85-2.33.85-.96,0-1.7-.29-2.22-.88s-.78-1.39-.78-2.4c0-.64.11-1.22.33-1.73.22-.51.54-.91.96-1.2.42-.29.92-.43,1.5-.43.88,0,1.56.28,2.05.84.48.56.73,1.34.73,2.34,0,.08-.01.29-.04.62Zm-1.48-1.06c0-1.1-.41-1.65-1.23-1.65-.37,0-.67.14-.88.41s-.33.71-.38,1.32h2.48v-.07Z"/>
        <path class="cls-1" d="m684.52,244.28v3.03h-1.11l-.2-1.88h-3.72l-.2,1.88h-1.11v-3.03h.42c.17-.11.3-.25.4-.41.1-.16.19-.44.27-.83.08-.39.15-.95.21-1.68l.17-2.22h4.22v5.14h.65Zm-2.12-4.07h-1.43l-.08,1c-.06.68-.12,1.22-.2,1.61-.08.39-.19.69-.32.91-.13.22-.32.4-.56.55h2.59v-4.07Z"/>
        <path class="cls-1" d="m689.62,239.14c.33.12.64.3.93.56l-.68.92c-.21-.16-.42-.27-.62-.35s-.42-.11-.65-.11c-.94,0-1.42.72-1.42,2.15,0,.73.12,1.26.37,1.58.25.32.59.48,1.05.48.22,0,.43-.04.61-.11.19-.07.41-.19.66-.35l.68.96c-.59.48-1.27.73-2.03.73-.6,0-1.13-.13-1.57-.4s-.79-.64-1.02-1.14c-.24-.49-.36-1.07-.36-1.74s.12-1.25.36-1.77c.24-.51.58-.91,1.02-1.19.44-.28.96-.42,1.56-.42.41,0,.78.06,1.11.18Z"/>
        <path class="cls-1" d="m696.85,242.75h-3.95c.05.61.21,1.05.48,1.31s.63.39,1.07.39c.28,0,.54-.05.79-.14.25-.09.51-.23.79-.42l.63.87c-.7.56-1.48.85-2.33.85-.96,0-1.7-.29-2.22-.88s-.78-1.39-.78-2.4c0-.64.11-1.22.33-1.73.22-.51.54-.91.96-1.2.42-.29.92-.43,1.5-.43.88,0,1.56.28,2.05.84.48.56.73,1.34.73,2.34,0,.08-.01.29-.04.62Zm-1.48-1.06c0-1.1-.41-1.65-1.23-1.65-.37,0-.66.14-.87.41-.21.27-.34.71-.38,1.32h2.48v-.07Z"/>
        <path class="cls-1" d="m703.86,244.28v3.03h-1.11l-.2-1.88h-3.72l-.2,1.88h-1.11v-3.03h.42c.17-.11.3-.25.4-.41.1-.16.19-.44.27-.83.08-.39.15-.95.21-1.68l.17-2.22h4.22v5.14h.65Zm-2.12-4.07h-1.43l-.08,1c-.06.68-.12,1.22-.2,1.61-.08.39-.19.69-.32.91-.13.22-.32.4-.56.55h2.59v-4.07Z"/>
        <path class="cls-1" d="m710.11,244.31c.08.12.2.2.36.27l-.32,1.01c-.36-.03-.65-.12-.88-.26-.23-.14-.4-.36-.52-.65-.21.32-.48.55-.8.71s-.68.23-1.08.23c-.63,0-1.12-.18-1.49-.54-.37-.36-.55-.83-.55-1.4,0-.68.25-1.2.74-1.56.5-.36,1.2-.54,2.12-.54h.79v-.36c0-.4-.09-.69-.28-.85-.19-.16-.49-.24-.9-.24-.46,0-1.02.11-1.67.33l-.36-1.04c.79-.3,1.55-.45,2.29-.45,1.61,0,2.42.72,2.42,2.17v2.64c0,.25.04.43.11.54Zm-1.61-.58v-1.27h-.63c-.98,0-1.48.37-1.48,1.09,0,.3.08.54.23.7.15.17.37.25.67.25.52,0,.92-.26,1.21-.77Z"/>
        <path class="cls-1" d="m716.53,239.14l-.19,1.17h-1.84v5.13h-1.52v-5.13h-1.95v-1.17h5.51Z"/>
        <path class="cls-1" d="m722.54,242.75h-3.95c.05.61.21,1.05.48,1.31s.63.39,1.07.39c.28,0,.54-.05.79-.14.25-.09.51-.23.79-.42l.63.87c-.7.56-1.48.85-2.33.85-.96,0-1.7-.29-2.22-.88s-.78-1.39-.78-2.4c0-.64.11-1.22.33-1.73.22-.51.54-.91.96-1.2.42-.29.92-.43,1.5-.43.88,0,1.56.28,2.05.84.48.56.73,1.34.73,2.34,0,.08-.01.29-.04.62Zm-1.48-1.06c0-1.1-.41-1.65-1.23-1.65-.37,0-.66.14-.87.41-.21.27-.34.71-.38,1.32h2.48v-.07Z"/>
        <path class="cls-1" d="m729.11,239.14v6.29h-1.52v-5.14h-1.54l-.15,1.69c-.08.89-.17,1.55-.29,2s-.29.79-.55,1.03-.65.43-1.18.57l-.38-1.13c.26-.11.45-.24.57-.38.12-.14.2-.36.25-.66.05-.3.1-.81.16-1.54l.21-2.74h4.43Z"/>
        <path class="cls-1" d="m736,239.14v6.29h-1.52v-2.3h-1.06l-1.23,2.3h-1.65l1.48-2.64c-.33-.17-.59-.39-.77-.67-.18-.28-.27-.61-.27-.99,0-.65.24-1.14.71-1.48.48-.34,1.16-.5,2.05-.5h2.26Zm-1.52,3.01v-1.98h-.76c-.78,0-1.17.32-1.17.96,0,.34.09.59.27.76.18.17.47.25.87.25h.79Z"/>
      </g>
      <g>
        <path class="cls-1" d="m160.49,230.36l.89-.85c.26.26.53.45.82.58.29.13.61.19.97.19.5,0,.88-.12,1.16-.36.28-.24.41-.58.41-1.01s-.14-.77-.41-1-.69-.35-1.23-.35h-.83l.19-1.19h.66c.43,0,.77-.11,1.02-.32.25-.21.37-.5.37-.87,0-.33-.1-.6-.3-.8-.2-.21-.51-.31-.92-.31-.6,0-1.2.24-1.79.72l-.77-.85c.78-.71,1.69-1.07,2.74-1.07.57,0,1.05.09,1.46.28.4.19.71.44.92.77.21.32.31.69.31,1.1,0,.5-.15.91-.46,1.24-.3.33-.73.55-1.28.67.6.06,1.08.27,1.45.62.37.35.55.83.55,1.43,0,.5-.13.95-.4,1.33-.27.38-.64.68-1.12.89s-1.02.32-1.64.32c-1.15,0-2.08-.38-2.77-1.15Z"/>
        <path class="cls-1" d="m172.87,230.2c.08.12.2.21.37.27l-.32,1.02c-.36-.03-.65-.12-.88-.26-.23-.14-.4-.36-.52-.66-.22.32-.49.56-.81.71-.32.16-.69.23-1.09.23-.63,0-1.13-.18-1.5-.54-.37-.36-.55-.83-.55-1.42,0-.69.25-1.21.75-1.58s1.21-.55,2.14-.55h.79v-.36c0-.41-.09-.69-.28-.86-.19-.16-.49-.25-.91-.25-.46,0-1.02.11-1.68.34l-.36-1.04c.79-.3,1.56-.46,2.3-.46,1.62,0,2.44.73,2.44,2.18v2.66c0,.25.04.43.11.55Zm-1.63-.58v-1.28h-.64c-.99,0-1.49.37-1.49,1.1,0,.3.08.54.23.71s.38.25.67.25c.52,0,.93-.26,1.22-.78Z"/>
        <path class="cls-1" d="m181.52,231.33h-1.46l-.2-2.6c-.03-.38-.05-.8-.05-1.25,0-.19,0-.56.02-1.1l-1.21,4.28h-1.33l-1.16-4.28c.02.44.04.87.04,1.28,0,.25,0,.6-.02,1.07l-.17,2.6h-1.46l.55-6.35h1.87l1.03,4.3,1.12-4.3h1.88l.56,6.35Z"/>
        <path class="cls-1" d="m188.44,228.63h-3.98c.05.62.21,1.06.48,1.32s.63.4,1.08.4c.28,0,.54-.05.79-.14.25-.09.51-.23.79-.43l.64.88c-.7.57-1.49.85-2.35.85-.97,0-1.71-.3-2.24-.89-.52-.59-.79-1.4-.79-2.42,0-.65.11-1.23.34-1.75.22-.52.55-.92.97-1.21.42-.29.93-.44,1.51-.44.89,0,1.58.28,2.06.85.49.56.73,1.35.73,2.36,0,.08-.01.29-.04.62Zm-1.49-1.07c0-1.11-.41-1.67-1.24-1.67-.38,0-.67.14-.88.41-.21.28-.34.72-.38,1.33h2.5v-.07Z"/>
        <path class="cls-1" d="m193.83,224.98c.33.12.65.31.94.56l-.68.92c-.22-.16-.42-.28-.62-.35-.2-.07-.42-.11-.66-.11-.95,0-1.43.72-1.43,2.17,0,.74.12,1.27.37,1.59s.6.49,1.06.49c.22,0,.43-.04.62-.11s.41-.19.67-.35l.68.97c-.6.49-1.28.73-2.05.73-.61,0-1.14-.13-1.58-.4-.45-.27-.79-.65-1.03-1.15-.24-.5-.36-1.08-.36-1.75s.12-1.27.36-1.78c.24-.52.58-.92,1.03-1.2.45-.28.97-.43,1.57-.43.42,0,.79.06,1.12.18Z"/>
        <path class="cls-1" d="m200.86,224.98l-.19,1.18h-1.86v5.17h-1.54v-5.17h-1.97v-1.18h5.56Z"/>
        <path class="cls-1" d="m207.34,231.33h-1.48v-2.54c0-.46.02-.9.06-1.31s.08-.72.13-.93l-2.36,4.79h-1.64v-6.35h1.49v2.54c0,.44-.02.88-.07,1.31-.04.43-.09.74-.14.92l2.34-4.78h1.67v6.35Z"/>
        <path class="cls-1" d="m214.15,224.98l-.19,1.18h-1.86v5.17h-1.54v-5.17h-1.97v-1.18h5.56Z"/>
        <path class="cls-1" d="m220.21,228.63h-3.98c.05.62.21,1.06.48,1.32s.63.4,1.08.4c.28,0,.54-.05.79-.14.25-.09.51-.23.79-.43l.64.88c-.7.57-1.49.85-2.35.85-.97,0-1.71-.3-2.24-.89-.52-.59-.79-1.4-.79-2.42,0-.65.11-1.23.34-1.75.22-.52.55-.92.97-1.21.42-.29.93-.44,1.51-.44.89,0,1.58.28,2.06.85.49.56.73,1.35.73,2.36,0,.08-.01.29-.04.62Zm-1.49-1.07c0-1.11-.41-1.67-1.24-1.67-.38,0-.67.14-.88.41-.21.28-.34.72-.38,1.33h2.5v-.07Z"/>
        <path class="cls-1" d="m226.84,224.98v6.35h-1.54v-5.18h-1.55l-.16,1.7c-.08.9-.18,1.57-.29,2.02-.11.45-.3.79-.56,1.04-.26.24-.66.43-1.19.57l-.38-1.14c.26-.11.45-.24.57-.38.12-.14.2-.36.25-.67.05-.3.11-.82.16-1.55l.22-2.76h4.46Z"/>
        <path class="cls-1" d="m233.32,227.54c.46.37.68.91.68,1.61s-.24,1.25-.73,1.62c-.49.37-1.11.55-1.87.55h-2.41v-6.35h1.54v2h.62c.99,0,1.72.19,2.17.56Zm-.91,1.59c0-.38-.1-.65-.29-.83-.19-.18-.52-.27-.98-.27h-.61v2.23h.72c.78,0,1.16-.38,1.16-1.13Z"/>
        <path class="cls-1" d="m163.54,237.44v8.29h-1.58v-7.03h-2.92v7.03h-1.58v-8.29h6.08Z"/>
        <path class="cls-1" d="m170.8,240.08c.38.58.58,1.4.58,2.46,0,.66-.1,1.24-.29,1.75-.2.51-.48.91-.86,1.19s-.83.43-1.35.43c-.67,0-1.2-.23-1.6-.7v2.96l-1.54.17v-8.96h1.34l.08.78c.25-.32.53-.56.85-.72.32-.16.66-.24,1.01-.24.8,0,1.39.29,1.78.88Zm-1.03,2.47c0-.78-.1-1.34-.3-1.68-.2-.34-.5-.52-.9-.52-.26,0-.5.08-.72.23-.22.16-.42.37-.58.63v2.86c.3.44.68.66,1.16.66.89,0,1.33-.73,1.33-2.18Z"/>
        <path class="cls-1" d="m178.36,243.03h-3.98c.05.62.21,1.06.48,1.32.27.26.63.4,1.08.4.28,0,.54-.05.79-.14s.51-.23.79-.43l.64.88c-.7.57-1.49.85-2.35.85-.97,0-1.71-.3-2.24-.89s-.79-1.4-.79-2.42c0-.65.11-1.23.34-1.75.22-.52.55-.92.97-1.21.42-.29.93-.44,1.51-.44.89,0,1.58.28,2.06.85.49.56.73,1.35.73,2.36,0,.08-.01.29-.04.62Zm-1.49-1.07c0-1.11-.41-1.67-1.24-1.67-.38,0-.67.14-.88.41-.21.28-.34.72-.38,1.33h2.5v-.07Z"/>
        <path class="cls-1" d="m185.42,244.57v3.06h-1.12l-.2-1.9h-3.76l-.2,1.9h-1.12v-3.06h.42c.17-.11.3-.25.4-.41s.19-.44.28-.83.15-.96.21-1.69l.17-2.24h4.26v5.18h.66Zm-2.14-4.1h-1.44l-.08,1.01c-.06.69-.12,1.23-.2,1.62-.08.39-.19.7-.32.92-.14.22-.32.41-.56.56h2.62v-4.1Z"/>
        <path class="cls-1" d="m190.57,239.38c.33.12.65.31.94.56l-.68.92c-.22-.16-.42-.28-.62-.35-.2-.07-.42-.11-.66-.11-.95,0-1.43.72-1.43,2.17,0,.74.12,1.27.37,1.59.25.32.6.49,1.06.49.22,0,.43-.04.62-.11.19-.07.41-.19.67-.35l.68.97c-.6.49-1.28.73-2.05.73-.61,0-1.14-.13-1.58-.4-.45-.27-.79-.65-1.03-1.15-.24-.5-.36-1.08-.36-1.75s.12-1.27.36-1.78c.24-.52.58-.92,1.03-1.2.45-.28.97-.43,1.57-.43.42,0,.79.06,1.12.18Z"/>
        <path class="cls-1" d="m197.86,243.03h-3.98c.05.62.21,1.06.48,1.32.27.26.63.4,1.08.4.28,0,.54-.05.79-.14s.51-.23.79-.43l.64.88c-.7.57-1.49.85-2.35.85-.97,0-1.71-.3-2.24-.89s-.79-1.4-.79-2.42c0-.65.11-1.23.34-1.75.22-.52.55-.92.97-1.21.42-.29.93-.44,1.51-.44.89,0,1.58.28,2.06.85.49.56.73,1.35.73,2.36,0,.08-.01.29-.04.62Zm-1.49-1.07c0-1.11-.41-1.67-1.24-1.67-.38,0-.67.14-.88.41-.21.28-.34.72-.38,1.33h2.5v-.07Z"/>
        <path class="cls-1" d="m204.92,244.57v3.06h-1.12l-.2-1.9h-3.76l-.2,1.9h-1.12v-3.06h.42c.17-.11.3-.25.4-.41s.19-.44.28-.83.15-.96.21-1.69l.17-2.24h4.26v5.18h.66Zm-2.14-4.1h-1.44l-.08,1.01c-.06.69-.12,1.23-.2,1.62-.08.39-.19.7-.32.92-.14.22-.32.41-.56.56h2.62v-4.1Z"/>
        <path class="cls-1" d="m211.23,244.6c.08.12.2.21.37.27l-.32,1.02c-.36-.03-.65-.12-.88-.26-.23-.14-.4-.36-.52-.66-.22.32-.49.56-.81.71-.32.16-.69.23-1.09.23-.63,0-1.13-.18-1.5-.54-.37-.36-.55-.83-.55-1.42,0-.69.25-1.21.75-1.58.5-.36,1.21-.55,2.14-.55h.79v-.36c0-.41-.09-.69-.28-.86s-.49-.25-.91-.25c-.46,0-1.02.11-1.68.34l-.36-1.04c.79-.3,1.56-.46,2.3-.46,1.62,0,2.44.73,2.44,2.18v2.66c0,.25.04.43.11.55Zm-1.63-.58v-1.28h-.64c-.99,0-1.49.37-1.49,1.1,0,.3.08.54.23.71s.38.25.67.25c.52,0,.93-.26,1.22-.78Z"/>
        <path class="cls-1" d="m217.7,239.38l-.19,1.18h-1.86v5.17h-1.54v-5.17h-1.97v-1.18h5.56Z"/>
        <path class="cls-1" d="m223.76,243.03h-3.98c.05.62.21,1.06.48,1.32.27.26.63.4,1.08.4.28,0,.54-.05.79-.14s.51-.23.79-.43l.64.88c-.7.57-1.49.85-2.35.85-.97,0-1.71-.3-2.24-.89s-.79-1.4-.79-2.42c0-.65.11-1.23.34-1.75.22-.52.55-.92.97-1.21.42-.29.93-.44,1.51-.44.89,0,1.58.28,2.06.85.49.56.73,1.35.73,2.36,0,.08-.01.29-.04.62Zm-1.49-1.07c0-1.11-.41-1.67-1.24-1.67-.38,0-.67.14-.88.41-.21.28-.34.72-.38,1.33h2.5v-.07Z"/>
        <path class="cls-1" d="m230.39,239.38v6.35h-1.54v-5.18h-1.55l-.16,1.7c-.08.9-.18,1.57-.29,2.02-.11.45-.3.79-.56,1.04-.26.24-.66.43-1.19.57l-.38-1.14c.26-.11.45-.24.57-.38.12-.14.2-.36.25-.67.05-.3.11-.82.16-1.55l.22-2.76h4.46Z"/>
        <path class="cls-1" d="m237.34,239.38v6.35h-1.54v-2.32h-1.07l-1.24,2.32h-1.67l1.49-2.66c-.34-.17-.59-.39-.77-.68-.18-.28-.27-.62-.27-1,0-.66.24-1.15.72-1.49s1.17-.51,2.06-.51h2.28Zm-1.54,3.04v-1.99h-.77c-.78,0-1.18.32-1.18.97,0,.34.09.6.28.77s.48.25.88.25h.79Z"/>
      </g>
      <g>
        <path class="cls-1" d="m408.24,235.99v8.29h-1.58v-7.03h-2.92v7.03h-1.58v-8.29h6.08Z"/>
        <path class="cls-1" d="m415.5,238.63c.38.58.58,1.4.58,2.46,0,.66-.1,1.24-.29,1.75-.2.51-.48.91-.86,1.19s-.83.43-1.35.43c-.67,0-1.2-.23-1.6-.7v2.96l-1.54.17v-8.96h1.34l.08.78c.25-.32.53-.56.85-.72.32-.16.66-.24,1.01-.24.8,0,1.39.29,1.78.88Zm-1.03,2.47c0-.78-.1-1.34-.3-1.68-.2-.34-.5-.52-.9-.52-.26,0-.5.08-.72.23-.22.16-.42.37-.58.63v2.86c.3.44.68.66,1.16.66.89,0,1.33-.73,1.33-2.18Z"/>
        <path class="cls-1" d="m423.06,241.58h-3.98c.05.62.21,1.06.48,1.32s.63.4,1.08.4c.28,0,.54-.05.79-.14.25-.09.51-.23.79-.43l.64.88c-.7.57-1.49.85-2.35.85-.97,0-1.71-.3-2.24-.89-.52-.59-.79-1.4-.79-2.42,0-.65.11-1.23.34-1.75.22-.52.55-.92.97-1.21.42-.29.93-.44,1.51-.44.89,0,1.58.28,2.06.85.49.56.73,1.35.73,2.36,0,.08-.01.29-.04.62Zm-1.49-1.07c0-1.11-.41-1.67-1.24-1.67-.38,0-.67.14-.88.41-.21.28-.34.72-.38,1.33h2.5v-.07Z"/>
        <path class="cls-1" d="m428.45,237.94c.33.12.65.31.94.56l-.68.92c-.22-.16-.42-.28-.62-.35-.2-.07-.42-.11-.66-.11-.95,0-1.43.72-1.43,2.17,0,.74.12,1.27.37,1.59s.6.49,1.06.49c.22,0,.43-.04.62-.11s.41-.19.67-.35l.68.97c-.6.49-1.28.73-2.05.73-.61,0-1.14-.13-1.58-.4-.45-.27-.79-.65-1.03-1.15-.24-.5-.36-1.08-.36-1.75s.12-1.27.36-1.78c.24-.52.58-.92,1.03-1.2.45-.28.97-.43,1.57-.43.42,0,.79.06,1.12.18Z"/>
        <path class="cls-1" d="m434.25,237.94c.33.12.65.31.94.56l-.68.92c-.22-.16-.42-.28-.62-.35-.2-.07-.42-.11-.66-.11-.95,0-1.43.72-1.43,2.17,0,.74.12,1.27.37,1.59s.6.49,1.06.49c.22,0,.43-.04.62-.11s.41-.19.67-.35l.68.97c-.6.49-1.28.73-2.05.73-.61,0-1.14-.13-1.58-.4-.45-.27-.79-.65-1.03-1.15-.24-.5-.36-1.08-.36-1.75s.12-1.27.36-1.78c.24-.52.58-.92,1.03-1.2.45-.28.97-.43,1.57-.43.42,0,.79.06,1.12.18Z"/>
        <path class="cls-1" d="m435.83,241.14v-1.22h3.62v1.22h-3.62Z"/>
        <path class="cls-1" d="m444.96,237.94c.33.12.65.31.94.56l-.68.92c-.22-.16-.42-.28-.62-.35-.2-.07-.42-.11-.66-.11-.95,0-1.43.72-1.43,2.17,0,.74.12,1.27.37,1.59s.6.49,1.06.49c.22,0,.43-.04.62-.11.19-.07.41-.19.67-.35l.68.97c-.6.49-1.28.73-2.05.73-.61,0-1.14-.13-1.58-.4-.45-.27-.79-.65-1.03-1.15-.24-.5-.36-1.08-.36-1.75s.12-1.27.36-1.78c.24-.52.58-.92,1.03-1.2.45-.28.97-.43,1.57-.43.42,0,.79.06,1.12.18Z"/>
        <path class="cls-1" d="m452.35,237.94v6.35h-1.54v-5.18h-1.55l-.16,1.7c-.08.9-.18,1.57-.29,2.02s-.3.79-.56,1.04c-.26.24-.66.43-1.19.57l-.38-1.14c.26-.11.45-.24.57-.38.12-.14.2-.36.25-.67.05-.3.11-.82.16-1.55l.22-2.76h4.46Z"/>
        <path class="cls-1" d="m457.57,244.31c-.26.78-.64,1.39-1.16,1.83-.52.44-1.23.69-2.14.76l-.16-1.12c.42-.06.75-.15,1-.27.25-.12.45-.27.61-.46.15-.19.29-.45.42-.77h-.53l-2.02-6.35h1.63l1.38,5.33,1.44-5.33h1.58l-2.06,6.37Z"/>
        <path class="cls-1" d="m468.5,237.94l-1.51,2.96,1.7,3.38h-1.61l-1.32-2.78h-.7v2.78h-1.38v-2.78h-.68l-1.33,2.78h-1.58l1.69-3.38-1.51-2.96h1.5l1.21,2.54h.71v-2.54h1.38v2.54h.72l1.22-2.54h1.49Z"/>
        <path class="cls-1" d="m474.3,238.7c.36.23.64.57.85,1.01.2.44.31.97.31,1.58,0,.66-.12,1.22-.37,1.7-.24.48-.59.84-1.03,1.09-.44.25-.95.38-1.54.38-.9,0-1.62-.31-2.15-.92-.53-.61-.8-1.54-.8-2.79,0-.92.07-1.68.22-2.27.15-.59.41-1.08.77-1.46.37-.38.88-.68,1.55-.89.49-.16.87-.3,1.15-.43.28-.12.58-.29.91-.49l.59,1.03c-.28.18-.58.35-.89.49-.31.14-.69.28-1.13.43-.37.12-.66.26-.88.42-.22.16-.39.39-.52.68s-.22.69-.26,1.18c.47-.73,1.14-1.09,1.99-1.09.46,0,.86.12,1.22.35Zm-.82,4.16c.24-.29.35-.8.35-1.52,0-.66-.1-1.13-.29-1.41-.19-.28-.48-.41-.86-.41-.3,0-.57.08-.83.24s-.48.4-.65.73v.8c0,.66.12,1.15.35,1.49.23.34.56.51.97.51s.73-.15.97-.44Z"/>
        <path class="cls-1" d="m481.88,243.15c.08.12.2.21.37.27l-.32,1.02c-.36-.03-.65-.12-.88-.26-.23-.14-.4-.36-.52-.66-.22.32-.49.56-.81.71s-.69.23-1.09.23c-.63,0-1.13-.18-1.5-.54-.37-.36-.55-.83-.55-1.42,0-.69.25-1.21.75-1.58s1.21-.55,2.14-.55h.79v-.36c0-.41-.09-.69-.28-.86-.19-.16-.49-.25-.91-.25-.46,0-1.02.11-1.68.34l-.36-1.04c.79-.3,1.56-.46,2.3-.46,1.62,0,2.44.73,2.44,2.18v2.66c0,.25.04.43.11.55Zm-1.63-.58v-1.28h-.64c-.99,0-1.49.37-1.49,1.1,0,.3.08.54.23.71.15.17.38.25.67.25.52,0,.93-.26,1.22-.78Z"/>
      </g>
      <g>
        <path class="cls-1" d="m26.78,310.55v8.29h-1.58v-7.03h-2.92v7.03h-1.58v-8.29h6.08Z"/>
        <path class="cls-1" d="m34.04,313.19c.38.58.58,1.4.58,2.46,0,.66-.1,1.24-.29,1.75-.2.51-.48.91-.86,1.19s-.83.43-1.35.43c-.67,0-1.2-.23-1.6-.7v2.96l-1.54.17v-8.96h1.34l.08.78c.25-.32.53-.56.85-.72.32-.16.66-.24,1.01-.24.8,0,1.39.29,1.78.88Zm-1.03,2.47c0-.78-.1-1.34-.3-1.68-.2-.34-.5-.52-.9-.52-.26,0-.5.08-.72.23-.22.16-.42.37-.58.63v2.86c.3.44.68.66,1.16.66.89,0,1.33-.73,1.33-2.18Z"/>
        <path class="cls-1" d="m41.6,316.14h-3.98c.05.62.21,1.06.48,1.32s.63.4,1.08.4c.28,0,.54-.05.79-.14.25-.09.51-.23.79-.43l.64.88c-.7.57-1.49.85-2.35.85-.97,0-1.71-.3-2.24-.89-.52-.59-.79-1.4-.79-2.42,0-.65.11-1.23.34-1.75.22-.52.55-.92.97-1.21.42-.29.93-.44,1.51-.44.89,0,1.58.28,2.06.85.49.56.73,1.35.73,2.36,0,.08-.01.29-.04.62Zm-1.49-1.07c0-1.11-.41-1.67-1.24-1.67-.38,0-.67.14-.88.41-.21.28-.34.72-.38,1.33h2.5v-.07Z"/>
        <path class="cls-1" d="m48.66,317.68v3.06h-1.12l-.2-1.9h-3.76l-.2,1.9h-1.12v-3.06h.42c.17-.11.3-.25.4-.41.1-.16.19-.44.28-.83.08-.39.15-.96.21-1.69l.17-2.24h4.26v5.18h.66Zm-2.14-4.1h-1.44l-.08,1.01c-.06.69-.12,1.23-.2,1.62-.08.39-.19.7-.32.92-.14.22-.32.41-.56.56h2.62v-4.1Z"/>
        <path class="cls-1" d="m53.81,312.49c.33.12.65.31.94.56l-.68.92c-.22-.16-.42-.28-.62-.35-.2-.07-.42-.11-.66-.11-.95,0-1.43.72-1.43,2.17,0,.74.12,1.27.37,1.59s.6.49,1.06.49c.22,0,.43-.04.62-.11s.41-.19.67-.35l.68.97c-.6.49-1.28.73-2.05.73-.61,0-1.14-.13-1.58-.4-.45-.27-.79-.65-1.03-1.15-.24-.5-.36-1.08-.36-1.75s.12-1.27.36-1.78c.24-.52.58-.92,1.03-1.2.45-.28.97-.43,1.57-.43.42,0,.79.06,1.12.18Z"/>
        <path class="cls-1" d="m60.83,312.49l-.19,1.18h-1.86v5.17h-1.54v-5.17h-1.97v-1.18h5.56Z"/>
        <path class="cls-1" d="m66.35,317.71c.08.12.2.21.37.27l-.32,1.02c-.36-.03-.65-.12-.88-.26-.23-.14-.4-.36-.52-.66-.22.32-.49.56-.81.71-.32.16-.69.23-1.09.23-.63,0-1.13-.18-1.5-.54-.37-.36-.55-.83-.55-1.42,0-.69.25-1.21.75-1.58s1.21-.55,2.14-.55h.79v-.36c0-.41-.09-.69-.28-.86-.19-.16-.49-.25-.91-.25-.46,0-1.02.11-1.68.34l-.36-1.04c.79-.3,1.56-.46,2.3-.46,1.62,0,2.44.73,2.44,2.18v2.66c0,.25.04.43.11.55Zm-1.63-.58v-1.28h-.64c-.99,0-1.49.37-1.49,1.1,0,.3.08.54.23.71s.38.25.67.25c.52,0,.93-.26,1.22-.78Z"/>
        <path class="cls-1" d="m73.67,316.9c0,.66-.25,1.14-.75,1.46-.5.32-1.17.48-2.02.48h-2.51v-6.28c.86-.17,1.63-.25,2.32-.25.82,0,1.47.15,1.94.44.47.3.71.72.71,1.28,0,.36-.11.65-.34.88-.22.22-.55.38-.98.46,1.09.12,1.63.63,1.63,1.52Zm-3.74-3.48v1.61h.91c.66,0,1-.28,1-.85s-.38-.82-1.14-.82c-.22,0-.47.02-.77.06Zm2.15,3.38c0-.3-.09-.51-.28-.65-.18-.14-.49-.21-.91-.21h-.96v1.84h.94c.81,0,1.21-.32,1.21-.97Z"/>
        <path class="cls-1" d="m80.7,318.84h-1.48v-2.54c0-.46.02-.9.06-1.31s.08-.72.13-.93l-2.36,4.79h-1.64v-6.35h1.49v2.54c0,.44-.02.88-.07,1.31-.04.43-.09.74-.14.92l2.34-4.78h1.67v6.35Z"/>
        <path class="cls-1" d="m87.52,312.49l-.19,1.18h-1.86v5.17h-1.54v-5.17h-1.97v-1.18h5.56Z"/>
        <path class="cls-1" d="m93.58,316.14h-3.98c.05.62.21,1.06.48,1.32s.63.4,1.08.4c.28,0,.54-.05.79-.14.25-.09.51-.23.79-.43l.64.88c-.7.57-1.49.85-2.35.85-.97,0-1.71-.3-2.24-.89-.52-.59-.79-1.4-.79-2.42,0-.65.11-1.23.34-1.75.22-.52.55-.92.97-1.21.42-.29.93-.44,1.51-.44.89,0,1.58.28,2.06.85.49.56.73,1.35.73,2.36,0,.08-.01.29-.04.62Zm-1.49-1.07c0-1.11-.41-1.67-1.24-1.67-.38,0-.67.14-.88.41-.21.28-.34.72-.38,1.33h2.5v-.07Z"/>
        <path class="cls-1" d="m100.2,312.49v6.35h-1.54v-5.18h-1.55l-.16,1.7c-.08.9-.18,1.57-.29,2.02-.11.45-.3.79-.56,1.04-.26.24-.66.43-1.19.57l-.38-1.14c.26-.11.45-.24.57-.38.12-.14.2-.36.25-.67.05-.3.11-.82.16-1.55l.22-2.76h4.46Z"/>
        <path class="cls-1" d="m106.68,315.05c.46.37.68.91.68,1.61s-.24,1.25-.73,1.62c-.49.37-1.11.55-1.87.55h-2.41v-6.35h1.54v2h.62c.99,0,1.72.19,2.17.56Zm-.91,1.59c0-.38-.1-.65-.29-.83-.19-.18-.52-.27-.98-.27h-.61v2.23h.72c.78,0,1.16-.38,1.16-1.13Z"/>
        <path class="cls-1" d="m112.56,312.49c.33.12.65.31.94.56l-.68.92c-.22-.16-.42-.28-.62-.35-.2-.07-.42-.11-.66-.11-.95,0-1.43.72-1.43,2.17,0,.74.12,1.27.37,1.59s.6.49,1.06.49c.22,0,.43-.04.62-.11s.41-.19.67-.35l.68.97c-.6.49-1.28.73-2.05.73-.61,0-1.14-.13-1.58-.4-.45-.27-.79-.65-1.03-1.15-.24-.5-.36-1.08-.36-1.75s.12-1.27.36-1.78c.24-.52.58-.92,1.03-1.2.45-.28.97-.43,1.57-.43.42,0,.79.06,1.12.18Z"/>
        <path class="cls-1" d="m119.58,312.49l-.19,1.18h-1.86v5.17h-1.54v-5.17h-1.97v-1.18h5.56Z"/>
        <path class="cls-1" d="m126.05,316.9c0,.66-.25,1.14-.75,1.46-.5.32-1.17.48-2.02.48h-2.51v-6.28c.86-.17,1.63-.25,2.32-.25.82,0,1.47.15,1.94.44.47.3.71.72.71,1.28,0,.36-.11.65-.34.88-.22.22-.55.38-.98.46,1.09.12,1.63.63,1.63,1.52Zm-3.74-3.48v1.61h.91c.66,0,1-.28,1-.85s-.38-.82-1.14-.82c-.22,0-.47.02-.77.06Zm2.15,3.38c0-.3-.09-.51-.28-.65-.18-.14-.49-.21-.91-.21h-.96v1.84h.94c.81,0,1.21-.32,1.21-.97Z"/>
        <path class="cls-1" d="m132.48,317.71c.08.12.2.21.37.27l-.32,1.02c-.36-.03-.65-.12-.88-.26-.23-.14-.4-.36-.52-.66-.22.32-.49.56-.81.71-.32.16-.69.23-1.09.23-.63,0-1.13-.18-1.5-.54-.37-.36-.55-.83-.55-1.42,0-.69.25-1.21.75-1.58s1.21-.55,2.14-.55h.79v-.36c0-.41-.09-.69-.28-.86-.19-.16-.49-.25-.91-.25-.46,0-1.02.11-1.68.34l-.36-1.04c.79-.3,1.56-.46,2.3-.46,1.62,0,2.44.73,2.44,2.18v2.66c0,.25.04.43.11.55Zm-1.63-.58v-1.28h-.64c-.99,0-1.49.37-1.49,1.1,0,.3.08.54.23.71s.38.25.67.25c.52,0,.93-.26,1.22-.78Z"/>
        <path class="cls-1" d="m50.05,331.3c0,.66-.25,1.14-.75,1.46-.5.32-1.17.48-2.02.48h-2.51v-6.28c.86-.17,1.63-.25,2.32-.25.82,0,1.47.15,1.94.44.47.3.71.72.71,1.28,0,.36-.11.65-.34.88-.22.22-.55.38-.98.46,1.09.12,1.63.63,1.63,1.52Zm-3.74-3.48v1.61h.91c.66,0,1-.28,1-.85s-.38-.82-1.14-.82c-.22,0-.47.02-.77.06Zm2.15,3.38c0-.3-.09-.51-.28-.65-.18-.14-.49-.21-.91-.21h-.96v1.84h.94c.81,0,1.21-.32,1.21-.97Z"/>
        <path class="cls-1" d="m60.1,328.62c.56.43.85,1.07.85,1.92,0,.91-.29,1.59-.88,2.03-.58.44-1.37.67-2.36.67h-2.57v-8.29h4.87l-.17,1.24h-3.12v1.79h.98c1.03,0,1.83.22,2.39.65Zm-1.24,3.09c.28-.23.42-.61.42-1.15,0-.5-.14-.86-.41-1.09-.28-.23-.69-.35-1.24-.35h-.9v2.93h.94c.52,0,.92-.11,1.2-.34Z"/>
        <path class="cls-1" d="m67.62,330.54h-3.98c.05.62.21,1.06.48,1.32.27.26.63.4,1.08.4.28,0,.54-.05.79-.14s.51-.23.79-.43l.64.88c-.7.57-1.49.85-2.35.85-.97,0-1.71-.3-2.24-.89s-.79-1.4-.79-2.42c0-.65.11-1.23.34-1.75.22-.52.55-.92.97-1.21.42-.29.93-.44,1.51-.44.89,0,1.58.28,2.06.85.49.56.73,1.35.73,2.36,0,.08-.01.29-.04.62Zm-1.49-1.07c0-1.11-.41-1.67-1.24-1.67-.38,0-.67.14-.88.41-.21.28-.34.72-.38,1.33h2.5v-.07Z"/>
        <path class="cls-1" d="m74.24,326.89v6.35h-1.54v-5.18h-1.55l-.16,1.7c-.08.9-.18,1.57-.29,2.02-.11.45-.3.79-.56,1.04-.26.24-.66.43-1.19.57l-.38-1.14c.26-.11.45-.24.57-.38.12-.14.2-.36.25-.67.05-.3.11-.82.16-1.55l.22-2.76h4.46Z"/>
        <path class="cls-1" d="m81.2,332.11c.08.12.2.21.37.27l-.32,1.02c-.36-.03-.65-.12-.88-.26-.23-.14-.4-.36-.52-.66-.22.32-.49.56-.81.71-.32.16-.69.23-1.09.23-.63,0-1.13-.18-1.5-.54-.37-.36-.55-.83-.55-1.42,0-.69.25-1.21.75-1.58.5-.36,1.21-.55,2.14-.55h.79v-.36c0-.41-.09-.69-.28-.86s-.49-.25-.91-.25c-.46,0-1.02.11-1.68.34l-.36-1.04c.79-.3,1.56-.46,2.3-.46,1.62,0,2.44.73,2.44,2.18v2.66c0,.25.04.43.11.55Zm-1.63-.58v-1.28h-.64c-.99,0-1.49.37-1.49,1.1,0,.3.08.54.23.71s.38.25.67.25c.52,0,.93-.26,1.22-.78Z"/>
        <path class="cls-1" d="m88.31,327.59c.38.58.58,1.4.58,2.46,0,.66-.1,1.24-.29,1.75-.2.51-.48.91-.86,1.19s-.83.43-1.35.43c-.67,0-1.2-.23-1.6-.7v2.96l-1.54.17v-8.96h1.34l.08.78c.25-.32.53-.56.85-.72.32-.16.66-.24,1.01-.24.8,0,1.39.29,1.78.88Zm-1.03,2.47c0-.78-.1-1.34-.3-1.68-.2-.34-.5-.52-.9-.52-.26,0-.5.08-.72.23-.22.16-.42.37-.58.63v2.86c.3.44.68.66,1.16.66.89,0,1.33-.73,1.33-2.18Z"/>
        <path class="cls-1" d="m93.69,333.26c-.26.78-.64,1.39-1.16,1.83-.52.44-1.23.69-2.14.76l-.16-1.12c.42-.06.75-.15,1-.27s.45-.27.61-.46c.15-.19.29-.45.42-.77h-.53l-2.02-6.35h1.63l1.38,5.33,1.44-5.33h1.58l-2.06,6.37Z"/>
        <path class="cls-1" d="m100.6,326.89c.33.12.65.31.94.56l-.68.92c-.22-.16-.42-.28-.62-.35-.2-.07-.42-.11-.66-.11-.95,0-1.43.72-1.43,2.17,0,.74.12,1.27.37,1.59.25.32.6.49,1.06.49.22,0,.43-.04.62-.11.19-.07.41-.19.67-.35l.68.97c-.6.49-1.28.73-2.05.73-.61,0-1.14-.13-1.58-.4-.45-.27-.79-.65-1.03-1.15-.24-.5-.36-1.08-.36-1.75s.12-1.27.36-1.78c.24-.52.58-.92,1.03-1.2.45-.28.97-.43,1.57-.43.42,0,.79.06,1.12.18Z"/>
        <path class="cls-1" d="m108.25,333.24h-1.48v-2.54c0-.46.02-.9.06-1.31s.08-.72.13-.93l-2.36,4.79h-1.64v-6.35h1.49v2.54c0,.44-.02.88-.07,1.31-.04.43-.09.74-.14.92l2.34-4.78h1.67v6.35Z"/>
      </g>
      <g>
        <path class="cls-1" d="m758.78,310.56v8.29h-1.58v-7.03h-2.92v7.03h-1.58v-8.29h6.08Z"/>
        <path class="cls-1" d="m766.04,313.2c.38.58.58,1.4.58,2.46,0,.66-.1,1.24-.29,1.75-.2.51-.48.91-.86,1.19s-.83.43-1.35.43c-.67,0-1.2-.23-1.6-.7v2.96l-1.54.17v-8.96h1.34l.08.78c.25-.32.53-.56.85-.72s.66-.24,1.01-.24c.8,0,1.39.29,1.78.88Zm-1.03,2.47c0-.78-.1-1.34-.3-1.68s-.5-.52-.9-.52c-.26,0-.5.08-.72.23-.22.16-.42.37-.58.63v2.86c.3.44.68.66,1.16.66.89,0,1.33-.73,1.33-2.18Z"/>
        <path class="cls-1" d="m773.6,316.15h-3.98c.05.62.21,1.06.48,1.32.27.26.63.4,1.08.4.28,0,.54-.05.79-.14s.51-.23.79-.43l.64.88c-.7.57-1.49.85-2.35.85-.97,0-1.71-.3-2.24-.89-.52-.59-.79-1.4-.79-2.42,0-.65.11-1.23.34-1.75.22-.52.55-.92.97-1.21.42-.29.93-.44,1.51-.44.89,0,1.58.28,2.06.85.49.56.73,1.35.73,2.36,0,.08-.01.29-.04.62Zm-1.49-1.07c0-1.11-.41-1.67-1.24-1.67-.38,0-.67.14-.88.41-.21.28-.34.72-.38,1.33h2.5v-.07Z"/>
        <path class="cls-1" d="m780.66,317.69v3.06h-1.12l-.2-1.9h-3.76l-.2,1.9h-1.12v-3.06h.42c.17-.11.3-.25.4-.41.1-.16.19-.44.28-.83s.15-.96.21-1.69l.17-2.24h4.26v5.18h.66Zm-2.14-4.1h-1.44l-.08,1.01c-.06.69-.12,1.23-.2,1.62-.08.39-.19.7-.32.92-.14.22-.32.41-.56.56h2.62v-4.1Z"/>
        <path class="cls-1" d="m785.81,312.5c.33.12.65.31.94.56l-.68.92c-.22-.16-.42-.28-.62-.35-.2-.07-.42-.11-.66-.11-.95,0-1.43.72-1.43,2.17,0,.74.12,1.27.37,1.59.25.32.6.49,1.06.49.22,0,.43-.04.62-.11.19-.07.41-.19.67-.35l.68.97c-.6.49-1.28.73-2.05.73-.61,0-1.14-.13-1.58-.4-.45-.27-.79-.65-1.03-1.15s-.36-1.08-.36-1.75.12-1.27.36-1.78.58-.92,1.03-1.2c.45-.28.97-.43,1.57-.43.42,0,.79.06,1.12.18Z"/>
        <path class="cls-1" d="m792.83,312.5l-.19,1.18h-1.86v5.17h-1.54v-5.17h-1.97v-1.18h5.56Z"/>
        <path class="cls-1" d="m798.35,317.72c.08.12.2.21.37.27l-.32,1.02c-.36-.03-.65-.12-.88-.26-.23-.14-.4-.36-.52-.66-.22.32-.49.56-.81.71-.32.16-.69.23-1.09.23-.63,0-1.13-.18-1.5-.54s-.55-.83-.55-1.42c0-.69.25-1.21.75-1.58.5-.36,1.21-.55,2.14-.55h.79v-.36c0-.41-.09-.69-.28-.86-.19-.16-.49-.25-.91-.25-.46,0-1.02.11-1.68.34l-.36-1.04c.79-.3,1.56-.46,2.3-.46,1.62,0,2.44.73,2.44,2.18v2.66c0,.25.04.43.11.55Zm-1.63-.58v-1.28h-.64c-.99,0-1.49.37-1.49,1.1,0,.3.08.54.23.71.15.17.38.25.67.25.52,0,.93-.26,1.22-.78Z"/>
        <path class="cls-1" d="m805.67,316.91c0,.66-.25,1.14-.75,1.46-.5.32-1.17.48-2.02.48h-2.51v-6.28c.86-.17,1.63-.25,2.32-.25.82,0,1.47.15,1.94.44.47.3.71.72.71,1.28,0,.36-.11.65-.34.88-.22.22-.55.38-.98.46,1.09.12,1.63.63,1.63,1.52Zm-3.74-3.48v1.61h.91c.66,0,1-.28,1-.85s-.38-.82-1.14-.82c-.22,0-.47.02-.77.06Zm2.15,3.38c0-.3-.09-.51-.28-.65-.18-.14-.49-.21-.91-.21h-.96v1.84h.94c.81,0,1.21-.32,1.21-.97Z"/>
        <path class="cls-1" d="m812.7,318.85h-1.48v-2.54c0-.46.02-.9.06-1.31s.08-.72.13-.93l-2.36,4.79h-1.64v-6.35h1.49v2.54c0,.44-.02.88-.07,1.31-.04.43-.09.74-.14.92l2.34-4.78h1.67v6.35Z"/>
        <path class="cls-1" d="m819.52,312.5l-.19,1.18h-1.86v5.17h-1.54v-5.17h-1.97v-1.18h5.56Z"/>
        <path class="cls-1" d="m825.58,316.15h-3.98c.05.62.21,1.06.48,1.32.27.26.63.4,1.08.4.28,0,.54-.05.79-.14s.51-.23.79-.43l.64.88c-.7.57-1.49.85-2.35.85-.97,0-1.71-.3-2.24-.89-.52-.59-.79-1.4-.79-2.42,0-.65.11-1.23.34-1.75.22-.52.55-.92.97-1.21s.93-.44,1.51-.44c.89,0,1.58.28,2.06.85.49.56.73,1.35.73,2.36,0,.08-.01.29-.04.62Zm-1.49-1.07c0-1.11-.41-1.67-1.24-1.67-.38,0-.67.14-.88.41-.21.28-.34.72-.38,1.33h2.5v-.07Z"/>
        <path class="cls-1" d="m832.2,312.5v6.35h-1.54v-5.18h-1.55l-.16,1.7c-.08.9-.18,1.57-.29,2.02-.11.45-.3.79-.56,1.04-.26.24-.66.43-1.19.57l-.38-1.14c.26-.11.45-.24.57-.38s.2-.36.25-.67c.05-.3.11-.82.16-1.55l.22-2.76h4.46Z"/>
        <path class="cls-1" d="m838.68,315.07c.46.37.68.91.68,1.61s-.24,1.25-.73,1.62c-.49.37-1.11.55-1.87.55h-2.41v-6.35h1.54v2h.62c.99,0,1.72.19,2.17.56Zm-.91,1.59c0-.38-.1-.65-.29-.83s-.52-.27-.98-.27h-.61v2.23h.72c.78,0,1.16-.38,1.16-1.13Z"/>
        <path class="cls-1" d="m844.56,312.5c.33.12.65.31.94.56l-.68.92c-.22-.16-.42-.28-.62-.35-.2-.07-.42-.11-.66-.11-.95,0-1.43.72-1.43,2.17,0,.74.12,1.27.37,1.59.25.32.6.49,1.06.49.22,0,.43-.04.62-.11.19-.07.41-.19.67-.35l.68.97c-.6.49-1.28.73-2.05.73-.61,0-1.14-.13-1.58-.4-.45-.27-.79-.65-1.03-1.15s-.36-1.08-.36-1.75.12-1.27.36-1.78.58-.92,1.03-1.2c.45-.28.97-.43,1.57-.43.42,0,.79.06,1.12.18Z"/>
        <path class="cls-1" d="m851.58,312.5l-.19,1.18h-1.86v5.17h-1.54v-5.17h-1.97v-1.18h5.56Z"/>
        <path class="cls-1" d="m858.05,316.91c0,.66-.25,1.14-.75,1.46-.5.32-1.17.48-2.02.48h-2.51v-6.28c.86-.17,1.63-.25,2.32-.25.82,0,1.47.15,1.94.44s.71.72.71,1.28c0,.36-.11.65-.34.88-.22.22-.55.38-.98.46,1.09.12,1.63.63,1.63,1.52Zm-3.74-3.48v1.61h.91c.66,0,1-.28,1-.85s-.38-.82-1.14-.82c-.22,0-.47.02-.77.06Zm2.15,3.38c0-.3-.09-.51-.28-.65-.18-.14-.49-.21-.91-.21h-.96v1.84h.94c.81,0,1.21-.32,1.21-.97Z"/>
        <path class="cls-1" d="m864.48,317.72c.08.12.2.21.37.27l-.32,1.02c-.36-.03-.65-.12-.88-.26-.23-.14-.4-.36-.52-.66-.22.32-.49.56-.81.71-.32.16-.69.23-1.09.23-.63,0-1.13-.18-1.5-.54s-.55-.83-.55-1.42c0-.69.25-1.21.75-1.58.5-.36,1.21-.55,2.14-.55h.79v-.36c0-.41-.09-.69-.28-.86-.19-.16-.49-.25-.91-.25-.46,0-1.02.11-1.68.34l-.36-1.04c.79-.3,1.56-.46,2.3-.46,1.62,0,2.44.73,2.44,2.18v2.66c0,.25.04.43.11.55Zm-1.63-.58v-1.28h-.64c-.99,0-1.49.37-1.49,1.1,0,.3.08.54.23.71.15.17.38.25.67.25.52,0,.93-.26,1.22-.78Z"/>
        <path class="cls-1" d="m782.05,331.31c0,.66-.25,1.14-.75,1.46-.5.32-1.17.48-2.02.48h-2.51v-6.28c.86-.17,1.63-.25,2.32-.25.82,0,1.47.15,1.94.44.47.3.71.72.71,1.28,0,.36-.11.65-.34.88s-.55.38-.98.46c1.09.12,1.63.63,1.63,1.52Zm-3.74-3.48v1.61h.91c.66,0,1-.28,1-.85s-.38-.82-1.14-.82c-.22,0-.47.02-.77.06Zm2.15,3.38c0-.3-.09-.51-.28-.65-.18-.14-.49-.21-.91-.21h-.96v1.84h.94c.81,0,1.21-.32,1.21-.97Z"/>
        <path class="cls-1" d="m792.1,328.63c.56.43.85,1.07.85,1.92,0,.91-.29,1.59-.88,2.03-.58.44-1.37.67-2.36.67h-2.57v-8.29h4.87l-.17,1.24h-3.12v1.79h.98c1.03,0,1.83.22,2.39.65Zm-1.24,3.09c.28-.23.42-.61.42-1.15,0-.5-.14-.86-.41-1.09-.28-.23-.69-.35-1.24-.35h-.9v2.93h.94c.52,0,.92-.11,1.2-.34Z"/>
        <path class="cls-1" d="m799.62,330.55h-3.98c.05.62.21,1.06.48,1.32.27.26.63.4,1.08.4.28,0,.54-.05.79-.14.25-.09.51-.23.79-.43l.64.88c-.7.57-1.49.85-2.35.85-.97,0-1.71-.3-2.24-.89-.52-.59-.79-1.4-.79-2.42,0-.65.11-1.23.34-1.75.22-.52.55-.92.97-1.21s.93-.44,1.51-.44c.89,0,1.58.28,2.06.85.49.56.73,1.35.73,2.36,0,.08-.01.29-.04.62Zm-1.49-1.07c0-1.11-.41-1.67-1.24-1.67-.38,0-.67.14-.88.41-.21.28-.34.72-.38,1.33h2.5v-.07Z"/>
        <path class="cls-1" d="m806.24,326.91v6.35h-1.54v-5.18h-1.55l-.16,1.7c-.08.9-.18,1.57-.29,2.02s-.3.79-.56,1.04c-.26.24-.66.43-1.19.57l-.38-1.14c.26-.11.45-.24.57-.38.12-.14.2-.36.25-.67.05-.3.11-.82.16-1.55l.22-2.76h4.46Z"/>
        <path class="cls-1" d="m813.2,332.12c.08.12.2.21.37.27l-.32,1.02c-.36-.03-.65-.12-.88-.26-.23-.14-.4-.36-.52-.66-.22.32-.49.56-.81.71-.32.16-.69.23-1.09.23-.63,0-1.13-.18-1.5-.54-.37-.36-.55-.83-.55-1.42,0-.69.25-1.21.75-1.58s1.21-.55,2.14-.55h.79v-.36c0-.41-.09-.69-.28-.86-.19-.16-.49-.25-.91-.25-.46,0-1.02.11-1.68.34l-.36-1.04c.79-.3,1.56-.46,2.3-.46,1.62,0,2.44.73,2.44,2.18v2.66c0,.25.04.43.11.55Zm-1.63-.58v-1.28h-.64c-.99,0-1.49.37-1.49,1.1,0,.3.08.54.23.71.15.17.38.25.67.25.52,0,.93-.26,1.22-.78Z"/>
        <path class="cls-1" d="m820.31,327.6c.38.58.58,1.4.58,2.46,0,.66-.1,1.24-.29,1.75-.2.51-.48.91-.86,1.19s-.83.43-1.35.43c-.67,0-1.2-.23-1.6-.7v2.96l-1.54.17v-8.96h1.34l.08.78c.25-.32.53-.56.85-.72.32-.16.66-.24,1.01-.24.8,0,1.39.29,1.78.88Zm-1.03,2.47c0-.78-.1-1.34-.3-1.68-.2-.34-.5-.52-.9-.52-.26,0-.5.08-.72.23s-.42.37-.58.63v2.86c.3.44.68.66,1.16.66.89,0,1.33-.73,1.33-2.18Z"/>
        <path class="cls-1" d="m825.69,333.28c-.26.78-.64,1.39-1.16,1.83-.52.44-1.23.69-2.14.76l-.16-1.12c.42-.06.75-.15,1-.27.25-.12.45-.27.61-.46.15-.19.29-.45.42-.77h-.53l-2.02-6.35h1.63l1.38,5.33,1.44-5.33h1.58l-2.06,6.37Z"/>
        <path class="cls-1" d="m832.6,326.91c.33.12.65.31.94.56l-.68.92c-.22-.16-.42-.28-.62-.35-.2-.07-.42-.11-.66-.11-.95,0-1.43.72-1.43,2.17,0,.74.12,1.27.37,1.59s.6.49,1.06.49c.22,0,.43-.04.62-.11.19-.07.41-.19.67-.35l.68.97c-.6.49-1.28.73-2.05.73-.61,0-1.14-.13-1.58-.4-.45-.27-.79-.65-1.03-1.15-.24-.5-.36-1.08-.36-1.75s.12-1.27.36-1.78c.24-.52.58-.92,1.03-1.2.45-.28.97-.43,1.57-.43.42,0,.79.06,1.12.18Z"/>
        <path class="cls-1" d="m840.25,333.25h-1.48v-2.54c0-.46.02-.9.06-1.31s.08-.72.13-.93l-2.36,4.79h-1.64v-6.35h1.49v2.54c0,.44-.02.88-.07,1.31-.04.43-.09.74-.14.92l2.34-4.78h1.67v6.35Z"/>
      </g>
      <g>
        <path class="cls-1" d="m538.27,310.6c.38.14.74.36,1.1.66l-.8.94c-.49-.39-1-.59-1.54-.59-.62,0-1.11.25-1.48.74-.37.5-.56,1.28-.56,2.34s.18,1.81.55,2.32c.37.5.86.76,1.49.76.33,0,.62-.06.88-.17.26-.12.53-.28.82-.5l.74.94c-.28.29-.63.53-1.06.72-.43.19-.91.29-1.43.29-.72,0-1.36-.17-1.91-.5-.55-.34-.98-.83-1.28-1.48-.3-.65-.46-1.44-.46-2.36s.16-1.68.47-2.33c.32-.65.75-1.14,1.3-1.48.55-.34,1.17-.5,1.85-.5.5,0,.94.07,1.32.22Z"/>
        <path class="cls-1" d="m545.78,316.15h-3.98c.05.62.21,1.06.48,1.32.27.26.63.4,1.08.4.28,0,.54-.05.79-.14s.51-.23.79-.43l.64.88c-.7.57-1.49.85-2.35.85-.97,0-1.71-.3-2.24-.89s-.79-1.4-.79-2.42c0-.65.11-1.23.34-1.75.22-.52.55-.92.97-1.21.42-.29.93-.44,1.51-.44.89,0,1.58.28,2.06.85.49.56.73,1.35.73,2.36,0,.08-.01.29-.04.62Zm-1.49-1.07c0-1.11-.41-1.67-1.24-1.67-.38,0-.67.14-.88.41-.21.28-.34.72-.38,1.33h2.5v-.07Z"/>
        <path class="cls-1" d="m552.76,312.5l-1.79,2.94,1.98,3.41h-1.69l-1.55-2.82h-.68v2.82h-1.54v-6.35h1.54v2.51h.72l1.48-2.51h1.54Z"/>
        <path class="cls-1" d="m558.88,312.5l-.19,1.18h-1.86v5.17h-1.54v-5.17h-1.97v-1.18h5.56Z"/>
        <path class="cls-1" d="m564.55,313.22c.52.6.79,1.41.79,2.45,0,.66-.12,1.25-.36,1.76-.24.51-.58.9-1.03,1.18-.45.28-.98.42-1.6.42-.94,0-1.67-.3-2.2-.89-.53-.6-.79-1.42-.79-2.47,0-.66.12-1.25.36-1.75s.59-.9,1.04-1.18c.45-.28.99-.42,1.6-.42.94,0,1.67.3,2.19.89Zm-3.57,2.45c0,.75.11,1.31.34,1.66.23.36.57.53,1.03.53s.8-.18,1.03-.54c.23-.36.34-.91.34-1.66s-.11-1.29-.34-1.65c-.23-.36-.57-.53-1.01-.53-.92,0-1.38.73-1.38,2.18Z"/>
        <path class="cls-1" d="m572.14,313.2c.38.58.58,1.4.58,2.46,0,.66-.1,1.24-.29,1.75-.2.51-.48.91-.86,1.19-.38.29-.83.43-1.35.43-.67,0-1.21-.23-1.6-.7v2.96l-1.54.17v-8.96h1.34l.08.78c.25-.32.53-.56.85-.72.32-.16.66-.24,1.01-.24.8,0,1.39.29,1.78.88Zm-1.03,2.47c0-.78-.1-1.34-.3-1.68-.2-.34-.5-.52-.9-.52-.26,0-.5.08-.72.23-.22.16-.42.37-.58.63v2.86c.3.44.68.66,1.16.66.89,0,1.33-.73,1.33-2.18Z"/>
        <path class="cls-1" d="m581.48,318.85v-5.17h-2.11v5.17h-1.54v-6.35h5.18v6.35h-1.54Z"/>
        <path class="cls-1" d="m589.94,313.22c.52.6.79,1.41.79,2.45,0,.66-.12,1.25-.36,1.76-.24.51-.58.9-1.03,1.18-.45.28-.98.42-1.6.42-.94,0-1.67-.3-2.2-.89-.53-.6-.79-1.42-.79-2.47,0-.66.12-1.25.36-1.75.24-.5.59-.9,1.04-1.18.45-.28.99-.42,1.6-.42.94,0,1.67.3,2.19.89Zm-3.57,2.45c0,.75.11,1.31.34,1.66.23.36.57.53,1.03.53s.8-.18,1.03-.54c.23-.36.34-.91.34-1.66s-.11-1.29-.34-1.65c-.23-.36-.57-.53-1.01-.53-.92,0-1.38.73-1.38,2.18Z"/>
        <path class="cls-1" d="m596.12,318.85v-5.17h-2.11v5.17h-1.54v-6.35h5.18v6.35h-1.54Z"/>
        <path class="cls-1" d="m602.87,318.88c-.26.78-.64,1.39-1.16,1.83-.52.44-1.23.69-2.14.76l-.16-1.12c.42-.06.75-.15,1-.27s.46-.27.61-.46c.15-.19.29-.45.42-.77h-.53l-2.02-6.35h1.63l1.38,5.33,1.44-5.33h1.58l-2.06,6.37Z"/>
        <path class="cls-1" d="m611.03,312.5v6.35h-1.54v-5.18h-1.55l-.16,1.7c-.08.9-.18,1.57-.29,2.02-.11.45-.3.79-.56,1.04-.26.24-.66.43-1.2.57l-.38-1.14c.26-.11.45-.24.57-.38s.2-.36.25-.67.11-.82.16-1.55l.22-2.76h4.46Z"/>
        <path class="cls-1" d="m617.98,312.5v6.35h-1.54v-2.32h-1.07l-1.24,2.32h-1.67l1.49-2.66c-.34-.17-.59-.39-.77-.68-.18-.28-.27-.62-.27-1,0-.66.24-1.15.72-1.49.48-.34,1.17-.51,2.06-.51h2.28Zm-1.54,3.04v-1.99h-.77c-.78,0-1.18.32-1.18.97,0,.34.09.6.28.77s.48.25.88.25h.79Z"/>
        <path class="cls-1" d="m625.19,313.2c.38.58.58,1.4.58,2.46,0,.66-.1,1.24-.29,1.75-.2.51-.48.91-.87,1.19-.38.29-.83.43-1.35.43-.67,0-1.2-.23-1.6-.7v2.96l-1.54.17v-8.96h1.34l.08.78c.25-.32.53-.56.85-.72s.66-.24,1.01-.24c.8,0,1.39.29,1.78.88Zm-1.03,2.47c0-.78-.1-1.34-.3-1.68-.2-.34-.5-.52-.9-.52-.26,0-.5.08-.72.23-.22.16-.42.37-.58.63v2.86c.3.44.68.66,1.16.66.89,0,1.33-.73,1.33-2.18Z"/>
        <path class="cls-1" d="m632.87,318.85h-1.48v-2.54c0-.46.02-.9.06-1.31s.08-.72.13-.93l-2.36,4.79h-1.64v-6.35h1.49v2.54c0,.44-.02.88-.07,1.31-.04.43-.09.74-.14.92l2.34-4.78h1.67v6.35Z"/>
        <path class="cls-1" d="m638.54,312.79c.46.31.69.74.69,1.27,0,.36-.11.65-.33.88-.22.23-.56.4-1.01.51.56.09.98.25,1.25.5.28.24.41.59.41,1.05,0,.66-.26,1.16-.79,1.51-.52.35-1.21.52-2.04.52-.98,0-1.83-.26-2.53-.78l.76-.89c.28.18.55.32.82.4.26.08.56.13.9.13.86,0,1.28-.32,1.28-.95,0-.57-.45-.85-1.36-.85h-.92l.1-1.06h.7c.38,0,.67-.07.89-.21.22-.14.32-.35.32-.64,0-.26-.09-.46-.28-.58-.19-.12-.44-.18-.75-.18s-.57.04-.8.12c-.23.08-.47.2-.71.36l-.71-.85c.34-.25.7-.43,1.09-.55.39-.12.83-.18,1.32-.18.68,0,1.25.16,1.71.47Z"/>
        <path class="cls-1" d="m645.99,317.72c.08.12.2.21.37.27l-.32,1.02c-.36-.03-.65-.12-.88-.26-.23-.14-.4-.36-.52-.66-.22.32-.49.56-.81.71-.32.16-.69.23-1.09.23-.63,0-1.13-.18-1.5-.54-.37-.36-.55-.83-.55-1.42,0-.69.25-1.21.75-1.58.5-.36,1.21-.55,2.14-.55h.79v-.36c0-.41-.09-.69-.28-.86s-.49-.25-.91-.25c-.46,0-1.02.11-1.68.34l-.36-1.04c.79-.3,1.56-.46,2.3-.46,1.62,0,2.44.73,2.44,2.18v2.66c0,.25.04.43.11.55Zm-1.63-.58v-1.28h-.64c-.99,0-1.49.37-1.49,1.1,0,.3.08.54.23.71.15.17.38.25.67.25.52,0,.93-.26,1.22-.78Z"/>
        <path class="cls-1" d="m653.16,317.69h.96v3.06h-1.12l-.2-1.9h-4.76v-6.35h1.54v5.17h2.05v-5.17h1.54v5.18Z"/>
        <path class="cls-1" d="m660.71,318.85h-1.48v-2.54c0-.46.02-.9.06-1.31s.08-.72.13-.93l-2.36,4.79h-1.64v-6.35h1.49v2.54c0,.44-.02.88-.07,1.31-.04.43-.09.74-.14.92l2.34-4.78h1.67v6.35Z"/>
        <path class="cls-1" d="m668.15,318.85h-1.48v-2.54c0-.46.02-.9.06-1.31s.08-.72.13-.93l-2.36,4.79h-1.64v-6.35h1.49v2.54c0,.44-.02.88-.07,1.31-.04.43-.09.74-.14.92l2.34-4.78h1.67v6.35Z"/>
        <path class="cls-1" d="m523.81,333.25v-5.17h-2.11v5.17h-1.54v-6.35h5.18v6.35h-1.54Z"/>
        <path class="cls-1" d="m532.66,330.55h-3.98c.05.62.21,1.06.48,1.32s.63.4,1.08.4c.28,0,.54-.05.79-.14.25-.09.51-.23.79-.43l.64.88c-.71.57-1.49.85-2.35.85-.97,0-1.71-.3-2.24-.89-.52-.59-.79-1.4-.79-2.42,0-.65.11-1.23.34-1.75.22-.52.55-.92.97-1.21s.93-.44,1.51-.44c.89,0,1.58.28,2.06.85.49.56.73,1.35.73,2.36,0,.08-.01.29-.04.62Zm-1.49-1.07c0-1.11-.41-1.67-1.24-1.67-.38,0-.67.14-.88.41-.21.28-.34.72-.38,1.33h2.5v-.07Z"/>
        <path class="cls-1" d="m539.73,332.09v3.06h-1.12l-.2-1.9h-3.76l-.2,1.9h-1.12v-3.06h.42c.17-.11.3-.25.4-.41.1-.16.19-.44.28-.83.08-.39.15-.96.21-1.69l.17-2.24h4.26v5.18h.66Zm-2.14-4.1h-1.44l-.08,1.01c-.06.69-.12,1.23-.2,1.62-.08.39-.19.7-.32.92-.14.22-.32.41-.56.56h2.62v-4.1Z"/>
        <path class="cls-1" d="m546.03,332.12c.08.12.2.21.37.27l-.32,1.02c-.36-.03-.65-.12-.88-.26-.23-.14-.4-.36-.52-.66-.22.32-.49.56-.81.71-.32.16-.69.23-1.09.23-.63,0-1.13-.18-1.5-.54-.37-.36-.55-.83-.55-1.42,0-.69.25-1.21.75-1.58s1.21-.55,2.14-.55h.79v-.36c0-.41-.09-.69-.28-.86-.19-.16-.49-.25-.91-.25-.46,0-1.02.11-1.68.34l-.36-1.04c.79-.3,1.56-.46,2.3-.46,1.62,0,2.44.73,2.44,2.18v2.66c0,.25.04.43.11.55Zm-1.63-.58v-1.28h-.64c-.99,0-1.49.37-1.49,1.1,0,.3.08.54.23.71.15.17.38.25.67.25.52,0,.93-.26,1.22-.78Z"/>
        <path class="cls-1" d="m549.62,333.25h-1.54v-6.35h4.25l-.18,1.2h-2.53v5.15Z"/>
        <path class="cls-1" d="m558.03,327.62c.52.6.79,1.41.79,2.45,0,.66-.12,1.25-.36,1.76-.24.51-.58.9-1.03,1.18-.45.28-.98.42-1.6.42-.94,0-1.67-.3-2.2-.89-.53-.6-.79-1.42-.79-2.47,0-.66.12-1.25.36-1.75.24-.5.59-.9,1.04-1.18.45-.28.99-.42,1.6-.42.94,0,1.67.3,2.19.89Zm-3.57,2.45c0,.75.11,1.31.34,1.66.23.36.57.53,1.03.53s.8-.18,1.03-.54c.23-.36.34-.91.34-1.66s-.11-1.29-.34-1.65c-.23-.36-.57-.53-1.01-.53-.92,0-1.38.73-1.38,2.18Z"/>
        <path class="cls-1" d="m562.1,333.25h-1.54v-6.35h4.25l-.18,1.2h-2.53v5.15Z"/>
        <path class="cls-1" d="m571.32,333.25h-1.48v-2.54c0-.46.02-.9.06-1.31s.08-.72.13-.93l-2.37,4.79h-1.64v-6.35h1.49v2.54c0,.44-.02.88-.07,1.31-.04.43-.09.74-.14.92l2.34-4.78h1.67v6.35Z"/>
        <path class="cls-1" d="m578.24,326.91v6.35h-1.54v-2.5c-.23.2-.51.36-.83.47-.32.11-.66.17-1,.17-.61,0-1.06-.17-1.37-.5-.3-.34-.46-.81-.46-1.42v-2.57h1.54v2.38c0,.34.07.59.2.74.13.15.34.22.62.22.23,0,.47-.05.71-.15.24-.1.44-.23.59-.38v-2.81h1.54Z"/>
        <path class="cls-1" d="m585.56,330.55h-3.98c.05.62.21,1.06.48,1.32s.63.4,1.08.4c.28,0,.54-.05.79-.14.25-.09.51-.23.79-.43l.64.88c-.7.57-1.49.85-2.35.85-.97,0-1.71-.3-2.24-.89-.52-.59-.79-1.4-.79-2.42,0-.65.11-1.23.34-1.75.22-.52.55-.92.97-1.21.42-.29.93-.44,1.51-.44.89,0,1.58.28,2.06.85.49.56.73,1.35.73,2.36,0,.08-.01.29-.04.62Zm-1.49-1.07c0-1.11-.41-1.67-1.24-1.67-.38,0-.67.14-.88.41-.21.28-.34.72-.38,1.33h2.5v-.07Z"/>
        <path class="cls-1" d="m590.95,326.91c.33.12.65.31.94.56l-.68.92c-.22-.16-.42-.28-.62-.35-.2-.07-.42-.11-.66-.11-.95,0-1.43.72-1.43,2.17,0,.74.12,1.27.37,1.59s.6.49,1.06.49c.22,0,.43-.04.62-.11s.41-.19.67-.35l.68.97c-.6.49-1.29.73-2.05.73-.61,0-1.14-.13-1.58-.4-.45-.27-.79-.65-1.03-1.15-.24-.5-.36-1.08-.36-1.75s.12-1.27.36-1.78c.24-.52.58-.92,1.03-1.2.45-.28.97-.43,1.57-.43.42,0,.79.06,1.12.18Z"/>
        <path class="cls-1" d="m598.58,326.91l-1.79,2.94,1.98,3.41h-1.69l-1.55-2.82h-.68v2.82h-1.54v-6.35h1.54v2.51h.72l1.48-2.51h1.54Z"/>
        <path class="cls-1" d="m604.68,327.62c.52.6.79,1.41.79,2.45,0,.66-.12,1.25-.36,1.76-.24.51-.58.9-1.03,1.18-.45.28-.98.42-1.6.42-.94,0-1.67-.3-2.2-.89s-.79-1.42-.79-2.47c0-.66.12-1.25.36-1.75.24-.5.59-.9,1.04-1.18.45-.28.99-.42,1.6-.42.94,0,1.67.3,2.19.89Zm-3.57,2.45c0,.75.11,1.31.34,1.66.23.36.57.53,1.03.53s.8-.18,1.03-.54c.23-.36.34-.91.34-1.66s-.11-1.29-.34-1.65c-.23-.36-.57-.53-1.01-.53-.92,0-1.38.73-1.38,2.18Z"/>
        <path class="cls-1" d="m612.5,333.25h-1.48v-2.54c0-.46.02-.9.06-1.31s.08-.72.13-.93l-2.37,4.79h-1.64v-6.35h1.49v2.54c0,.44-.02.88-.07,1.31-.04.43-.09.74-.14.92l2.34-4.78h1.67v6.35Zm-4.01-8.09c-.34-.3-.54-.7-.59-1.2l.9-.18c.08.26.2.44.37.55.17.11.39.17.67.17s.51-.06.68-.17c.18-.12.3-.3.37-.55l.91.18c-.05.5-.25.9-.6,1.2-.35.3-.81.44-1.37.44s-1.01-.15-1.36-.44Z"/>
        <path class="cls-1" d="m621.59,333.25v-5.17h-2.11v5.17h-1.54v-6.35h5.18v6.35h-1.54Z"/>
        <path class="cls-1" d="m630.34,327.6c.38.58.58,1.4.58,2.46,0,.66-.1,1.24-.29,1.75-.2.51-.48.91-.86,1.19s-.83.43-1.35.43c-.67,0-1.2-.23-1.6-.7v2.96l-1.54.17v-8.96h1.34l.08.78c.25-.32.53-.56.85-.72.32-.16.66-.24,1.01-.24.8,0,1.39.29,1.78.88Zm-1.03,2.47c0-.78-.1-1.34-.3-1.68-.2-.34-.5-.52-.9-.52-.26,0-.5.08-.72.23-.22.16-.42.37-.58.63v2.86c.29.44.68.66,1.16.66.89,0,1.33-.73,1.33-2.18Z"/>
        <path class="cls-1" d="m637.51,327.62c.52.6.79,1.41.79,2.45,0,.66-.12,1.25-.36,1.76s-.58.9-1.03,1.18c-.45.28-.98.42-1.6.42-.94,0-1.67-.3-2.2-.89-.53-.6-.79-1.42-.79-2.47,0-.66.12-1.25.36-1.75s.59-.9,1.04-1.18.99-.42,1.6-.42c.94,0,1.67.3,2.19.89Zm-3.57,2.45c0,.75.11,1.31.34,1.66.23.36.57.53,1.03.53s.8-.18,1.03-.54c.23-.36.34-.91.34-1.66s-.11-1.29-.34-1.65c-.23-.36-.57-.53-1.01-.53-.92,0-1.38.73-1.38,2.18Z"/>
        <path class="cls-1" d="m647.94,327.59c.34.58.52,1.4.52,2.48,0,.68-.09,1.27-.27,1.78-.18.5-.44.89-.77,1.17-.33.28-.72.41-1.17.41-.6,0-1.08-.25-1.45-.76v3.02l-1.45.17v-3.17c-.18.23-.4.41-.66.54s-.54.19-.84.19c-.43,0-.81-.14-1.14-.41-.33-.28-.58-.67-.76-1.18-.18-.51-.26-1.1-.26-1.77,0-1.06.18-1.89.53-2.47s.91-.88,1.65-.88c.61,0,1.1.22,1.48.66v-3.19l1.45.17v3.05c.38-.46.87-.68,1.49-.68.76,0,1.31.29,1.66.86Zm-4.6,4.04v-3.16c-.3-.41-.66-.61-1.08-.61-.33,0-.57.18-.74.53-.16.36-.25.91-.25,1.67,0,1.47.33,2.21,1,2.21.4,0,.76-.22,1.07-.65Zm3.53-1.56c0-.77-.08-1.33-.25-1.68-.16-.35-.42-.53-.76-.53-.4,0-.76.21-1.07.64v3.12c.14.22.3.39.47.5s.36.16.59.16c.68,0,1.02-.74,1.02-2.21Z"/>
        <path class="cls-1" d="m655.44,330.55h-3.98c.05.62.21,1.06.48,1.32s.63.4,1.08.4c.28,0,.54-.05.79-.14.25-.09.51-.23.79-.43l.64.88c-.71.57-1.49.85-2.35.85-.97,0-1.71-.3-2.24-.89-.52-.59-.79-1.4-.79-2.42,0-.65.11-1.23.34-1.75.22-.52.55-.92.97-1.21s.93-.44,1.51-.44c.89,0,1.58.28,2.06.85.49.56.73,1.35.73,2.36,0,.08-.01.29-.04.62Zm-1.49-1.07c0-1.11-.41-1.67-1.24-1.67-.38,0-.67.14-.88.41-.21.28-.34.72-.38,1.33h2.5v-.07Z"/>
        <path class="cls-1" d="m660.84,326.91c.33.12.65.31.94.56l-.68.92c-.22-.16-.42-.28-.62-.35-.2-.07-.42-.11-.66-.11-.95,0-1.43.72-1.43,2.17,0,.74.12,1.27.37,1.59s.6.49,1.06.49c.22,0,.43-.04.62-.11.19-.07.41-.19.67-.35l.68.97c-.6.49-1.28.73-2.05.73-.61,0-1.14-.13-1.58-.4s-.79-.65-1.03-1.15c-.24-.5-.36-1.08-.36-1.75s.12-1.27.36-1.78c.24-.52.58-.92,1.03-1.2s.97-.43,1.57-.43c.42,0,.79.06,1.12.18Z"/>
        <path class="cls-1" d="m666.63,326.91c.33.12.65.31.94.56l-.68.92c-.22-.16-.42-.28-.62-.35-.2-.07-.42-.11-.66-.11-.95,0-1.43.72-1.43,2.17,0,.74.12,1.27.37,1.59s.6.49,1.06.49c.22,0,.43-.04.62-.11s.41-.19.67-.35l.68.97c-.6.49-1.29.73-2.05.73-.61,0-1.14-.13-1.58-.4-.45-.27-.79-.65-1.03-1.15-.24-.5-.36-1.08-.36-1.75s.12-1.27.36-1.78c.24-.52.58-.92,1.03-1.2.45-.28.97-.43,1.57-.43.42,0,.79.06,1.12.18Z"/>
        <path class="cls-1" d="m674.28,333.25h-1.47v-2.54c0-.46.02-.9.06-1.31.04-.41.08-.72.13-.93l-2.36,4.79h-1.64v-6.35h1.49v2.54c0,.44-.02.88-.07,1.31-.04.43-.09.74-.14.92l2.34-4.78h1.67v6.35Z"/>
        <path class="cls-1" d="m681.72,333.25h-1.47v-2.54c0-.46.02-.9.06-1.31.04-.41.08-.72.13-.93l-2.36,4.79h-1.64v-6.35h1.49v2.54c0,.44-.02.88-.07,1.31-.04.43-.09.74-.14.92l2.34-4.78h1.67v6.35Z"/>
      </g>
      <g>
        <path class="cls-1" d="m231.02,310.58c.38.14.74.36,1.1.66l-.8.94c-.49-.39-1-.59-1.54-.59-.62,0-1.11.25-1.48.74-.37.5-.56,1.28-.56,2.34s.18,1.81.55,2.32c.37.5.86.76,1.49.76.33,0,.62-.06.88-.17.26-.12.53-.28.82-.5l.74.94c-.28.29-.63.53-1.06.72-.43.19-.91.29-1.43.29-.72,0-1.36-.17-1.91-.5-.55-.34-.98-.83-1.28-1.48-.3-.65-.46-1.44-.46-2.36s.16-1.68.47-2.33c.32-.65.75-1.14,1.3-1.48.55-.34,1.17-.5,1.85-.5.5,0,.94.07,1.32.22Z"/>
        <path class="cls-1" d="m238.53,316.14h-3.98c.05.62.21,1.06.48,1.32s.63.4,1.08.4c.28,0,.54-.05.79-.14.25-.09.51-.23.79-.43l.64.88c-.7.57-1.49.85-2.35.85-.97,0-1.71-.3-2.24-.89-.52-.59-.79-1.4-.79-2.42,0-.65.11-1.23.34-1.75.22-.52.55-.92.97-1.21.42-.29.93-.44,1.51-.44.89,0,1.58.28,2.06.85.49.56.73,1.35.73,2.36,0,.08-.01.29-.04.62Zm-1.49-1.07c0-1.11-.41-1.67-1.24-1.67-.38,0-.67.14-.88.41-.21.28-.34.72-.38,1.33h2.5v-.07Z"/>
        <path class="cls-1" d="m245.51,312.49l-1.79,2.94,1.98,3.41h-1.69l-1.55-2.82h-.68v2.82h-1.54v-6.35h1.54v2.51h.72l1.48-2.51h1.54Z"/>
        <path class="cls-1" d="m251.63,312.49l-.19,1.18h-1.86v5.17h-1.54v-5.17h-1.97v-1.18h5.56Z"/>
        <path class="cls-1" d="m257.3,313.21c.52.6.79,1.41.79,2.45,0,.66-.12,1.25-.36,1.76-.24.51-.58.9-1.03,1.18-.45.28-.98.42-1.6.42-.94,0-1.67-.3-2.2-.89-.53-.6-.79-1.42-.79-2.47,0-.66.12-1.25.36-1.75.24-.5.59-.9,1.04-1.18.45-.28.99-.42,1.6-.42.94,0,1.67.3,2.19.89Zm-3.57,2.45c0,.75.11,1.31.34,1.66.23.36.57.53,1.03.53s.8-.18,1.03-.54c.23-.36.34-.91.34-1.66s-.11-1.29-.34-1.65c-.23-.36-.57-.53-1.01-.53-.92,0-1.38.73-1.38,2.18Z"/>
        <path class="cls-1" d="m264.89,313.19c.38.58.58,1.4.58,2.46,0,.66-.1,1.24-.29,1.75-.2.51-.48.91-.86,1.19s-.83.43-1.35.43c-.67,0-1.2-.23-1.6-.7v2.96l-1.54.17v-8.96h1.34l.08.78c.25-.32.53-.56.85-.72.32-.16.66-.24,1.01-.24.8,0,1.39.29,1.78.88Zm-1.03,2.47c0-.78-.1-1.34-.3-1.68-.2-.34-.5-.52-.9-.52-.26,0-.5.08-.72.23-.22.16-.42.37-.58.63v2.86c.3.44.68.66,1.16.66.89,0,1.33-.73,1.33-2.18Z"/>
        <path class="cls-1" d="m275.64,313.19c.38.58.58,1.4.58,2.46,0,.66-.1,1.24-.29,1.75-.2.51-.48.91-.86,1.19s-.83.43-1.35.43c-.67,0-1.2-.23-1.6-.7v2.96l-1.54.17v-8.96h1.34l.08.78c.25-.32.53-.56.85-.72.32-.16.66-.24,1.01-.24.8,0,1.39.29,1.78.88Zm-1.03,2.47c0-.78-.1-1.34-.3-1.68-.2-.34-.5-.52-.9-.52-.26,0-.5.08-.72.23-.22.16-.42.37-.58.63v2.86c.3.44.68.66,1.16.66.89,0,1.33-.73,1.33-2.18Z"/>
        <path class="cls-1" d="m283.2,316.14h-3.98c.05.62.21,1.06.48,1.32s.63.4,1.08.4c.28,0,.54-.05.79-.14.25-.09.51-.23.79-.43l.64.88c-.7.57-1.49.85-2.35.85-.97,0-1.71-.3-2.24-.89-.52-.59-.79-1.4-.79-2.42,0-.65.11-1.23.34-1.75.22-.52.55-.92.97-1.21.42-.29.93-.44,1.51-.44.89,0,1.58.28,2.06.85.49.56.73,1.35.73,2.36,0,.08-.01.29-.04.62Zm-1.49-1.07c0-1.11-.41-1.67-1.24-1.67-.38,0-.67.14-.88.41-.21.28-.34.72-.38,1.33h2.5v-.07Z"/>
        <path class="cls-1" d="m289.61,317.71c.08.12.2.21.37.27l-.32,1.02c-.36-.03-.65-.12-.88-.26-.23-.14-.4-.36-.52-.66-.22.32-.49.56-.81.71-.32.16-.69.23-1.09.23-.63,0-1.13-.18-1.5-.54-.37-.36-.55-.83-.55-1.42,0-.69.25-1.21.75-1.58s1.21-.55,2.14-.55h.79v-.36c0-.41-.09-.69-.28-.86-.19-.16-.49-.25-.91-.25-.46,0-1.02.11-1.68.34l-.36-1.04c.79-.3,1.56-.46,2.3-.46,1.62,0,2.44.73,2.44,2.18v2.66c0,.25.04.43.11.55Zm-1.63-.58v-1.28h-.64c-.99,0-1.49.37-1.49,1.1,0,.3.08.54.23.71s.38.25.67.25c.52,0,.93-.26,1.22-.78Z"/>
        <path class="cls-1" d="m296.68,312.49v6.35h-1.54v-5.18h-1.55l-.16,1.7c-.08.9-.18,1.57-.29,2.02-.11.45-.3.79-.56,1.04-.26.24-.66.43-1.19.57l-.38-1.14c.26-.11.45-.24.57-.38.12-.14.2-.36.25-.67.05-.3.11-.82.16-1.55l.22-2.76h4.46Z"/>
        <path class="cls-1" d="m304.12,318.84h-1.48v-2.54c0-.46.02-.9.06-1.31s.08-.72.13-.93l-2.36,4.79h-1.64v-6.35h1.49v2.54c0,.44-.02.88-.07,1.31-.04.43-.09.74-.14.92l2.34-4.78h1.67v6.35Z"/>
        <path class="cls-1" d="m309.79,312.78c.46.31.69.74.69,1.27,0,.36-.11.65-.33.88-.22.23-.56.4-1.01.51.56.09.98.25,1.25.5s.41.59.41,1.05c0,.66-.26,1.16-.79,1.51s-1.21.52-2.05.52c-.98,0-1.83-.26-2.53-.78l.76-.89c.28.18.55.32.82.4s.56.13.9.13c.86,0,1.28-.32,1.28-.95,0-.57-.45-.85-1.36-.85h-.92l.1-1.06h.7c.38,0,.67-.07.89-.21.22-.14.32-.35.32-.64,0-.26-.09-.46-.28-.58-.19-.12-.44-.18-.75-.18s-.57.04-.8.12c-.23.08-.47.2-.71.36l-.71-.85c.34-.25.7-.43,1.09-.55s.83-.18,1.32-.18c.68,0,1.25.16,1.71.47Z"/>
        <path class="cls-1" d="m317.24,317.71c.08.12.2.21.37.27l-.32,1.02c-.36-.03-.65-.12-.88-.26-.23-.14-.4-.36-.52-.66-.22.32-.49.56-.81.71-.32.16-.69.23-1.09.23-.63,0-1.13-.18-1.5-.54-.37-.36-.55-.83-.55-1.42,0-.69.25-1.21.75-1.58s1.21-.55,2.14-.55h.79v-.36c0-.41-.09-.69-.28-.86-.19-.16-.49-.25-.91-.25-.46,0-1.02.11-1.68.34l-.36-1.04c.79-.3,1.56-.46,2.3-.46,1.62,0,2.44.73,2.44,2.18v2.66c0,.25.04.43.11.55Zm-1.63-.58v-1.28h-.64c-.99,0-1.49.37-1.49,1.1,0,.3.08.54.23.71s.38.25.67.25c.52,0,.93-.26,1.22-.78Z"/>
        <path class="cls-1" d="m324.41,317.68h.96v3.06h-1.12l-.2-1.9h-4.76v-6.35h1.54v5.17h2.05v-5.17h1.54v5.18Z"/>
        <path class="cls-1" d="m331.96,318.84h-1.48v-2.54c0-.46.02-.9.06-1.31s.08-.72.13-.93l-2.36,4.79h-1.64v-6.35h1.49v2.54c0,.44-.02.88-.07,1.31-.04.43-.09.74-.14.92l2.34-4.78h1.67v6.35Z"/>
        <path class="cls-1" d="m339.4,318.84h-1.48v-2.54c0-.46.02-.9.06-1.31s.08-.72.13-.93l-2.36,4.79h-1.64v-6.35h1.49v2.54c0,.44-.02.88-.07,1.31-.04.43-.09.74-.14.92l2.34-4.78h1.67v6.35Z"/>
        <path class="cls-1" d="m223.62,333.24v-5.17h-2.11v5.17h-1.54v-6.35h5.18v6.35h-1.54Z"/>
        <path class="cls-1" d="m232.37,327.59c.38.58.58,1.4.58,2.46,0,.66-.1,1.24-.29,1.75-.2.51-.48.91-.86,1.19s-.83.43-1.35.43c-.67,0-1.2-.23-1.6-.7v2.96l-1.54.17v-8.96h1.34l.08.78c.25-.32.53-.56.85-.72.32-.16.66-.24,1.01-.24.8,0,1.39.29,1.78.88Zm-1.03,2.47c0-.78-.1-1.34-.3-1.68-.2-.34-.5-.52-.9-.52-.26,0-.5.08-.72.23-.22.16-.42.37-.58.63v2.86c.3.44.68.66,1.16.66.89,0,1.33-.73,1.33-2.18Z"/>
        <path class="cls-1" d="m239.54,327.61c.52.6.79,1.41.79,2.45,0,.66-.12,1.25-.36,1.76-.24.51-.58.9-1.03,1.18-.45.28-.98.42-1.6.42-.94,0-1.67-.3-2.2-.89-.53-.6-.79-1.42-.79-2.47,0-.66.12-1.25.36-1.75.24-.5.59-.9,1.04-1.18.45-.28.99-.42,1.6-.42.94,0,1.67.3,2.19.89Zm-3.57,2.45c0,.75.11,1.31.34,1.66.23.36.57.53,1.03.53s.8-.18,1.03-.54c.23-.36.34-.91.34-1.66s-.11-1.29-.34-1.65c-.23-.36-.57-.53-1.01-.53-.92,0-1.38.73-1.38,2.18Z"/>
        <path class="cls-1" d="m247.24,330.54h-3.98c.05.62.21,1.06.48,1.32.27.26.63.4,1.08.4.28,0,.54-.05.79-.14s.51-.23.79-.43l.64.88c-.7.57-1.49.85-2.35.85-.97,0-1.71-.3-2.24-.89s-.79-1.4-.79-2.42c0-.65.11-1.23.34-1.75.22-.52.55-.92.97-1.21.42-.29.93-.44,1.51-.44.89,0,1.58.28,2.06.85.49.56.73,1.35.73,2.36,0,.08-.01.29-.04.62Zm-1.49-1.07c0-1.11-.41-1.67-1.24-1.67-.38,0-.67.14-.88.41-.21.28-.34.72-.38,1.33h2.5v-.07Z"/>
        <path class="cls-1" d="m254.22,326.89l-1.79,2.94,1.98,3.41h-1.69l-1.55-2.82h-.68v2.82h-1.54v-6.35h1.54v2.51h.72l1.48-2.51h1.54Z"/>
        <path class="cls-1" d="m260.34,326.89l-.19,1.18h-1.86v5.17h-1.54v-5.17h-1.97v-1.18h5.56Z"/>
        <path class="cls-1" d="m266.01,327.61c.52.6.79,1.41.79,2.45,0,.66-.12,1.25-.36,1.76-.24.51-.58.9-1.03,1.18-.45.28-.98.42-1.6.42-.94,0-1.67-.3-2.2-.89-.53-.6-.79-1.42-.79-2.47,0-.66.12-1.25.36-1.75.24-.5.59-.9,1.04-1.18.45-.28.99-.42,1.6-.42.94,0,1.67.3,2.19.89Zm-3.57,2.45c0,.75.11,1.31.34,1.66.23.36.57.53,1.03.53s.8-.18,1.03-.54c.23-.36.34-.91.34-1.66s-.11-1.29-.34-1.65c-.23-.36-.57-.53-1.01-.53-.92,0-1.38.73-1.38,2.18Z"/>
        <path class="cls-1" d="m273.82,331.3c0,.66-.25,1.14-.75,1.46-.5.32-1.17.48-2.02.48h-2.51v-6.28c.86-.17,1.63-.25,2.32-.25.82,0,1.47.15,1.94.44.47.3.71.72.71,1.28,0,.36-.11.65-.34.88-.22.22-.55.38-.98.46,1.09.12,1.63.63,1.63,1.52Zm-3.74-3.48v1.61h.91c.66,0,1-.28,1-.85s-.38-.82-1.14-.82c-.22,0-.47.02-.77.06Zm2.15,3.38c0-.3-.09-.51-.28-.65-.18-.14-.49-.21-.91-.21h-.96v1.84h.94c.81,0,1.21-.32,1.21-.97Z"/>
        <path class="cls-1" d="m284.15,333.24h-1.48v-2.54c0-.46.02-.9.06-1.31s.08-.72.13-.93l-2.36,4.79h-1.64v-6.35h1.49v2.54c0,.44-.02.88-.07,1.31-.04.43-.09.74-.14.92l2.34-4.78h1.67v6.35Z"/>
        <path class="cls-1" d="m293.25,333.24v-5.17h-2.11v5.17h-1.54v-6.35h5.18v6.35h-1.54Z"/>
        <path class="cls-1" d="m302,327.59c.38.58.58,1.4.58,2.46,0,.66-.1,1.24-.29,1.75-.2.51-.48.91-.86,1.19s-.83.43-1.35.43c-.67,0-1.2-.23-1.6-.7v2.96l-1.54.17v-8.96h1.34l.08.78c.25-.32.53-.56.85-.72.32-.16.66-.24,1.01-.24.8,0,1.39.29,1.78.88Zm-1.03,2.47c0-.78-.1-1.34-.3-1.68-.2-.34-.5-.52-.9-.52-.26,0-.5.08-.72.23-.22.16-.42.37-.58.63v2.86c.3.44.68.66,1.16.66.89,0,1.33-.73,1.33-2.18Z"/>
        <path class="cls-1" d="m309.17,327.61c.52.6.79,1.41.79,2.45,0,.66-.12,1.25-.36,1.76-.24.51-.58.9-1.03,1.18-.45.28-.98.42-1.6.42-.94,0-1.67-.3-2.2-.89-.53-.6-.79-1.42-.79-2.47,0-.66.12-1.25.36-1.75.24-.5.59-.9,1.04-1.18.45-.28.99-.42,1.6-.42.94,0,1.67.3,2.19.89Zm-3.57,2.45c0,.75.11,1.31.34,1.66.23.36.57.53,1.03.53s.8-.18,1.03-.54c.23-.36.34-.91.34-1.66s-.11-1.29-.34-1.65c-.23-.36-.57-.53-1.01-.53-.92,0-1.38.73-1.38,2.18Z"/>
        <path class="cls-1" d="m313.23,333.24h-1.54v-6.35h4.25l-.18,1.2h-2.53v5.15Z"/>
        <path class="cls-1" d="m322.23,327.59c.38.58.58,1.4.58,2.46,0,.66-.1,1.24-.29,1.75-.2.51-.48.91-.86,1.19s-.83.43-1.35.43c-.67,0-1.2-.23-1.6-.7v2.96l-1.54.17v-8.96h1.34l.08.78c.25-.32.53-.56.85-.72.32-.16.66-.24,1.01-.24.8,0,1.39.29,1.78.88Zm-1.03,2.47c0-.78-.1-1.34-.3-1.68-.2-.34-.5-.52-.9-.52-.26,0-.5.08-.72.23-.22.16-.42.37-.58.63v2.86c.3.44.68.66,1.16.66.89,0,1.33-.73,1.33-2.18Z"/>
        <path class="cls-1" d="m329.3,332.11c.08.12.2.21.37.27l-.32,1.02c-.36-.03-.65-.12-.88-.26-.23-.14-.4-.36-.52-.66-.22.32-.49.56-.81.71-.32.16-.69.23-1.09.23-.63,0-1.13-.18-1.5-.54-.37-.36-.55-.83-.55-1.42,0-.69.25-1.21.75-1.58.5-.36,1.21-.55,2.14-.55h.79v-.36c0-.41-.09-.69-.28-.86s-.49-.25-.91-.25c-.46,0-1.02.11-1.68.34l-.36-1.04c.79-.3,1.56-.46,2.3-.46,1.62,0,2.44.73,2.44,2.18v2.66c0,.25.04.43.11.55Zm-1.63-.58v-1.28h-.64c-.99,0-1.49.37-1.49,1.1,0,.3.08.54.23.71s.38.25.67.25c.52,0,.93-.26,1.22-.78Z"/>
        <path class="cls-1" d="m337.96,333.24h-1.46l-.2-2.6c-.03-.38-.05-.8-.05-1.25,0-.19,0-.56.02-1.1l-1.21,4.28h-1.33l-1.16-4.28c.02.44.04.87.04,1.28,0,.25,0,.6-.02,1.07l-.17,2.6h-1.46l.55-6.35h1.87l1.03,4.3,1.12-4.3h1.88l.56,6.35Z"/>
        <path class="cls-1" d="m346.31,333.24h-1.46l-.2-2.6c-.03-.38-.05-.8-.05-1.25,0-.19,0-.56.02-1.1l-1.21,4.28h-1.33l-1.16-4.28c.02.44.04.87.04,1.28,0,.25,0,.6-.02,1.07l-.17,2.6h-1.46l.55-6.35h1.87l1.03,4.3,1.12-4.3h1.88l.56,6.35Z"/>
      </g>
    </g>
  </g>
</svg>