<?xml version="1.0" encoding="UTF-8"?>
<svg id="ROUNDCUBE" xmlns="http://www.w3.org/2000/svg" viewBox="0 0 1512 512">
  <defs>
    <style>
      .cls-1, .cls-2 {
        fill: #73bcfc;
      }

      .cls-1, .cls-2, .cls-3, .cls-4, .cls-5 {
        stroke-width: 0px;
      }

      .cls-2, .cls-3, .cls-4, .cls-5 {
        fill-rule: evenodd;
      }

      .cls-3 {
        fill: #e3e3e3;
      }

      .cls-4 {
        fill: #cacaca;
      }

      .cls-5 {
        fill: #465055;
      }
    </style>
  </defs>
  <g id="_СЮП-СИНИЙ-ВЕКТОР" data-name="СЮП-СИНИЙ-ВЕКТОР">
    <g>
      <path class="cls-1" d="m535.44,435.19c-.74,8.45-4.9,20.74-22.49,20.74-4.01,0-25.76-.4-25.76-28.63,0-22.97,12.32-30.55,25.24-30.55,17.81,0,21.82,11.72,22.27,19.7h-9.43c-.59-4.63-3.12-11.25-12.84-11.25-11.58,0-15.07,10.13-15.07,21.69,0,13.08,6.68,20.58,16.03,20.58,8.61,0,12.32-6.3,12.62-12.28h9.43Z"/>
      <path class="cls-1" d="m567.06,396.75c4.53,0,25.46.64,25.46,29.59s-20.93,29.59-25.46,29.59-25.46-.64-25.46-29.59,20.93-29.59,25.46-29.59Zm0,50.73c12.84,0,15.29-12.52,15.29-21.14s-2.45-21.14-15.29-21.14-15.29,12.52-15.29,21.14,2.45,21.14,15.29,21.14Z"/>
      <path class="cls-1" d="m618.36,420.75c.74-9.73,6.38-24.01,25.16-24.01,4.53,0,25.46.64,25.46,29.59s-20.93,29.59-25.46,29.59c-19.6,0-24.87-15.31-25.39-26.72h-6.46v25.04h-9.5v-55.83h9.5v22.33h6.68Zm40.45,5.58c0-8.61-2.45-21.14-15.29-21.14s-15.29,12.52-15.29,21.14,2.45,21.14,15.29,21.14,15.29-12.52,15.29-21.14Z"/>
      <path class="cls-1" d="m685.09,435.19c.07,4.63,1.93,12.28,13.29,12.28,7.05,0,11.58-3.27,11.58-9.33,0-6.94-4.45-8.77-10.24-8.77h-7.13v-8.45h6.16c2.23,0,9.13-.16,9.13-7.34,0-4.95-2.97-8.37-10.54-8.37-8.98,0-11.5,4.79-11.65,9.65h-9.43c.22-14.6,10.54-18.11,21.9-18.11,7.13,0,19.52,1.91,19.52,15.79,0,7.18-4.08,11.57-8.68,12.28v.16c5.64.88,10.76,5.42,10.76,14.2,0,6.54-3.34,16.75-21.97,16.75-13.36,0-21.6-6.14-22.12-20.74h9.43Z"/>
      <path class="cls-1" d="m773.3,420.75c.74-9.73,6.38-24.01,25.16-24.01,4.53,0,25.46.64,25.46,29.59s-20.93,29.59-25.46,29.59c-19.6,0-24.87-15.31-25.39-26.72h-6.46v25.04h-9.5v-55.83h9.5v22.33h6.68Zm40.45,5.58c0-8.61-2.45-21.14-15.29-21.14s-15.29,12.52-15.29,21.14,2.45,21.14,15.29,21.14,15.29-12.52,15.29-21.14Z"/>
      <path class="cls-1" d="m843.07,454.25h-9.5v-55.83h9.5v22.33h23.16v-22.33h9.5v55.83h-9.5v-25.04h-23.16v25.04Z"/>
      <path class="cls-1" d="m897.85,419.96h13.51c5.64,0,18.04,1.2,18.04,17.47,0,6.94-3.27,16.83-18.11,16.83h-22.94v-55.83h9.5v21.54Zm0,25.84h11.58c5.05,0,10.17-1.2,10.17-8.85s-6.01-8.53-9.95-8.53h-11.8v17.39Zm45.28-47.38v55.83h-9.5v-55.83h9.5Z"/>
      <path class="cls-1" d="m985.66,398.42h11.88l-17.44,27.28,18.78,28.55h-12.25l-12.47-21.54-12.47,21.54h-12.25l18.78-28.55-17.44-27.28h11.88l11.5,20.18,11.51-20.18Z"/>
      <path class="cls-1" d="m1041.43,454.25h-9.5v-55.83h42.01v55.83h-9.5v-47.38h-23.01v47.38Z"/>
      <path class="cls-1" d="m1122.49,421.39v8.45h-26.42v15.95h30.28v8.45h-39.79v-55.83h38.97v8.45h-29.47v14.52h26.42Z"/>
      <path class="cls-1" d="m1182.91,445.8l-.45,21.06h-8.31v-12.6h-37.78v12.6h-8.31l-.45-21.06h4.45c3.41-4.71,8.98-14.76,8.98-35.33v-12.04h34.74v47.38h7.13Zm-32.36-38.92v6.7c0,12.36-1.26,21.7-7.2,32.22h22.94v-38.92h-15.74Z"/>
      <path class="cls-1" d="m1193.75,454.25h-10.17l19.6-55.83h9.5l19.6,55.83h-10.17l-3.79-11.72h-20.78l-3.79,11.72Zm22.05-20.18l-7.87-24.81-7.87,24.81h15.74Z"/>
      <path class="cls-1" d="m1247.79,454.25h-9.5v-55.83h34v8.45h-24.5v47.38Z"/>
      <path class="cls-1" d="m1302.05,396.75c4.53,0,25.46.64,25.46,29.59s-20.93,29.59-25.46,29.59-25.46-.64-25.46-29.59,20.93-29.59,25.46-29.59Zm0,50.73c12.84,0,15.29-12.52,15.29-21.14s-2.45-21.14-15.29-21.14-15.29,12.52-15.29,21.14,2.45,21.14,15.29,21.14Z"/>
      <path class="cls-1" d="m1346.66,454.25h-9.5v-55.83h34v8.45h-24.5v47.38Z"/>
      <path class="cls-1" d="m1400.92,396.75c4.53,0,25.46.64,25.46,29.59s-20.93,29.59-25.46,29.59-25.46-.64-25.46-29.59,20.93-29.59,25.46-29.59Zm0,50.73c12.84,0,15.29-12.52,15.29-21.14s-2.45-21.14-15.29-21.14-15.29,12.52-15.29,21.14,2.45,21.14,15.29,21.14Z"/>
      <path class="cls-1" d="m1460.52,398.42c13.21,0,15.81,7.98,15.81,14.12s-3.56,11.01-8.61,11.96v.16c4.31.8,10.76,3.99,10.76,13.96,0,14.12-11.21,15.63-19,15.63h-23.46v-55.83h24.49Zm-14.99,22.65h12.54c5.27,0,8.46-1.75,8.46-6.62,0-7.42-6.68-7.58-8.68-7.58h-12.32v14.2Zm0,24.73h12.99c5.79,0,10.17-1.52,10.17-8.3,0-7.5-6.01-7.98-9.95-7.98h-13.21v16.27Z"/>
    </g>
    <g id="_СЮП_вектор_" data-name="СЮП (вектор)">
      <path class="cls-1" d="m481,57.83v319.05h276.51V57.83h-276.51Zm141.97,304.27c-64.11,0-122.84-32.29-122.84-140.57,0-145.29,96.34-150.8,120.69-150.8,89.17,0,111.38,61.03,113.16,101.59h-58.01c-5.73-46.07-38.67-48.04-52.29-48.04s-59.81,2.75-59.81,94.89c0,51.97,21.49,89.38,61.6,89.38s49.78-31.11,52.64-51.58h58.73c-3.94,41.34-25.07,105.13-113.88,105.13Z"/>
      <path class="cls-1" d="m918.58,174.2c5.58-50.87,29.02-79.03,36.46-87.2,11.16-12.26,39.81-37.15,93.38-37.15,43.9,0,78.87,16.71,99.7,42.15,19.72,24.07,35.34,65.85,35.34,123.99,0,67.22-20.09,107.18-38.69,128.98-30.13,35.43-68.45,40.42-97.47,40.42-31.62,0-66.96-5.9-95.24-39.51-19.72-23.16-33.85-59.04-35.34-100.37h-32.74v130.8h-71.06V58.39h71.06v115.81h34.6Zm92.26-37.24c-17.48,20.89-20.09,59.5-20.09,79.93s2.6,59.04,20.09,79.93c11.9,14.08,26.41,16.8,38.32,16.8s26.04-1.36,38.32-16.35c16.37-19.53,20.09-54.05,20.09-80.39,0-20.44-2.6-59.04-20.09-79.93-12.28-14.53-27.16-16.8-38.32-16.8s-26.04,2.27-38.32,16.8Z"/>
      <path class="cls-1" d="m1312.2,376.88h-80.8V57.83h254.25v319.05h-80.8v-246.13h-92.65v246.13Z"/>
    </g>
  </g>
  <g>
    <path class="cls-2" d="m458.91,361.55l-218.92-126.44V100.14l218.92,126.45v134.95Z"/>
    <path class="cls-5" d="m21.09,361.55l218.91-126.44V100.14L21.09,226.59v134.95Z"/>
    <path class="cls-4" d="m240,50.17c83.62,0,151.43,67.81,151.43,151.43s-67.81,151.43-151.43,151.43-151.43-67.81-151.43-151.43S156.38,50.17,240,50.17"/>
    <path class="cls-3" d="m240,50.17c83.65,0,151.49,67.81,151.49,151.43s-67.84,151.43-151.49,151.43c-48.01-32.32-67.88-97.42-67.88-151.35s19.87-119.14,67.88-151.52"/>
    <path class="cls-2" d="m458.91,226.59l-218.92,126.44v134.96l218.92-126.45v-134.95Z"/>
    <path class="cls-5" d="m21.09,226.59l218.91,126.44v134.96L21.09,361.55v-134.95Z"/>
  </g>
</svg>