<svg width="1080" height="1080" viewBox="0 0 1080 1080" fill="none" xmlns="http://www.w3.org/2000/svg">
<line x1="363.663" y1="897.589" x2="399.663" y2="780.589" stroke="#1560BD" stroke-width="30"/>
<line x1="685.489" y1="780.118" x2="717.172" y2="898.36" stroke="#1560BD" stroke-width="30"/>
<rect x="262" y="899" width="556" height="73" rx="36.5" stroke="#1560BD" stroke-width="32"/>
<path d="M146.002 188.978L134.502 188.978C134.502 185.928 135.714 183.002 137.87 180.846C140.027 178.689 142.952 177.478 146.002 177.478L146.002 188.978ZM146.002 658.009L146.002 669.509C139.651 669.509 134.502 664.36 134.502 658.009L146.002 658.009ZM147.002 658.009L158.502 658.009C158.502 661.059 157.29 663.984 155.134 666.14C152.977 668.297 150.052 669.509 147.002 669.509L147.002 658.009ZM147.002 188.978L147.002 177.478C153.353 177.478 158.502 182.626 158.502 188.978L147.002 188.978ZM933.974 188L933.974 199.5C927.622 199.5 922.474 194.351 922.474 188L933.974 188ZM933.974 187.973L933.974 176.473C940.325 176.473 945.474 181.621 945.474 187.973L933.974 187.973ZM147.001 187.973L135.501 187.973C135.501 184.923 136.713 181.998 138.869 179.841C141.026 177.684 143.951 176.473 147.001 176.473L147.001 187.973ZM147.001 188.973L147.001 200.473C140.65 200.473 135.501 195.324 135.501 188.973L147.001 188.973ZM933 188.973L933 177.473C939.351 177.473 944.5 182.621 944.5 188.973L933 188.973ZM933 552L933 563.5C926.649 563.5 921.5 558.351 921.5 552L933 552ZM934 552L945.5 552C945.5 555.05 944.288 557.975 942.132 560.132C939.975 562.288 937.05 563.5 934 563.5L934 552ZM934 188L934 176.5C940.351 176.5 945.5 181.649 945.5 188L934 188ZM933 608L921.5 608C921.5 601.649 926.649 596.5 933 596.5L933 608ZM933 658.014L944.5 658.014C944.5 664.365 939.351 669.514 933 669.514L933 658.014ZM147.002 658.014L135.502 658.014C135.502 651.662 140.651 646.514 147.002 646.514L147.002 658.014ZM147.002 659.014L147.002 670.514C140.651 670.514 135.502 665.365 135.502 659.014L147.002 659.014ZM933.975 659.014L945.475 659.014C945.475 665.365 940.326 670.514 933.975 670.514L933.975 659.014ZM933.975 659L922.475 659C922.475 652.649 927.623 647.5 933.975 647.5L933.975 659ZM934 659L945.5 659C945.5 665.351 940.351 670.5 934 670.5L934 659ZM934 608L934 596.5C940.351 596.5 945.5 601.649 945.5 608L934 608ZM146.002 188.978L157.502 188.978L157.502 658.009L146.002 658.009L134.502 658.009L134.502 188.978L146.002 188.978ZM146.002 658.009L146.002 646.509L147.002 646.509L147.002 658.009L147.002 669.509L146.002 669.509L146.002 658.009ZM147.002 658.009L135.502 658.009L135.502 188.978L147.002 188.978L158.502 188.978L158.502 658.009L147.002 658.009ZM147.002 188.978L147.002 200.478L146.002 200.478L146.002 188.978L146.002 177.478L147.002 177.478L147.002 188.978ZM933.974 188L922.474 188L922.474 187.973L933.974 187.973L945.474 187.973L945.474 188L933.974 188ZM933.974 187.973L933.974 199.473L147.001 199.473L147.001 187.973L147.001 176.473L933.974 176.473L933.974 187.973ZM147.001 187.973L158.501 187.973L158.501 188.973L147.001 188.973L135.501 188.973L135.501 187.973L147.001 187.973ZM147.001 188.973L147.001 177.473L933 177.473L933 188.973L933 200.473L147.001 200.473L147.001 188.973ZM933 188.973L944.5 188.973L944.5 552L933 552L921.5 552L921.5 188.973L933 188.973ZM933 552L933 540.5L934 540.5L934 552L934 563.5L933 563.5L933 552ZM934 552L922.5 552L922.5 188L934 188L945.5 188L945.5 552L934 552ZM934 188L934 199.5L933.974 199.5L933.974 188L933.974 176.5L934 176.5L934 188ZM933 608L944.5 608L944.5 658.014L933 658.014L921.5 658.014L921.5 608L933 608ZM933 658.014L933 669.514L147.002 669.514L147.002 658.014L147.002 646.514L933 646.514L933 658.014ZM147.002 658.014L158.502 658.014L158.502 659.014L147.002 659.014L135.502 659.014L135.502 658.014L147.002 658.014ZM147.002 659.014L147.002 647.514L933.975 647.514L933.975 659.014L933.975 670.514L147.002 670.514L147.002 659.014ZM933.975 659.014L922.475 659.014L922.475 659L933.975 659L945.475 659L945.475 659.014L933.975 659.014ZM933.975 659L933.975 647.5L934 647.5L934 659L934 670.5L933.975 670.5L933.975 659ZM934 659L922.5 659L922.5 608L934 608L945.5 608L945.5 659L934 659ZM934 608L934 619.5L933 619.5L933 608L933 596.5L934 596.5L934 608Z" fill="#1560BD"/>
<circle cx="540.5" cy="716.5" r="14.5" fill="#1560BD"/>
<path d="M293.5 111H884.717C917.577 111 949.115 123.939 972.506 147.016L973.289 147.789C997.097 171.277 1010.5 203.327 1010.5 236.772V653.71C1010.5 688.633 995.725 722.117 970.044 745.783C946.962 767.054 916.574 779 885.186 779H195.809C163.826 779 133.059 766.74 109.841 744.744L109.032 743.978C84.1143 720.371 70 687.558 70 653.234V237.513C70 203.926 83.5163 171.752 107.503 148.242L109.046 146.729C132.412 123.828 163.826 111 196.544 111H237" stroke="#1560BD" stroke-width="32" stroke-linecap="round"/>
<path d="M239.302 541.85C238.803 547.497 236.023 555.702 224.246 555.702C221.561 555.702 207 555.435 207 536.577C207 521.233 215.249 516.172 223.897 516.172C235.823 516.172 238.508 524.004 238.807 529.331H232.495C232.096 526.241 230.408 521.819 223.897 521.819C216.143 521.819 213.807 528.585 213.807 536.31C213.807 545.047 218.279 550.054 224.541 550.054C230.305 550.054 232.79 545.845 232.989 541.85H239.302Z" fill="#1560BD"/>
<path d="M260.475 516.176C263.505 516.176 277.521 516.602 277.521 535.94C277.521 555.279 263.508 555.706 260.475 555.706C257.442 555.706 243.429 555.279 243.429 535.94C243.429 516.602 257.442 516.176 260.475 516.176ZM260.475 550.058C269.073 550.058 270.711 541.694 270.711 535.94C270.711 530.187 269.069 521.823 260.475 521.823C251.881 521.823 250.239 530.187 250.239 535.94C250.239 541.694 251.881 550.058 260.475 550.058Z" fill="#1560BD"/>
<path d="M294.815 532.207C295.314 525.709 299.088 516.172 311.662 516.172C314.692 516.172 328.708 516.598 328.708 535.937C328.708 555.275 314.695 555.702 311.662 555.702C298.543 555.702 295.015 545.473 294.666 537.854H290.344V554.582H283.981V517.291H290.344V532.207H294.815ZM321.901 535.937C321.901 530.183 320.26 521.819 311.666 521.819C303.071 521.819 301.43 530.183 301.43 535.937C301.43 541.69 303.071 550.054 311.666 550.054C320.26 550.054 321.901 541.69 321.901 535.937Z" fill="#1560BD"/>
<path d="M339.494 541.85C339.543 544.94 340.786 550.054 348.39 550.054C353.111 550.054 356.144 547.87 356.144 543.821C356.144 539.187 353.161 537.961 349.288 537.961H344.517V532.314H348.644C350.136 532.314 354.756 532.207 354.756 527.412C354.756 524.11 352.77 521.819 347.7 521.819C341.687 521.819 339.996 525.016 339.896 528.265H333.584C333.733 518.516 340.64 516.172 348.244 516.172C353.015 516.172 361.314 517.45 361.314 526.721C361.314 531.515 358.58 534.446 355.5 534.924V535.031C359.278 535.617 362.706 538.654 362.706 544.514C362.706 548.883 360.47 555.702 347.995 555.702C339.049 555.702 333.534 551.6 333.185 541.85H339.497H339.494Z" fill="#1560BD"/>
<path d="M398.549 532.207C399.047 525.709 402.821 516.172 415.396 516.172C418.424 516.172 432.442 516.598 432.442 535.937C432.442 555.275 418.429 555.702 415.396 555.702C402.276 555.702 398.747 545.473 398.399 537.854H394.077V554.582H387.715V517.291H394.077V532.207H398.549ZM425.635 535.937C425.635 530.183 423.993 521.819 415.398 521.819C406.804 521.819 405.163 530.183 405.163 535.937C405.163 541.69 406.804 550.054 415.398 550.054C423.993 550.054 425.635 541.69 425.635 535.937Z" fill="#1560BD"/>
<path d="M445.266 554.582H438.905V517.291H445.266V532.207H460.771V517.291H467.133V554.582H460.771V537.854H445.266V554.582Z" fill="#1560BD"/>
<path d="M481.94 531.675H490.987C494.765 531.675 503.063 532.474 503.063 543.341C503.063 547.977 500.878 554.582 490.937 554.582H475.582V517.291H481.944V531.675H481.94ZM481.94 548.935H489.694C493.073 548.935 496.503 548.136 496.503 543.022C496.503 537.907 492.475 537.322 489.84 537.322H481.94V548.935ZM512.256 517.291V554.582H505.894V517.291H512.256Z" fill="#1560BD"/>
<path d="M540.732 517.294H548.682L537.005 535.514L549.58 554.587H541.381L533.032 540.202L524.683 554.587H516.484L529.058 535.514L517.381 517.294H525.331L533.036 530.773L540.739 517.294H540.732Z" fill="#1560BD"/>
<path d="M578.07 554.582H571.709V517.291H599.837V554.582H593.475V522.938H578.07V554.582Z" fill="#1560BD"/>
<path d="M632.34 532.633V538.28H614.649V548.935H634.924V554.582H608.287V517.291H634.376V522.938H614.645V532.633H632.336H632.34Z" fill="#1560BD"/>
<path d="M672.791 548.935L672.492 563H666.927V554.582H641.632V563H636.067L635.768 548.935H638.752C641.037 545.792 644.764 539.08 644.764 525.335V517.291H668.023V548.935H672.795H672.791ZM651.124 522.938V527.412C651.124 535.67 650.28 541.903 646.302 548.935H661.658V522.938H651.124Z" fill="#1560BD"/>
<path d="M680.047 554.582H673.24L686.359 517.291H692.721L705.843 554.582H699.032L696.497 546.752H682.585L680.05 554.582H680.047ZM694.809 541.105L689.539 524.536L684.27 541.105H694.804H694.809Z" fill="#1560BD"/>
<path d="M716.231 554.582H709.865V517.291H732.629V522.938H716.231V554.582Z" fill="#1560BD"/>
<path d="M752.559 516.176C755.588 516.176 769.608 516.602 769.608 535.94C769.608 555.279 755.593 555.706 752.559 555.706C749.526 555.706 735.511 555.279 735.511 535.94C735.511 516.602 749.526 516.176 752.559 516.176ZM752.559 550.058C761.157 550.058 762.796 541.694 762.796 535.94C762.796 530.187 761.152 521.823 752.559 521.823C743.967 521.823 742.318 530.187 742.318 535.94C742.318 541.694 743.962 550.058 752.559 550.058Z" fill="#1560BD"/>
<path d="M782.428 554.582H776.062V517.291H798.825V522.938H782.428V554.582Z" fill="#1560BD"/>
<path d="M818.751 516.176C821.785 516.176 835.799 516.602 835.799 535.94C835.799 555.279 821.785 555.706 818.751 555.706C815.722 555.706 801.708 555.279 801.708 535.94C801.708 516.602 815.722 516.176 818.751 516.176ZM818.751 550.058C827.353 550.058 828.988 541.694 828.988 535.94C828.988 530.187 827.349 521.823 818.751 521.823C810.158 521.823 808.514 530.187 808.514 535.94C808.514 541.694 810.154 550.058 818.751 550.058Z" fill="#1560BD"/>
<path d="M858.661 517.294C867.508 517.294 869.245 522.622 869.245 526.724C869.245 530.826 866.857 534.076 863.481 534.715V534.822C866.363 535.354 870.689 537.486 870.689 544.144C870.689 553.574 863.182 554.587 857.966 554.587H842.258V517.294H858.661ZM848.62 532.424H857.017C860.545 532.424 862.683 531.253 862.683 528.002C862.683 523.048 858.211 522.941 856.87 522.941H848.62V532.424ZM848.62 548.939H857.315C861.196 548.939 864.127 547.927 864.127 543.398C864.127 538.39 860.1 538.071 857.467 538.071H848.62V548.939Z" fill="#1560BD"/>
<path d="M207.165 293.254V503.413H389.743V293.254H207.165ZM300.908 493.675C258.578 493.675 219.798 472.407 219.798 401.083C219.798 305.38 283.409 301.751 299.49 301.751C358.368 301.751 373.03 341.951 374.21 368.666H335.904C332.122 338.319 310.368 337.023 301.379 337.023C292.391 337.023 261.89 338.837 261.89 399.528C261.89 433.762 276.078 458.404 302.562 458.404C329.046 458.404 335.43 437.914 337.322 424.428H376.103C373.501 451.661 359.551 493.675 300.908 493.675Z" fill="#1560BD"/>
<path d="M496.093 369.909C499.778 336.403 515.254 317.856 520.166 312.47C527.535 304.392 546.45 288 581.822 288C610.805 288 633.898 299.009 647.651 315.762C660.67 331.618 670.986 359.139 670.986 397.433C670.986 441.71 657.721 468.035 645.439 482.393C625.541 505.727 600.241 509.016 581.084 509.016C560.203 509.016 536.869 505.129 518.199 482.989C505.18 467.731 495.848 444.098 494.865 416.876H473.251V503.033H426.336V293.625H473.251V369.909H496.093ZM557.012 345.377C545.467 359.139 543.746 384.568 543.746 398.028C543.746 411.489 545.467 436.918 557.012 450.681C564.873 459.955 574.452 461.749 582.313 461.749C590.174 461.749 599.507 460.851 607.613 450.977C618.422 438.113 620.879 415.377 620.879 398.028C620.879 384.568 619.158 359.139 607.613 345.377C599.507 335.804 589.682 334.308 582.313 334.308C574.943 334.308 565.118 335.804 557.012 345.377Z" fill="#1560BD"/>
<path d="M755.994 503.413H702.643V293.254H870.517V503.413H817.166V341.293H755.994V503.416V503.413Z" fill="#1560BD"/>
</svg>
