<?xml version="1.0" encoding="UTF-8"?>
<svg id="_СЮП-ФИГУРЫ" data-name="СЮП-ФИГУРЫ" xmlns="http://www.w3.org/2000/svg" viewBox="0 0 2000 876">
  <defs>
    <style>
      .cls-1 {
        stroke-width: 0px;
      }
    </style>
  </defs>
  <g id="_СЮП-ЧЕРНЫЙ-ВЕКТОР" data-name="СЮП-ЧЕРНЫЙ-ВЕКТОР">
    <g>
      <path class="cls-1" d="m157.73,748.89c-1.4,15.9-9.21,39-42.29,39-7.54,0-48.44-.75-48.44-53.85,0-43.2,23.17-57.45,47.46-57.45,33.5,0,41.04,22.05,41.88,37.05h-17.73c-1.12-8.7-5.86-21.15-24.15-21.15-21.78,0-28.34,19.05-28.34,40.8,0,24.6,12.56,38.7,30.15,38.7,16.19,0,23.17-11.85,23.73-23.1h17.73Z"/>
      <path class="cls-1" d="m217.2,676.6c8.52,0,47.88,1.2,47.88,55.65s-39.36,55.65-47.88,55.65-47.88-1.2-47.88-55.65,39.36-55.65,47.88-55.65Zm0,95.4c24.15,0,28.76-23.55,28.76-39.75s-4.61-39.75-28.76-39.75-28.75,23.55-28.75,39.75,4.61,39.75,28.75,39.75Z"/>
      <path class="cls-1" d="m313.66,721.74c1.4-18.3,12-45.15,47.32-45.15,8.51,0,47.88,1.2,47.88,55.65s-39.36,55.65-47.88,55.65c-36.85,0-46.76-28.8-47.74-50.25h-12.14v47.1h-17.87v-105h17.87v42h12.56Zm76.08,10.5c0-16.2-4.61-39.75-28.75-39.75s-28.75,23.55-28.75,39.75,4.61,39.75,28.75,39.75,28.75-23.55,28.75-39.75Z"/>
      <path class="cls-1" d="m439.15,748.89c.14,8.7,3.63,23.1,24.99,23.1,13.26,0,21.78-6.15,21.78-17.55,0-13.05-8.38-16.5-19.26-16.5h-13.4v-15.9h11.59c4.19,0,17.17-.3,17.17-13.8,0-9.3-5.58-15.75-19.82-15.75-16.89,0-21.64,9-21.92,18.15h-17.73c.42-27.45,19.82-34.05,41.18-34.05,13.4,0,36.71,3.6,36.71,29.7,0,13.5-7.68,21.75-16.33,23.1v.3c10.61,1.65,20.24,10.2,20.24,26.7,0,12.3-6.28,31.5-41.32,31.5-25.12,0-40.62-11.55-41.6-39h17.73Z"/>
      <path class="cls-1" d="m605.03,721.74c1.4-18.3,12-45.15,47.32-45.15,8.52,0,47.88,1.2,47.88,55.65s-39.36,55.65-47.88,55.65c-36.85,0-46.76-28.8-47.74-50.25h-12.14v47.1h-17.87v-105h17.87v42h12.56Zm76.08,10.5c0-16.2-4.61-39.75-28.76-39.75s-28.75,23.55-28.75,39.75,4.61,39.75,28.75,39.75,28.76-23.55,28.76-39.75Z"/>
      <path class="cls-1" d="m736.25,784.74h-17.87v-105h17.87v42h43.55v-42h17.87v105h-17.87v-47.1h-43.55v47.1Z"/>
      <path class="cls-1" d="m839.26,720.24h25.41c10.61,0,33.92,2.25,33.92,32.85,0,13.05-6.14,31.65-34.06,31.65h-43.13v-105h17.87v40.5Zm0,48.6h21.78c9.49,0,19.12-2.25,19.12-16.65s-11.31-16.05-18.71-16.05h-22.19v32.7Zm85.15-89.1v105h-17.87v-105h17.87Z"/>
      <path class="cls-1" d="m1004.4,679.75h22.33l-32.8,51.3,35.32,53.7h-23.03l-23.45-40.5-23.45,40.5h-23.03l35.32-53.7-32.8-51.3h22.33l21.63,37.95,21.64-37.95Z"/>
      <path class="cls-1" d="m1109.28,784.74h-17.87v-105h79.01v105h-17.87v-89.1h-43.27v89.1Z"/>
      <path class="cls-1" d="m1261.71,722.94v15.9h-49.69v30h56.95v15.9h-74.82v-105h73.28v15.9h-55.42v27.3h49.69Z"/>
      <path class="cls-1" d="m1375.33,768.84l-.84,39.6h-15.63v-23.7h-71.05v23.7h-15.63l-.84-39.6h8.38c6.42-8.85,16.89-27.75,16.89-66.45v-22.65h65.33v89.1h13.4Zm-60.86-73.2v12.6c0,23.25-2.37,40.8-13.54,60.6h43.13v-73.2h-29.59Z"/>
      <path class="cls-1" d="m1395.71,784.74h-19.12l36.85-105h17.87l36.85,105h-19.12l-7.12-22.05h-39.08l-7.12,22.05Zm41.46-37.95l-14.8-46.65-14.8,46.65h29.59Z"/>
      <path class="cls-1" d="m1497.34,784.74h-17.87v-105h63.93v15.9h-46.06v89.1Z"/>
      <path class="cls-1" d="m1599.38,676.6c8.51,0,47.88,1.2,47.88,55.65s-39.36,55.65-47.88,55.65-47.88-1.2-47.88-55.65,39.36-55.65,47.88-55.65Zm0,95.4c24.15,0,28.75-23.55,28.75-39.75s-4.61-39.75-28.75-39.75-28.76,23.55-28.76,39.75,4.61,39.75,28.76,39.75Z"/>
      <path class="cls-1" d="m1683.27,784.74h-17.87v-105h63.93v15.9h-46.06v89.1Z"/>
      <path class="cls-1" d="m1785.31,676.6c8.51,0,47.88,1.2,47.88,55.65s-39.36,55.65-47.88,55.65-47.88-1.2-47.88-55.65,39.36-55.65,47.88-55.65Zm0,95.4c24.15,0,28.75-23.55,28.75-39.75s-4.61-39.75-28.75-39.75-28.76,23.55-28.76,39.75,4.61,39.75,28.76,39.75Z"/>
      <path class="cls-1" d="m1897.4,679.75c24.85,0,29.73,15,29.73,26.55s-6.7,20.7-16.19,22.5v.3c8.1,1.5,20.24,7.5,20.24,26.25,0,26.55-21.08,29.4-35.73,29.4h-44.11v-105h46.06Zm-28.2,42.6h23.59c9.91,0,15.91-3.3,15.91-12.45,0-13.95-12.56-14.25-16.33-14.25h-23.17v26.7Zm0,46.5h24.43c10.89,0,19.12-2.85,19.12-15.6,0-14.1-11.31-15-18.7-15h-24.85v30.6Z"/>
    </g>
    <g id="_СЮП_вектор_" data-name="СЮП (вектор)">
      <path class="cls-1" d="m55.35,39.24v600h520V39.24H55.35Zm266.99,572.2c-120.56,0-231.01-60.72-231.01-264.35,0-273.23,181.17-283.59,226.97-283.59,167.69,0,209.45,114.77,212.81,191.04h-109.1c-10.77-86.64-72.73-90.34-98.33-90.34s-112.47,5.18-112.47,178.45c0,97.74,40.41,168.09,115.84,168.09s93.61-58.5,99-97h110.45c-7.41,77.75-47.14,197.7-214.16,197.7Z"/>
      <path class="cls-1" d="m878.25,258.09c10.49-95.66,54.57-148.61,68.56-163.99,20.99-23.06,74.86-69.86,175.6-69.86,82.55,0,148.32,31.43,187.49,79.26,37.08,45.27,66.46,123.84,66.46,233.17,0,126.41-37.78,201.57-72.76,242.56-56.67,66.62-128.73,76.01-183.29,76.01-59.47,0-125.93-11.1-179.1-74.31-37.08-43.56-63.66-111.03-66.46-188.75h-61.56v245.98h-133.62V40.3h133.62v217.79h65.06Zm173.5-70.04c-32.88,39.29-37.78,111.89-37.78,150.32s4.9,111.03,37.78,150.32c22.39,26.48,49.67,31.6,72.06,31.6s48.97-2.56,72.06-30.75c30.78-36.73,37.78-101.64,37.78-151.17,0-38.43-4.9-111.03-37.78-150.32-23.09-27.33-51.07-31.6-72.06-31.6s-48.97,4.27-72.06,31.6Z"/>
      <path class="cls-1" d="m1618.47,639.24h-151.95V39.24h478.13v600h-151.95V176.39h-174.23v462.86Z"/>
    </g>
  </g>
</svg>
