<svg width="483" height="200" viewBox="0 0 483 200" fill="none" xmlns="http://www.w3.org/2000/svg">
<path d="M23.4612 184.618C23.0992 188.725 21.0797 194.692 12.5258 194.692C10.576 194.692 0 194.498 0 180.783C0 169.624 5.99136 165.943 12.2723 165.943C20.9349 165.943 22.8846 171.639 23.1018 175.513H18.5171C18.2275 173.266 17.0018 170.05 12.2723 170.05C6.64041 170.05 4.9441 174.971 4.9441 180.589C4.9441 186.943 8.1919 190.585 12.7404 190.585C16.9268 190.585 18.7317 187.524 18.8765 184.618H23.4612Z" fill="white"/>
<path d="M38.8399 165.946C41.0405 165.946 51.2209 166.256 51.2209 180.32C51.2209 194.385 41.0431 194.695 38.8399 194.695C36.6368 194.695 26.459 194.385 26.459 180.32C26.459 166.256 36.6368 165.946 38.8399 165.946ZM38.8399 190.588C45.0847 190.588 46.2742 184.505 46.2742 180.32C46.2742 176.136 45.0821 170.053 38.8399 170.053C32.5977 170.053 31.4057 176.136 31.4057 180.32C31.4057 184.505 32.5977 190.588 38.8399 190.588Z" fill="white"/>
<path d="M63.7818 177.605C64.1438 172.879 66.8848 165.943 76.0179 165.943C78.2184 165.943 88.3988 166.253 88.3988 180.318C88.3988 194.382 78.221 194.692 76.0179 194.692C66.4891 194.692 63.9266 187.253 63.6732 181.712H60.534V193.878H55.9131V166.757H60.534V177.605H63.7818ZM83.4547 180.318C83.4547 176.133 82.2627 170.05 76.0205 170.05C69.7783 170.05 68.5862 176.133 68.5862 180.318C68.5862 184.502 69.7783 190.585 76.0205 190.585C82.2627 190.585 83.4547 184.502 83.4547 180.318Z" fill="white"/>
<path d="M96.2325 184.618C96.2687 186.865 97.1711 190.585 102.694 190.585C106.123 190.585 108.326 188.996 108.326 186.052C108.326 182.681 106.159 181.79 103.346 181.79H99.8811V177.683H102.878C103.962 177.683 107.318 177.605 107.318 174.118C107.318 171.716 105.875 170.05 102.193 170.05C97.8254 170.05 96.5971 172.375 96.5247 174.738H91.94C92.0486 167.648 97.0651 165.943 102.588 165.943C106.053 165.943 112.081 166.873 112.081 173.615C112.081 177.102 110.095 179.233 107.858 179.581V179.659C110.602 180.085 113.092 182.294 113.092 186.556C113.092 189.733 111.468 194.692 102.407 194.692C95.9093 194.692 91.9038 191.709 91.6504 184.618H96.2351H96.2325Z" fill="white"/>
<path d="M139.125 177.605C139.487 172.879 142.228 165.943 151.361 165.943C153.561 165.943 163.742 166.253 163.742 180.318C163.742 194.382 153.564 194.692 151.361 194.692C141.832 194.692 139.269 187.253 139.016 181.712H135.877V193.878H131.256V166.757H135.877V177.605H139.125ZM158.798 180.318C158.798 176.133 157.605 170.05 151.363 170.05C145.121 170.05 143.929 176.133 143.929 180.318C143.929 184.502 145.121 190.585 151.363 190.585C157.605 190.585 158.798 184.502 158.798 180.318Z" fill="white"/>
<path d="M173.056 193.878H168.436V166.757H173.056V177.605H184.318V166.757H188.939V193.878H184.318V181.712H173.056V193.878Z" fill="white"/>
<path d="M199.693 177.218H206.264C209.008 177.218 215.035 177.799 215.035 185.703C215.035 189.074 213.448 193.878 206.228 193.878H195.075V166.757H199.696V177.218H199.693ZM199.693 189.771H205.325C207.779 189.771 210.27 189.19 210.27 185.471C210.27 181.751 207.345 181.325 205.431 181.325H199.693V189.771ZM221.712 166.757V193.878H217.091V166.757H221.712Z" fill="white"/>
<path d="M242.395 166.759H248.169L239.688 180.01L248.821 193.881H242.866L236.802 183.42L230.738 193.881H224.783L233.916 180.01L225.435 166.759H231.209L236.805 176.562L242.4 166.759H242.395Z" fill="white"/>
<path d="M269.514 193.878H264.894V166.757H285.324V193.878H280.703V170.864H269.514V193.878Z" fill="white"/>
<path d="M308.931 177.915V182.022H296.082V189.771H310.808V193.878H291.461V166.757H310.41V170.864H296.079V177.915H308.928H308.931Z" fill="white"/>
<path d="M338.311 189.771L338.094 200H334.052V193.878H315.68V200H311.638L311.421 189.771H313.588C315.248 187.485 317.955 182.604 317.955 172.607V166.757H334.848V189.771H338.314H338.311ZM322.574 170.864V174.118C322.574 180.124 321.961 184.657 319.072 189.771H330.225V170.864H322.574Z" fill="white"/>
<path d="M343.582 193.878H338.638L348.166 166.757H352.787L362.316 193.878H357.372L355.531 188.183H345.425L343.584 193.878H343.582ZM354.303 184.076L350.476 172.026L346.649 184.076H354.3H354.303Z" fill="white"/>
<path d="M369.861 193.878H365.24V166.757H381.771V170.864H369.861V193.878Z" fill="white"/>
<path d="M396.248 165.946C398.449 165.946 408.629 166.256 408.629 180.32C408.629 194.385 398.451 194.695 396.248 194.695C394.045 194.695 383.867 194.385 383.867 180.32C383.867 166.256 394.045 165.946 396.248 165.946ZM396.248 190.588C402.493 190.588 403.682 184.505 403.682 180.32C403.682 176.136 402.49 170.053 396.248 170.053C390.006 170.053 388.811 176.136 388.811 180.32C388.811 184.505 390.003 190.588 396.248 190.588Z" fill="white"/>
<path d="M417.941 193.878H413.32V166.757H429.851V170.864H417.941V193.878Z" fill="white"/>
<path d="M444.326 165.946C446.527 165.946 456.707 166.256 456.707 180.32C456.707 194.385 446.529 194.695 444.326 194.695C442.123 194.695 431.945 194.385 431.945 180.32C431.945 166.256 442.123 165.946 444.326 165.946ZM444.326 190.588C450.571 190.588 451.761 184.505 451.761 180.32C451.761 176.136 450.568 170.053 444.326 170.053C438.084 170.053 436.889 176.136 436.889 180.32C436.889 184.505 438.081 190.588 444.326 190.588Z" fill="white"/>
<path d="M473.311 166.759C479.737 166.759 480.998 170.634 480.998 173.617C480.998 176.601 479.266 178.964 476.812 179.429V179.507C478.906 179.894 482.046 181.444 482.046 186.287C482.046 193.145 476.595 193.881 472.806 193.881H461.4V166.759H473.311ZM466.019 177.763H472.119C474.681 177.763 476.233 176.911 476.233 174.547C476.233 170.944 472.985 170.866 472.01 170.866H466.019V177.763ZM466.019 189.774H472.336C475.152 189.774 477.28 189.038 477.28 185.744C477.28 182.102 474.355 181.87 472.444 181.87H466.019V189.774Z" fill="white"/>
<path d="M0.120117 3.82106V156.664H132.729V3.82106H0.120117ZM68.2072 149.582C37.4623 149.582 9.29564 134.114 9.29564 82.242C9.29564 12.6401 55.4971 10.001 67.1769 10.001C109.941 10.001 120.59 39.2372 121.447 58.6661H93.6248C90.8782 36.5956 75.0774 35.6531 68.5489 35.6531C62.0205 35.6531 39.8671 36.9726 39.8671 81.111C39.8671 106.009 50.1724 123.93 69.4083 123.93C88.6443 123.93 93.2805 109.028 94.6551 99.2203H122.822C120.932 119.026 110.8 149.582 68.2072 149.582Z" fill="white"/>
<path d="M209.973 59.5704C212.649 35.2022 223.89 21.7138 227.457 17.796C232.81 11.9217 246.548 0 272.239 0C293.29 0 310.063 8.0064 320.052 20.1905C329.508 31.7225 337 51.7372 337 79.5877C337 111.789 327.366 130.935 318.445 141.377C303.993 158.347 285.617 160.739 271.703 160.739C256.537 160.739 239.589 157.912 226.029 141.81C216.573 130.713 209.795 113.526 209.081 93.7281H193.382V156.388H159.307V4.09109H193.382V59.5704H209.973ZM254.219 41.7286C245.834 51.7372 244.584 70.2311 244.584 80.0207C244.584 89.8103 245.834 108.304 254.219 118.313C259.929 125.058 266.886 126.363 272.596 126.363C278.305 126.363 285.084 125.71 290.972 118.529C298.822 109.173 300.607 92.6379 300.607 80.0207C300.607 70.2311 299.357 51.7372 290.972 41.7286C285.084 34.7666 277.948 33.6789 272.596 33.6789C267.243 33.6789 260.107 34.7666 254.219 41.7286Z" fill="white"/>
<path d="M398.742 156.664H359.992V3.82106H481.924V156.664H443.174V38.7583H398.742V156.666V156.664Z" fill="white"/>
</svg>
