<svg width="1359" height="562" viewBox="0 0 1359 562" fill="none" xmlns="http://www.w3.org/2000/svg">
<path d="M66.0119 518.777C64.9934 530.317 59.3112 547.085 35.2434 547.085C29.7573 547.085 0 546.539 0 508C0 476.643 16.8577 466.3 34.5301 466.3C58.9038 466.3 64.3896 482.306 65.0007 493.192H52.1009C51.2861 486.877 47.8374 477.841 34.5301 477.841C18.6839 477.841 13.911 491.669 13.911 507.455C13.911 525.31 23.0493 535.544 35.8472 535.544C47.6263 535.544 52.7047 526.942 53.1121 518.777H66.0119Z" fill="#4D94EB"/>
<path d="M109.282 466.308C115.474 466.308 144.118 467.179 144.118 506.699C144.118 546.222 115.481 547.093 109.282 547.093C103.083 547.093 74.4463 546.222 74.4463 506.699C74.4463 467.179 103.083 466.308 109.282 466.308ZM109.282 535.552C126.853 535.552 130.2 518.459 130.2 506.699C130.2 494.942 126.845 477.849 109.282 477.849C91.7185 477.849 88.3646 494.942 88.3646 506.699C88.3646 518.459 91.7185 535.552 109.282 535.552Z" fill="#4D94EB"/>
<path d="M179.46 499.07C180.479 485.79 188.191 466.3 213.888 466.3C220.08 466.3 248.724 467.171 248.724 506.694C248.724 546.213 220.087 547.085 213.888 547.085C187.078 547.085 179.868 526.181 179.155 510.611H170.322V544.797H157.32V468.587H170.322V499.07H179.46ZM234.813 506.694C234.813 494.934 231.459 477.841 213.896 477.841C196.332 477.841 192.978 494.934 192.978 506.694C192.978 518.451 196.332 535.544 213.896 535.544C231.459 535.544 234.813 518.451 234.813 506.694Z" fill="#4D94EB"/>
<path d="M270.766 518.777C270.867 525.091 273.406 535.544 288.946 535.544C298.594 535.544 304.793 531.079 304.793 522.806C304.793 513.334 298.695 510.83 290.781 510.83H281.031V499.289H289.464C292.514 499.289 301.956 499.07 301.956 489.272C301.956 482.522 297.896 477.841 287.536 477.841C275.247 477.841 271.791 484.374 271.588 491.014H258.688C258.993 471.091 273.108 466.3 288.648 466.3C298.397 466.3 315.358 468.913 315.358 487.858C315.358 497.657 309.77 503.645 303.476 504.623V504.842C311.197 506.039 318.203 512.246 318.203 524.222C318.203 533.15 313.633 547.085 288.139 547.085C269.856 547.085 258.586 538.702 257.873 518.777H270.773H270.766Z" fill="#4D94EB"/>
<path d="M391.451 499.07C392.47 485.79 400.182 466.3 425.879 466.3C432.069 466.3 460.715 467.171 460.715 506.694C460.715 546.213 432.078 547.085 425.879 547.085C399.068 547.085 391.856 526.181 391.145 510.611H382.312V544.797H369.311V468.587H382.312V499.07H391.451ZM446.805 506.694C446.805 494.934 443.448 477.841 425.885 477.841C408.322 477.841 404.968 494.934 404.968 506.694C404.968 518.451 408.322 535.544 425.885 535.544C443.448 535.544 446.805 518.451 446.805 506.694Z" fill="#4D94EB"/>
<path d="M486.922 544.797H473.923V468.587H486.922V499.07H518.609V468.587H531.611V544.797H518.609V510.611H486.922V544.797Z" fill="#4D94EB"/>
<path d="M561.869 497.983H580.358C588.079 497.983 605.037 499.615 605.037 521.825C605.037 531.298 600.571 544.797 580.257 544.797H548.876V468.587H561.878V497.983H561.869ZM561.869 533.256H577.716C584.621 533.256 591.63 531.624 591.63 521.173C591.63 510.72 583.4 509.523 578.014 509.523H561.869V533.256ZM623.824 468.587V544.797H610.822V468.587H623.824Z" fill="#4D94EB"/>
<path d="M682.018 468.593H698.264L674.402 505.828L700.099 544.806H683.343L666.281 515.41L649.219 544.806H632.464L658.161 505.828L634.298 468.593H650.544L666.29 496.139L682.032 468.593H682.018Z" fill="#4D94EB"/>
<path d="M758.322 544.797H745.323V468.587H802.806V544.797H789.804V480.128H758.322V544.797Z" fill="#4D94EB"/>
<path d="M869.228 499.941V511.482H833.075V533.256H874.509V544.797H820.073V468.587H873.389V480.128H833.067V499.941H869.22H869.228Z" fill="#4D94EB"/>
<path d="M951.894 533.256L951.283 562H939.91V544.797H888.218V562H876.845L876.234 533.256H882.332C887.002 526.833 894.619 513.117 894.619 485.026V468.587H942.15V533.256H951.902H951.894ZM907.615 480.128V489.272C907.615 506.148 905.89 518.886 897.762 533.256H929.143V480.128H907.615Z" fill="#4D94EB"/>
<path d="M966.724 544.797H952.813L979.622 468.587H992.624L1019.44 544.797H1005.52L1000.34 528.794H971.91L966.73 544.797H966.724ZM996.89 517.254L986.122 483.393L975.354 517.254H996.881H996.89Z" fill="#4D94EB"/>
<path d="M1040.67 544.797H1027.66V468.587H1074.18V480.128H1040.67V544.797Z" fill="#4D94EB"/>
<path d="M1114.91 466.308C1121.1 466.308 1149.75 467.179 1149.75 506.699C1149.75 546.222 1121.11 547.093 1114.91 547.093C1108.71 547.093 1080.07 546.222 1080.07 506.699C1080.07 467.179 1108.71 466.308 1114.91 466.308ZM1114.91 535.552C1132.48 535.552 1135.83 518.459 1135.83 506.699C1135.83 494.942 1132.47 477.849 1114.91 477.849C1097.35 477.849 1093.98 494.942 1093.98 506.699C1093.98 518.459 1097.34 535.552 1114.91 535.552Z" fill="#4D94EB"/>
<path d="M1175.95 544.797H1162.94V468.587H1209.46V480.128H1175.95V544.797Z" fill="#4D94EB"/>
<path d="M1250.18 466.308C1256.38 466.308 1285.02 467.179 1285.02 506.699C1285.02 546.222 1256.38 547.093 1250.18 547.093C1243.99 547.093 1215.35 546.222 1215.35 506.699C1215.35 467.179 1243.99 466.308 1250.18 466.308ZM1250.18 535.552C1267.76 535.552 1271.1 518.459 1271.1 506.699C1271.1 494.942 1267.75 477.849 1250.18 477.849C1232.62 477.849 1229.26 494.942 1229.26 506.699C1229.26 518.459 1232.61 535.552 1250.18 535.552Z" fill="#4D94EB"/>
<path d="M1331.74 468.593C1349.82 468.593 1353.37 479.482 1353.37 487.864C1353.37 496.249 1348.49 502.889 1341.59 504.195V504.415C1347.48 505.502 1356.32 509.858 1356.32 523.466C1356.32 542.737 1340.98 544.806 1330.32 544.806H1298.22V468.593H1331.74ZM1311.22 499.514H1328.38C1335.59 499.514 1339.96 497.12 1339.96 490.477C1339.96 480.353 1330.82 480.133 1328.08 480.133H1311.22V499.514ZM1311.22 533.265H1328.99C1336.92 533.265 1342.91 531.197 1342.91 521.941C1342.91 511.707 1334.68 511.055 1329.3 511.055H1311.22V533.265Z" fill="#4D94EB"/>
<path d="M0.337891 10.7372V440.226H373.455V10.7372H0.337891ZM191.912 420.325C105.406 420.325 26.1547 376.86 26.1547 231.1C26.1547 35.5187 156.15 28.1028 189.013 28.1028C309.337 28.1028 339.3 110.257 341.711 164.852H263.429C255.701 102.834 211.243 100.185 192.874 100.185C174.505 100.185 112.173 103.893 112.173 227.922C112.173 297.885 141.168 348.243 195.292 348.243C249.415 348.243 262.46 306.369 266.328 278.809H345.58C340.262 334.463 311.754 420.325 191.912 420.325Z" fill="#4D94EB"/>
<path d="M590.793 167.393C598.323 98.9182 629.951 61.0158 639.988 50.0068C655.049 33.5 693.703 0 765.989 0C825.22 0 872.413 22.498 900.519 56.7353C927.125 89.1402 948.205 145.382 948.205 223.641C948.205 314.127 921.098 367.927 895.997 397.269C855.334 444.955 803.63 451.677 764.481 451.677C721.809 451.677 674.123 443.733 635.97 398.486C609.364 367.304 590.293 319.008 588.284 263.376H544.112V439.45H448.236V11.496H544.112V167.393H590.793ZM715.287 117.257C691.694 145.382 688.177 197.349 688.177 224.858C688.177 252.367 691.694 304.334 715.287 332.46C731.353 351.413 750.928 355.08 766.994 355.08C783.057 355.08 802.131 353.245 818.697 333.066C840.785 306.776 845.807 260.312 845.807 224.858C845.807 197.349 842.29 145.382 818.697 117.257C802.131 97.6941 782.052 94.6377 766.994 94.6377C751.932 94.6377 731.854 97.6941 715.287 117.257Z" fill="#4D94EB"/>
<path d="M1121.93 440.226H1012.9V10.7372H1355.97V440.226H1246.94V108.911H1121.93V440.232V440.226Z" fill="#4D94EB"/>
</svg>
