<svg width="128" height="128" viewBox="0 0 128 128" fill="none" xmlns="http://www.w3.org/2000/svg">
<path fill-rule="evenodd" clip-rule="evenodd" d="M57.3923 10.1178C53.3934 3.39642 44.6418 0.89426 37.7423 4.97271L27.4774 10.8468C19.9062 15.175 17.3391 24.8798 21.6642 32.3656L21.6673 32.3709C23.8984 36.2202 23.5482 38.6792 22.8518 39.8877C22.155 41.0969 20.2039 42.6293 15.7694 42.6293C7.04101 42.6293 0 49.7605 0 58.3987V68.872C0 77.5106 7.04101 84.6414 15.7694 84.6414C20.2039 84.6414 22.155 86.1737 22.8518 87.3829C23.5482 88.5915 23.8984 91.0503 21.6673 94.8998L21.6642 94.9052C17.3391 102.391 19.9086 112.097 27.4798 116.425L37.7429 122.298C44.6422 126.376 53.3934 123.874 57.3923 117.153L58.0737 115.977C60.3052 112.127 62.6194 111.196 64.022 111.196C65.4187 111.196 67.715 112.119 69.9168 115.96L69.9263 115.977L70.5809 117.107L70.6077 117.153C74.6066 123.874 83.3577 126.376 90.257 122.298L100.523 116.424C108.099 112.093 110.65 102.455 106.347 94.9236L106.333 94.8998C104.101 91.0503 104.452 88.5915 105.148 87.3829C105.845 86.1737 107.796 84.6414 112.231 84.6414C120.959 84.6414 128 77.5106 128 68.872V58.3987C128 49.6704 120.869 42.6293 112.231 42.6293C107.796 42.6293 105.845 41.0969 105.148 39.8877C104.452 38.6792 104.101 36.2202 106.333 32.3709L106.336 32.3656C110.661 24.8791 108.093 15.1729 100.52 10.8455L90.2575 4.97271C83.3583 0.89426 74.6066 3.39618 70.6077 10.1176L69.9263 11.2942C67.6948 15.1438 65.3806 16.0743 63.9774 16.0743C62.5813 16.0743 60.285 15.1517 58.0832 11.3107L58.0737 11.2942L57.4191 10.1634L57.3923 10.1178ZM81.8224 63.6353C81.8224 73.4951 73.83 81.4875 63.9702 81.4875C54.1105 81.4875 46.1181 73.4951 46.1181 63.6353C46.1181 53.7756 54.1105 45.7832 63.9702 45.7832C73.83 45.7832 81.8224 53.7756 81.8224 63.6353Z" fill="#1560BD"/>
</svg>
