<svg width="128" height="128" viewBox="0 0 128 128" fill="none" xmlns="http://www.w3.org/2000/svg">
<g clip-path="url(#clip0_11_103)">
<path fill-rule="evenodd" clip-rule="evenodd" d="M0 35.7209C0 15.9928 15.9928 0 35.7209 0H92.2791C112.007 0 128 15.9928 128 35.7209V92.2791C128 112.007 112.007 128 92.2791 128H35.7209C15.9928 128 0 112.007 0 92.2791V35.7209ZM64 23.814C66.4659 23.814 68.4651 25.8131 68.4651 28.2791V81.8605C68.4651 84.3264 66.4659 86.3256 64 86.3256C61.5341 86.3256 59.5349 84.3264 59.5349 81.8605V28.2791C59.5349 25.8131 61.5341 23.814 64 23.814ZM64 93.7674C60.7119 93.7674 58.0465 96.4328 58.0465 99.7209C58.0465 103.009 60.7119 105.674 64 105.674H64.0595C67.3476 105.674 70.013 103.009 70.013 99.7209C70.013 96.4328 67.3476 93.7674 64.0595 93.7674H64Z" fill="#1560BD"/>
</g>
<defs>
<clipPath id="clip0_11_103">
<rect width="128" height="128" fill="white"/>
</clipPath>
</defs>
</svg>
