<svg width="128" height="128" viewBox="0 0 128 128" fill="none" xmlns="http://www.w3.org/2000/svg">
<g clip-path="url(#clip0_9_4)">
<path d="M84.2488 54.1438C84.5986 57.5736 84.7992 60.893 84.7992 63.9998C84.7992 69.8152 84.0964 76.3822 83.0212 83.0218C76.3817 84.097 69.8147 84.7998 63.9992 84.7998C58.2099 84.7998 51.645 84.0988 44.9767 83.02C43.9021 76.3804 43.1992 69.8146 43.1992 63.9998C43.1992 60.8943 43.3997 57.5742 43.7502 54.1438C50.7487 55.2641 57.7303 55.9998 63.9992 55.9998C70.2688 55.9998 77.2502 55.2641 84.2488 54.1438Z" fill="#1560BD"/>
<path d="M93.7165 52.4152C94.1492 56.429 94.4009 60.3366 94.4009 63.9998C94.4009 69.3448 93.8658 75.2084 93.0137 81.1598C105.098 78.6382 116.268 75.4168 122.251 73.5828C124.185 72.9903 124.945 72.7544 125.964 72.3467C126.473 72.1431 126.94 71.9358 127.549 71.6451C127.847 69.1381 128.001 66.5867 128.001 63.9998C128.001 57.161 126.928 50.5729 124.942 44.3943L124.425 44.5571C118.168 46.4605 106.455 49.8254 93.7165 52.4152Z" fill="#1560BD"/>
<path d="M121.305 35.4711C115.015 37.3772 104.1 40.4747 92.4025 42.8862C89.7078 26.5097 84.9852 10.176 82.7129 2.7793C99.6089 7.93763 113.537 19.8989 121.305 35.4711Z" fill="#1560BD"/>
<path d="M82.9655 44.6311C76.3436 45.7009 69.7973 46.3999 63.9989 46.3999C58.2006 46.3999 51.6547 45.7009 45.0332 44.6311C47.5705 29.1355 52.0998 13.3063 54.416 5.74981C55.0085 3.81598 55.2444 3.05639 55.6521 2.0369C55.8557 1.52759 56.063 1.06045 56.3537 0.4519C58.8607 0.153478 61.4121 0 63.9989 0C66.7016 0 69.3646 0.167497 71.9794 0.492677C72.0349 0.704852 72.0861 0.894719 72.1367 1.07435C72.2866 1.60506 72.5213 2.35093 72.915 3.60252L72.9565 3.734C74.9307 10.0098 80.1629 27.5139 82.9655 44.6311Z" fill="#1560BD"/>
<path d="M35.597 42.8861C38.2793 26.5818 42.9711 10.3361 45.2389 2.9368L45.2871 2.7793C28.3908 7.93757 14.4628 19.8988 6.69531 35.471C12.9846 37.3772 23.8997 40.4746 35.597 42.8861Z" fill="#1560BD"/>
<path d="M3.05883 44.3943C1.07264 50.573 0 57.1611 0 63.9999C0 66.6751 0.164144 69.3119 0.482925 71.9012L1.49156 72.2376L1.49961 72.2401L1.50948 72.2437L1.51643 72.2455C1.84106 72.3534 11.3557 75.4955 23.8859 78.6132C27.4216 79.4928 31.1653 80.3619 34.987 81.1586C34.1348 75.2078 33.6 69.3448 33.6 63.9999C33.6 60.3355 33.8513 56.4278 34.284 52.4153C21.5423 49.8246 9.82661 46.4586 3.57162 44.5554L3.5281 44.5422L3.05883 44.3943Z" fill="#1560BD"/>
<path d="M64.0012 94.4C69.3461 94.4 75.2097 93.8648 81.1611 93.0127C78.6395 105.097 75.4182 116.267 73.5841 122.25C72.9917 124.184 72.7558 124.943 72.348 125.963C72.1444 126.472 71.9372 126.939 71.6465 127.548C69.1395 127.846 66.588 128 64.0012 128C61.4144 128 58.8629 127.846 56.356 127.548C56.0652 126.939 55.858 126.472 55.6544 125.963C55.2466 124.944 55.0107 124.184 54.4183 122.25C52.5842 116.267 49.3633 105.098 46.8418 93.0151C52.7732 93.8642 58.638 94.4 64.0012 94.4Z" fill="#1560BD"/>
<path d="M21.568 87.9291C13.6444 85.9573 6.89589 83.9769 2.7793 82.7134C8.97577 103.01 24.9894 119.024 45.2866 125.22L45.2384 125.063C43.2582 118.602 39.4299 105.397 36.705 91.2967C31.4057 90.2721 26.2536 89.0945 21.568 87.9291Z" fill="#1560BD"/>
<path d="M125.063 82.7615C118.602 84.7419 105.395 88.5703 91.2944 91.2949C88.5698 105.396 84.7414 118.601 82.761 125.063L82.7129 125.22C103.01 119.024 119.023 103.01 125.22 82.7134L125.063 82.7615Z" fill="#1560BD"/>
<path d="M0.671875 72.0637C0.893437 72.0924 1.07404 72.1228 1.13395 72.1363C1.18643 72.1491 1.26866 72.171 1.29846 72.1789L1.36435 72.1978L1.39983 72.2088L1.43713 72.2204L1.4684 72.2301C1.45085 72.2246 1.09525 72.1356 0.671875 72.0637Z" fill="#1560BD"/>
</g>
<defs>
<clipPath id="clip0_9_4">
<rect width="128" height="128" fill="white"/>
</clipPath>
</defs>
</svg>
