<svg width="128" height="128" viewBox="0 0 128 128" fill="none" xmlns="http://www.w3.org/2000/svg">
<path d="M110.229 17H17.7708C7.95675 17 0 24.9567 0 34.7707V93.2668C0 103.081 7.95675 111.038 17.7708 111.038H110.229C120.043 111.038 128 103.081 128 93.2668V34.7707C128 24.9567 120.043 17 110.229 17ZM44.5415 80.4487L19.6565 101.679C17.9012 103.177 15.2625 102.969 13.7647 101.212C12.2667 99.4563 12.475 96.8175 14.2323 95.3197L39.1172 74.0897C40.8722 72.5917 43.5108 72.8 45.0088 74.5572C46.5068 76.3122 46.2985 78.951 44.5415 80.4487ZM64 72.3778C60.6715 72.3695 57.445 71.2635 54.9225 69.082L54.9245 69.084L54.9165 69.078C54.9185 69.08 54.9208 69.08 54.9225 69.082L16.7405 35.9422C14.9955 34.4277 14.8098 31.7892 16.322 30.0465C17.8363 28.3015 20.475 28.1157 22.2175 29.628L60.4103 62.776C61.2265 63.5025 62.5715 64.027 64 64.0187C65.4265 64.023 66.7488 63.5127 67.61 62.7617L67.6285 62.7455L105.782 29.6283C107.525 28.116 110.164 28.3017 111.678 30.0467C113.19 31.7892 113.004 34.428 111.259 35.9425L73.067 69.0923C70.5528 71.251 67.3305 72.3735 64 72.3778ZM114.237 101.212C112.739 102.969 110.1 103.177 108.345 101.679L83.4605 80.4487C81.7035 78.9507 81.4952 76.3122 82.9932 74.5572C84.491 72.8 87.1298 72.592 88.8848 74.0897L113.77 95.3197C115.527 96.8175 115.735 99.4563 114.237 101.212Z" fill="#1560BD"/>
</svg>
