<?xml version="1.0" encoding="UTF-8"?>
<svg xmlns="http://www.w3.org/2000/svg" viewBox="0 0 1500 1500">
  <defs>
    <style>
      .cls-1 {
        fill: #e77843;
      }

      .cls-1, .cls-2, .cls-3, .cls-4, .cls-5, .cls-6, .cls-7 {
        stroke-miterlimit: 10;
      }

      .cls-1, .cls-3 {
        stroke-width: 5px;
      }

      .cls-1, .cls-7 {
        stroke: #be526c;
      }

      .cls-2 {
        fill: #fff974;
        stroke: #f7c5b4;
        stroke-width: 16px;
      }

      .cls-3, .cls-5 {
        stroke: #29166f;
      }

      .cls-3, .cls-5, .cls-6 {
        fill: none;
      }

      .cls-4 {
        fill: #f7c5b4;
        stroke: #e8775f;
        stroke-width: 8px;
      }

      .cls-8 {
        fill: #a1db87;
      }

      .cls-8, .cls-9, .cls-10, .cls-11, .cls-12 {
        stroke-width: 0px;
      }

      .cls-9 {
        fill: #fff;
      }

      .cls-10 {
        fill: #db251d;
      }

      .cls-5, .cls-6 {
        stroke-width: 40px;
      }

      .cls-11 {
        fill: #29166f;
      }

      .cls-12 {
        fill: #f0bc23;
      }

      .cls-6 {
        stroke: #93bcd3;
      }

      .cls-7 {
        fill: #f5c490;
        stroke-width: 10px;
      }
    </style>
  </defs>
  <g id="_Белый_эллипс_2022" data-name="Белый эллипс 2022">
    <circle id="_Эллипс_белая_основа" data-name="&amp;lt;Эллипс&amp;gt; белая основа" class="cls-9" cx="752" cy="750" r="735"/>
  </g>
  <g id="_Основа_логотипа_2022" data-name="Основа логотипа 2022">
    <circle id="_Эллипс_голубой_малый" data-name="&amp;lt;Эллипс&amp;gt; голубой малый" class="cls-6" cx="750.5" cy="750.5" r="501.5"/>
    <circle id="_Эллипс_голубой" data-name="&amp;lt;Эллипс&amp;gt; голубой" class="cls-6" cx="750.5" cy="750.5" r="639.5"/>
    <circle id="_Эллипс_синий_тонкий_бортик" data-name="&amp;lt;Эллипс&amp;gt; синий тонкий бортик" class="cls-3" cx="750.5" cy="750.5" r="735"/>
    <circle id="_Эллипс_синий_основной" data-name="&amp;lt;Эллипс&amp;gt; синий основной" class="cls-5" cx="750.99" cy="750.99" r="677.17"/>
  </g>
  <g id="_Содержимое_-_цветок" data-name="Содержимое - цветок">
    <rect class="cls-8" x="733" y="616" width="23" height="150"/>
    <path class="cls-8" d="M753.64,734s17.36-16,49.36-16c27.72,0,121.45,6,189.58-20.98,7.32-2.9,5.05-13.81-2.82-13.59-19.54.56-43.37.65-57.55-1.43-27.2-4-123.92-38-178.56,52Z"/>
    <path class="cls-8" d="M744,735s-36.83-15.24-108.92-19.12c-64.33-3.46-112.66-1.45-146.48-32.24-4.9-4.46-1.66-12.64,4.97-12.64h79.43s101,3,171,64Z"/>
    <path class="cls-7" d="M735.12,628.08c-46.18,25.29-181.89,86.26-146.51-93.19,2.37-12.04-1.73-24.45-10.85-32.67-38.68-34.86-125.27-131.03,56.07-161.79,11.95-2.03,22.02-10,26.86-21.11,21.08-48.33,86.72-165.34,173.61,2.21,5.05,9.75,14.35,16.58,25.16,18.5,49.4,8.79,180.14,43.96,53.83,158.24-10.21,9.23-14.21,23.55-10.12,36.69,15.72,50.51,36.72,167.12-137.13,91.69-9.98-4.33-21.39-3.8-30.93,1.43Z"/>
    <path class="cls-4" d="M734.37,585.25c-37.08,19.68-131.54,58.82-108.42-67.92,2.13-11.68-1.8-23.61-10.47-31.71-30.06-28.1-85.93-95.71,41.72-118.82,11.21-2.03,20.74-9.4,25.45-19.78,17.14-37.78,65.09-116.83,128.08,1.54,4.95,9.3,13.79,15.92,24.14,17.91,39.03,7.51,127.82,34.44,40.58,115.95-9.6,8.97-13.22,22.63-9.59,35.26,11.41,39.73,21.29,118.22-101.57,66.26-9.67-4.09-20.65-3.62-29.92,1.3Z"/>
    <path class="cls-1" d="M734.53,541.94c-26.35,13.38-83.65,34.42-71.04-43.71,1.65-10.21-1.82-20.6-9.2-27.85-20.32-19.99-50.61-61.45,27.19-77,9.86-1.97,18.22-8.44,22.59-17.5,12.6-26.09,43.37-70.94,83.34,1.29,4.52,8.17,12.31,13.99,21.44,15.95,27.2,5.83,78.65,24.16,27.12,74.79-8.14,8-11.3,19.74-8.48,30.8,6.97,27.33,9.3,72.98-66.47,42.2-8.58-3.48-18.25-3.16-26.5,1.03Z"/>
    <circle class="cls-2" cx="744.5" cy="446.5" r="27.5"/>
  </g>
  <g id="_Содержимое_-_книга" data-name="Содержимое - книга">
    <path class="cls-11" d="M727.88,1222.67c-32.73-10.78-111.92-39.31-229.47-39.37-7.12,0-13.19-5.2-14.3-12.24l-59.92-379.83c-1.55-9.81,6.9-17.57,16.79-16.56q299.02,30.34,606.31.24c9.91-.97,18.46,6.52,17.01,16.37l-54.54,371.68c-1,6.8-7.44,12.38-14.31,12.39-118.67.11-207.32,33.82-240.67,46.66-7.34,2.82-19.43,3.11-26.9.65Z"/>
    <path class="cls-12" d="M494.69,707.48c-11.86-1.93-23.91,2.05-32.41,10.7l-21.89,22.26c-7.77,6.98-4.75,20.2,5.34,22.58,1.16.27,2.36.47,3.58.59,296.57,29.37,295.6,31.36,591.12-.24.1-.01.19-.02.29-.03,11.17-1.3,15.08-15.52,7-22.8-1.06-.96-2.09-1.95-3.04-3.02l-16.07-17.91c-8.52-9.49-21.13-13.98-33.58-11.96,0,0-167.78,30.06-223.8,39.55q-26.32,2.99-53.62,0c-55.8-9.51-222.91-39.72-222.91-39.72Z"/>
    <path class="cls-9" d="M559.37,1142.72l102.89-296.94c2.24-6.45,8.32-10.78,15.15-10.78h141.29c6.6,0,12.52,4.04,14.93,10.18l116.32,296.94c4.12,10.51-3.63,21.88-14.93,21.88h-84.23c-7.35,0-13.76-5-15.55-12.14l-12.23-48.82c-1.78-7.09-8.12-12.08-15.43-12.14l-105.73-.81c-7.51-.06-14.06,5.11-15.74,12.43l-11.29,49.04c-1.68,7.28-8.15,12.43-15.62,12.43h-84.68c-11.02,0-18.75-10.86-15.15-21.28Z"/>
    <path class="cls-11" d="M702.08,999.97l18.87-91.97c1.19-5.82,6.32-10,12.26-10h28.36c5.73,0,10.73,3.9,12.14,9.45l23.2,91.97c1.99,7.91-3.98,15.58-12.14,15.58h-70.43c-7.92,0-13.85-7.27-12.26-15.03Z"/>
  </g>
  <g id="_Текст_логотипа_2022_рус_кривые_" data-name="Текст логотипа 2022 (рус) (кривые)">
    <g>
      <path class="cls-10" d="M220.52,780.98l-78.73-1.28.32-19.49,53.95-10.87-53.57-12.52.32-19.58,78.73,1.28-.2,12.14-62.03-1.01,61.82,13.88-.2,12.54-62.23,11.77,62.03,1-.2,12.14Z"/>
      <path class="cls-10" d="M222.58,697.31l-77.51-13.85,2.29-12.8,30.83,5.51,3.25-18.19c1.21-6.77,4.34-11.75,9.41-14.93,5.06-3.19,11.15-4.15,18.27-2.87,5.82,1.04,10.81,3.59,14.98,7.64,4.17,4.06,5.52,10.19,4.05,18.4l-5.55,31.09ZM233.87,634.08l-77.51-13.85,2.29-12.8,77.51,13.85-2.29,12.8ZM191.29,678.52l20.46,3.66,2.41-13.51c.63-3.52.84-6.1.65-7.75-.2-1.65-1.07-3.22-2.62-4.72-1.55-1.49-3.47-2.44-5.76-2.85-6.87-1.23-11.08,2.49-12.63,11.14l-2.51,14.04Z"/>
      <path class="cls-10" d="M228.89,553.06l8.81-10.28c7.65,4.79,12.63,10.02,14.94,15.7,2.31,5.68,2.35,11.67.12,17.98-2.8,7.94-8.13,13.29-15.98,16.06-9.06,3.18-19.58,2.66-31.57-1.57-12.66-4.47-21.56-10.82-26.71-19.06-4.46-7.16-5.21-14.93-2.25-23.32,2.41-6.83,6.76-11.72,13.04-14.67,4.47-2.11,10.23-2.78,17.28-2l-.75,13.41c-4.29-.64-7.92-.18-10.88,1.38-2.96,1.56-5,3.91-6.11,7.06-1.59,4.5-.93,8.86,1.99,13.08,2.91,4.22,8.88,7.93,17.89,11.11,9.35,3.3,16.49,4.27,21.42,2.89,4.93-1.37,8.17-4.27,9.73-8.7,1.14-3.24.88-6.49-.81-9.74-1.68-3.25-5.07-6.37-10.17-9.34Z"/>
      <path class="cls-10" d="M285.3,500.13l-58.11-30.05-8.88,17.17,29.89,15.46c7.79,4.03,13.43,7.24,16.92,9.63,3.5,2.39,5.75,4.99,6.76,7.79,1.01,2.8.47,6.22-1.62,10.26-.61,1.18-2.03,3.53-4.25,7.05l-11.02-5.7,1.31-2.53c1.28-2.48,1.72-4.32,1.31-5.52-.41-1.2-2.22-2.63-5.43-4.29l-51.67-26.72,20.82-40.27,69.94,36.17-5.97,11.55Z"/>
      <path class="cls-10" d="M302.65,469.71l-64.34-45.39,7.15-10.14,42.88,30.25-27.8-51.62,7.52-10.67,64.34,45.39-7.15,10.14-41.96-29.6,26.9,50.95-7.54,10.69Z"/>
      <path class="cls-10" d="M345.66,410.78l-57-54.33,13.45-14.11,47.02,28.6-30.88-45.53,13.51-14.18,57,54.33-8.38,8.79-44.91-42.8,36.03,52.12-8.65,9.08-53.72-33.55,44.91,42.8-8.38,8.79Z"/>
      <path class="cls-10" d="M395.61,340.35l9.46-7.94,6.94,8.27c3.94,4.69,6.31,8.63,7.13,11.83,1.03,3.95.54,7.94-1.46,11.96l-5.86-3.22c1.22-2.33,1.69-4.5,1.42-6.49-.27-1.99-1.39-4.22-3.36-6.68l-4.57,3.83-9.71-11.56Z"/>
      <path class="cls-10" d="M433.83,266.68l-14.29-24.25,11.2-6.6,10.61,18c2.22,3.76,4.03,6.47,5.43,8.11,1.41,1.65,3.23,2.66,5.47,3.04,2.24.38,4.95-.36,8.13-2.23,4.75-2.8,7.82-6.27,9.2-10.41l-17.23-29.25,11.2-6.6,39.97,67.84-11.2,6.6-16.09-27.3c-2.99,5.01-6.71,8.82-11.15,11.44-6.17,3.64-11.99,4.73-17.46,3.27-5.47-1.45-10.07-5.34-13.79-11.67Z"/>
      <path class="cls-10" d="M530.36,247.38l-44.02-42.63,13.44-5.73,29.84,31.71-4.05-42.71,12.4-5.29,3.44,63.58c.39,7.77.01,13.52-1.13,17.24-1.14,3.72-3.33,6.27-6.56,7.64-3.1,1.32-6,2.21-8.69,2.65l-4.61-10.82c2.04-.71,3.57-1.29,4.59-1.72,2.9-1.24,4.68-2.72,5.33-4.44.65-1.72.66-4.88.02-9.49Z"/>
      <path class="cls-10" d="M562.02,174.45l24.91-6.94c6.8-1.89,11.76-2.6,14.87-2.13s6.05,2.01,8.82,4.62c2.77,2.61,4.71,5.9,5.82,9.87,1.02,3.66,1.12,7.19.32,10.59-.81,3.4-2.31,6.17-4.52,8.31,4.05.28,7.56,1.72,10.53,4.32,2.97,2.59,5.09,6.17,6.35,10.72,1.54,5.52,1.51,10.56-.09,15.11-1.6,4.55-4.08,7.78-7.45,9.69-2.35,1.32-8.11,3.26-17.28,5.81l-21.16,5.89-21.12-75.86ZM578.06,183.59l4.88,17.54,8.28-2.31c4.97-1.38,8.01-2.32,9.14-2.82,2.04-.94,3.46-2.31,4.26-4.11.8-1.8.85-3.96.15-6.48-.62-2.24-1.62-3.92-2.99-5.05s-2.8-1.66-4.3-1.62c-1.49.04-5.55.99-12.17,2.83l-7.24,2.02ZM586.45,213.75l5.63,20.23,11.66-3.25c5.11-1.42,8.32-2.6,9.63-3.54,1.3-.94,2.23-2.33,2.78-4.17.55-1.84.49-3.96-.18-6.37-.69-2.48-1.78-4.37-3.28-5.67-1.5-1.31-3.21-2.02-5.12-2.13-1.91-.12-5.57.58-10.96,2.08l-10.16,2.83Z"/>
      <path class="cls-10" d="M691.54,197.9l13.16,3.18c-.79,8.99-3.19,15.8-7.2,20.44-4.01,4.63-9.33,7.39-15.97,8.27-8.34,1.11-15.53-1.21-21.57-6.94-6.95-6.63-11.26-16.24-12.93-28.84-1.77-13.31-.15-24.13,4.86-32.45,4.36-7.22,10.94-11.42,19.75-12.59,7.18-.95,13.51.7,18.99,4.96,3.91,3.02,7.12,7.85,9.63,14.49l-12.28,5.42c-1.38-4.11-3.44-7.14-6.17-9.07-2.74-1.93-5.76-2.68-9.06-2.24-4.73.63-8.32,3.2-10.75,7.71-2.44,4.52-3.03,11.51-1.77,20.99,1.31,9.83,3.69,16.63,7.15,20.4,3.46,3.77,7.52,5.34,12.17,4.72,3.41-.45,6.18-2.17,8.31-5.14,2.13-2.97,3.37-7.41,3.71-13.31Z"/>
      <path class="cls-10" d="M742.35,224.09l-1.06-65.41-19.17.31-.22-13.32,51.29-.83.21,13.32-19.12.31,1.06,65.41-13,.21Z"/>
      <path class="cls-10" d="M801.13,146.77l25.66,3.22c7.01.88,11.85,2.14,14.54,3.77,2.68,1.64,4.8,4.19,6.35,7.67,1.55,3.48,2.07,7.26,1.56,11.35-.47,3.77-1.74,7.06-3.8,9.89s-4.52,4.8-7.38,5.92c3.63,1.83,6.31,4.51,8.05,8.05,1.74,3.54,2.31,7.65,1.72,12.34-.71,5.69-2.69,10.32-5.91,13.9-3.23,3.58-6.77,5.6-10.61,6.06-2.67.31-8.74-.12-18.19-1.31l-21.8-2.74,9.81-78.13ZM808.5,192.46l-2.62,20.84,12.01,1.51c5.27.66,8.68.81,10.25.45,1.57-.36,2.96-1.29,4.17-2.77,1.22-1.48,1.98-3.47,2.29-5.95.32-2.55.04-4.72-.84-6.5s-2.18-3.1-3.9-3.95c-1.72-.85-5.36-1.62-10.91-2.31l-10.47-1.31ZM812.4,161.39l-2.27,18.07,8.53,1.07c5.12.64,8.29.95,9.52.92,2.25-.08,4.09-.79,5.52-2.15,1.43-1.35,2.31-3.33,2.64-5.92.29-2.31.02-4.25-.81-5.81-.83-1.57-1.94-2.62-3.34-3.15-1.39-.54-5.5-1.23-12.32-2.09l-7.46-.94Z"/>
      <path class="cls-10" d="M886.45,218.58l-8.7-60.66,14.14,3.7,4.17,43.34,22.95-36.25,13.04,3.41-36.21,52.38c-4.45,6.38-8.27,10.7-11.45,12.94-3.18,2.24-6.47,2.91-9.87,2.02-3.26-.85-6.09-1.93-8.5-3.22l2.98-11.38c2.05.68,3.61,1.17,4.68,1.45,3.05.8,5.37.72,6.94-.24s3.51-3.46,5.83-7.49Z"/>
      <path class="cls-10" d="M926.47,253.37l29.42-73.04,44.44,17.9-4.98,12.36-32.38-13.05-6.52,16.19,30.09,12.12-4.96,12.31-30.09-12.12-7.99,19.83,33.48,13.49-4.98,12.36-45.54-18.34Z"/>
      <path class="cls-10" d="M989.45,279.81l39.6-68.06,16.85,9.8-16.89,52.38,37.1-40.61,16.93,9.85-39.6,68.06-10.49-6.1,31.2-53.62-42.32,47.15-10.84-6.31,20.15-60.05-31.2,53.62-10.49-6.1Z"/>
      <path class="cls-10" d="M1069.54,312.03l9.92,7.36-6.43,8.67c-3.65,4.92-6.93,8.14-9.85,9.68-3.61,1.92-7.6,2.37-11.97,1.35l1.77-6.44c2.55.65,4.77.6,6.64-.12,1.88-.73,3.78-2.33,5.72-4.82l-4.79-3.55,8.99-12.12Z"/>
      <path class="cls-10" d="M1114.37,368.1l56.54-54.8,14.58,15.04c5.43,5.6,8.71,9.53,9.84,11.78,1.79,3.6,2.13,7.67,1.01,12.23-1.12,4.55-3.93,9.01-8.43,13.37-4.09,3.96-8.26,6.51-12.52,7.65-4.26,1.14-8.07,1.09-11.43-.14s-7.78-4.67-13.27-10.33l-5.94-6.13-21.33,20.67-9.05-9.33ZM1170.4,331.9l-16.08,15.59,5.02,5.18c3.37,3.48,5.91,5.61,7.61,6.38,1.7.78,3.58.94,5.63.51,2.05-.44,4-1.56,5.86-3.35,1.88-1.82,3.07-3.77,3.56-5.85.49-2.07.37-3.93-.37-5.56-.74-1.64-3-4.41-6.8-8.33l-4.42-4.56Z"/>
      <path class="cls-10" d="M1195.87,465.17l-8.4-11.37,10.98-15.14-15.36-20.79-17.51,6.3-8.23-11.15,78.27-26.56,8.2,11.1-47.96,67.6ZM1206.68,427.37l18.21-24.53-28.7,10.32,10.49,14.21Z"/>
      <path class="cls-10" d="M1248.9,500.84l1.73,13.42c-8.68,2.47-15.9,2.67-21.66.58-5.76-2.09-10.24-6.08-13.43-11.96-4.02-7.39-4.42-14.94-1.22-22.62,3.71-8.86,11.14-16.32,22.32-22.39,11.8-6.41,22.48-8.76,32.04-7.06,8.3,1.49,14.58,6.13,18.82,13.95,3.46,6.36,4.17,12.86,2.16,19.51-1.43,4.73-4.79,9.45-10.09,14.17l-9.46-9.53c3.35-2.76,5.44-5.76,6.26-9,.83-3.24.44-6.33-1.15-9.26-2.28-4.19-5.96-6.62-11.05-7.29-5.09-.67-11.83,1.28-20.23,5.85-8.72,4.73-14.21,9.39-16.5,13.97-2.28,4.58-2.3,8.93-.06,13.05,1.64,3.02,4.23,5,7.77,5.93,3.54.93,8.12.5,13.75-1.29Z"/>
      <path class="cls-10" d="M1242.56,557.43l61.06-23.49-6.88-17.9,12.43-4.78,18.41,47.88-12.43,4.78-6.87-17.85-61.06,23.49-4.67-12.13Z"/>
      <path class="cls-10" d="M1259.1,603.82l76.46-18.8,11.44,46.52-12.94,3.18-8.34-33.9-16.95,4.17,7.75,31.5-12.88,3.17-7.75-31.5-20.76,5.1,8.62,35.05-12.93,3.18-11.72-47.67Z"/>
      <path class="cls-10" d="M1274.45,670.39l78.37-7.65,1.89,19.4-52.37,16.9,54.64,6.37,1.9,19.49-78.37,7.65-1.18-12.08,61.74-6.02-62.99-6.79-1.22-12.48,60.5-18.74-61.74,6.02-1.18-12.08Z"/>
      <path class="cls-10" d="M1280.03,756.28l15.09.26-.21,12.33-15.09-.24.21-12.35ZM1300.28,759.27l40.01-2.49,18.47.3-.23,13.37-18.47-.32-39.9-3.85.12-7.01Z"/>
    </g>
    <g>
      <path class="cls-10" d="M275.99,1133.11l59.23-51.88,31.81,36.32-10.02,8.78-23.25-26.54-13.54,11.86,12.17,13.9c4.6,5.25,6.57,10.81,5.92,16.66s-3.67,11.14-9.06,15.86c-4.69,4.11-9.94,6.46-15.75,7.05-5.81.59-11.41-2.18-16.79-8.32l-20.74-23.68ZM310.21,1120.42l-15.64,13.7,9.04,10.32c2.35,2.69,4.24,4.47,5.65,5.35,1.41.88,3.17,1.19,5.28.93,2.11-.26,4.04-1.15,5.79-2.68,5.31-4.65,5.06-10.28-.73-16.89l-9.4-10.73Z"/>
      <path class="cls-10" d="M378.04,1233.72l-10.7-9.23,7.36-17.2-19.57-16.88-15.69,10.02-10.5-9.05,70.46-43.21,10.46,9.02-31.82,76.53ZM380.22,1194.46l12.33-27.95-25.71,16.42,13.38,11.53Z"/>
      <path class="cls-10" d="M400.61,1249.99l42.58-66.24,40.62,26.11-7.2,11.21-29.68-19.08-9.73,15.14,15.54,9.99c5.87,3.78,9.31,8.57,10.3,14.38s-.45,11.73-4.32,17.75c-3.37,5.24-7.77,8.95-13.19,11.13s-11.57,1.06-18.43-3.36l-26.48-17.02ZM429.98,1228.33l-11.24,17.49,11.54,7.42c3.01,1.93,5.31,3.12,6.91,3.58,1.6.45,3.38.27,5.33-.56,1.96-.83,3.56-2.22,4.82-4.18,3.81-5.93,2.02-11.28-5.37-16.03l-11.99-7.71Z"/>
      <path class="cls-10" d="M473.65,1294.12l32.87-71.55,11.27,5.18-21.9,47.69,45.67-36.77,11.86,5.45-32.87,71.55-11.27-5.18,21.43-46.66-45.17,35.76-11.89-5.46Z"/>
      <path class="cls-10" d="M552.43,1327.66l22.44-75.48,12.46,3.7-8.83,29.71,24.56,7.3,8.83-29.71,12.46,3.7-22.44,75.48-12.46-3.7,9.81-33-24.56-7.3-9.81,33-12.46-3.7Z"/>
      <path class="cls-10" d="M635.38,1349.8l11.57-77.89,12.27,1.82-7.71,51.91,33.58-48.06,12.91,1.92-11.57,77.89-12.27-1.82,7.54-50.79-33.39,46.95-12.94-1.92Z"/>
      <path class="cls-10" d="M718.97,1309.18l.46-28.14,13,.21-.34,20.89c-.07,4.37.06,7.62.41,9.76.34,2.14,1.37,3.95,3.08,5.45,1.71,1.5,4.41,2.27,8.1,2.33,5.51.09,9.94-1.27,13.28-4.08l.55-33.94,13,.21-1.28,78.73-13-.21.51-31.69c-5.17,2.71-10.33,4.02-15.48,3.94-7.16-.12-12.69-2.22-16.6-6.31-3.91-4.09-5.8-9.81-5.68-17.15Z"/>
      <path class="cls-10" d="M841.27,1324.5l13.14,3.23c-.82,8.99-3.25,15.79-7.27,20.41-4.03,4.62-9.36,7.36-16,8.21-8.35,1.08-15.53-1.26-21.54-7.02-6.92-6.65-11.2-16.28-12.83-28.89-1.72-13.32-.07-24.13,4.97-32.43,4.38-7.21,10.98-11.38,19.79-12.52,7.18-.93,13.5.75,18.97,5.02,3.9,3.04,7.09,7.88,9.58,14.52l-12.3,5.38c-1.37-4.12-3.41-7.15-6.14-9.09s-5.75-2.7-9.05-2.27c-4.73.61-8.33,3.17-10.78,7.68-2.46,4.51-3.07,11.5-1.84,20.98,1.27,9.84,3.63,16.64,7.08,20.42,3.45,3.78,7.5,5.37,12.15,4.77,3.41-.44,6.18-2.14,8.33-5.11,2.14-2.97,3.39-7.4,3.75-13.29Z"/>
      <path class="cls-10" d="M888.34,1345.03l-20.3-76.08,12.56-3.35,8.64,32.38c2.71-1.09,4.4-2.55,5.06-4.38.66-1.83,1.09-5.92,1.29-12.27.2-6.35.89-11.12,2.07-14.31,1.19-3.19,2.77-5.36,4.76-6.52,1.99-1.16,5.56-2.56,10.72-4.2l3.05,11.42-1.76.47c-3.56.95-5.75,2.42-6.57,4.4s-1.27,5.5-1.36,10.56c-.08,5.06-.39,8.49-.93,10.3-.54,1.81-1.66,3.75-3.36,5.83,3.07.41,5.83,1.66,8.26,3.76,2.43,2.1,5.68,5.83,9.74,11.2l14.06,18.54-14.78,3.95-12.78-17.66c-3.24-4.51-5.81-7.57-7.71-9.2-1.9-1.62-4.22-2.11-6.97-1.45l8.88,33.26-12.56,3.35Z"/>
      <path class="cls-10" d="M1014.08,1301.56l-13.05,5.42-12.06-14.3-23.87,9.91,1.9,18.52-12.8,5.31-6.96-82.36,12.75-5.29,54.08,62.81ZM979.99,1281.98l-19.43-23.57,3.12,30.34,16.31-6.77Z"/>
      <path class="cls-10" d="M1072.11,1268.94l-16.75-28.28-2.31,1.37c-2.59,1.53-4.32,2.9-5.19,4.1-.87,1.2-1.43,2.78-1.68,4.74-.25,1.96-.26,6.47-.03,13.53l.62,19.55-13.38,7.93-1.08-17.21c-.43-6.9-.46-11.85-.11-14.83.36-2.98,1.23-6.04,2.61-9.19-5.18,1.94-9.99,2.05-14.45.32s-8.26-5.24-11.4-10.54c-2.48-4.19-3.78-8.28-3.9-12.27-.12-3.99.76-7.36,2.63-10.11s5.82-5.91,11.86-9.49l23.61-13.99,40.13,67.75-11.18,6.62ZM1038.77,1212.65l-8.78,5.2c-5.02,2.97-7.96,4.94-8.8,5.9-1.19,1.37-1.82,2.96-1.91,4.78-.09,1.82.51,3.81,1.79,5.97,1.33,2.25,2.83,3.8,4.5,4.64,1.67.85,3.32,1.08,4.97.71,1.65-.37,5.02-2.07,10.1-5.08l8.32-4.93-10.18-17.19Z"/>
      <path class="cls-10" d="M1154.07,1168.62l12.61-4.92c4.5,7.83,6.43,14.78,5.8,20.88-.63,6.09-3.42,11.4-8.35,15.93-6.2,5.68-13.42,7.9-21.66,6.66-9.49-1.45-18.53-6.87-27.12-16.24-9.07-9.9-13.94-19.69-14.6-29.38-.57-8.42,2.43-15.63,8.98-21.63,5.34-4.89,11.47-7.16,18.4-6.81,4.93.24,10.33,2.36,16.19,6.37l-6.96,11.48c-3.49-2.58-6.9-3.88-10.25-3.9-3.35-.02-6.25,1.1-8.71,3.36-3.52,3.22-4.98,7.38-4.4,12.48.59,5.1,4.11,11.17,10.57,18.22,6.7,7.31,12.55,11.52,17.54,12.63,5,1.11,9.22.07,12.68-3.1,2.53-2.32,3.82-5.31,3.87-8.97.05-3.66-1.48-8-4.58-13.03Z"/>
      <path class="cls-10" d="M1206.51,1157.25l-61.95-48.61,8.02-10.23,51.47,40.38,11.6-14.79-51.47-40.38,8.02-10.23,51.47,40.38,11.87-15.13-51.47-40.38,8.02-10.23,61.95,48.61-47.55,60.59Z"/>
    </g>
  </g>
</svg>